<svg width="50" height="50" viewBox="0 0 50 50" fill="none" xmlns="http://www.w3.org/2000/svg">
<g clip-path="url(#clip0_1274_16155)">
<path d="M17.9163 3.33333C18.3766 3.33333 18.7497 2.96024 18.7497 2.5V0.833333C18.7497 0.373096 18.3766 0 17.9163 0C17.4561 0 17.083 0.373096 17.083 0.833333V2.5C17.083 2.96024 17.4561 3.33333 17.9163 3.33333Z" fill="#A6A9B5"/>
<path d="M17.083 9.16669C17.083 9.62693 17.4561 10 17.9163 10C18.3766 10 18.7497 9.62693 18.7497 9.16669V7.50002C18.7497 7.03978 18.3766 6.66669 17.9163 6.66669C17.4561 6.66669 17.083 7.03978 17.083 7.50002V9.16669Z" fill="#A6A9B5"/>
<path d="M13.8917 3.63827L15.335 4.4716C15.593 4.62283 15.9122 4.62425 16.1715 4.47531C16.4308 4.32637 16.5904 4.0499 16.5898 3.75086C16.5891 3.45183 16.4283 3.17607 16.1683 3.02827L14.725 2.19494C14.467 2.0437 14.1478 2.04228 13.8885 2.19123C13.6292 2.34017 13.4696 2.61663 13.4702 2.91567C13.4709 3.21471 13.6317 3.49047 13.8917 3.63827Z" fill="#A6A9B5"/>
<path d="M20.0834 4.58332C20.2297 4.58331 20.3734 4.5448 20.5 4.47165L21.9434 3.63832C22.3385 3.40664 22.4726 2.89944 22.2436 2.50273C22.0145 2.10603 21.5083 1.96857 21.11 2.19498L19.6667 3.02831C19.3401 3.21691 19.1809 3.60136 19.2785 3.96567C19.3761 4.32997 19.7062 4.5833 20.0834 4.58332Z" fill="#A6A9B5"/>
<path d="M13.5835 7.50005C13.8136 7.8986 14.3232 8.03516 14.7218 7.80505L16.1651 6.97171C16.4251 6.82391 16.5859 6.54815 16.5866 6.24911C16.5872 5.95007 16.4276 5.67361 16.1683 5.52466C15.909 5.37572 15.5898 5.37713 15.3318 5.52837L13.8885 6.36171C13.4899 6.59183 13.3534 7.10148 13.5835 7.50005Z" fill="#A6A9B5"/>
<path d="M10.4283 43.0109C10.7716 45.0942 13.2616 46.6667 16.2166 46.6667C17.384 46.6768 18.5379 46.417 19.5883 45.9075C19.6425 48.2084 22.1808 50 25.4166 50C28.56 50 31.0491 48.31 31.2383 46.1034C31.2541 46.0473 31.2639 45.9898 31.2675 45.9317C32.3032 46.4235 33.4368 46.6748 34.5833 46.6667C37.8541 46.6667 40.4166 44.8334 40.4166 42.5V23.3334C40.406 22.5349 40.1105 21.7665 39.5833 21.1667V17.5C39.5797 17.4741 39.5744 17.4485 39.5675 17.4234C39.4091 15.4234 37.0975 13.8917 34.1666 13.8917C32.844 13.8647 31.5417 14.2206 30.4166 14.9167V14.4417C30.4166 12.4167 28.22 10.8334 25.4166 10.8334C25.3208 10.8334 25.235 10.8392 25.1458 10.8425C24.2759 8.79818 22.7731 7.08682 20.8583 5.96002C20.4671 5.7161 19.9522 5.83549 19.7083 6.22669C19.4644 6.61789 19.5838 7.13277 19.975 7.37669C21.477 8.26112 22.6853 9.56827 23.4491 11.135C21.6533 11.6842 20.4275 12.9634 20.4183 14.4434V14.4534V14.92C19.2933 14.224 17.991 13.868 16.6683 13.895C13.7375 13.895 11.4258 15.43 11.2675 17.4267C11.2601 17.4507 11.2542 17.4752 11.25 17.5V21.1667C10.7228 21.7665 10.4272 22.5349 10.4166 23.3334V31.6667H10.3833C10.3834 31.8173 10.3946 31.9677 10.4166 32.1167V35H10.3833C10.3834 35.1506 10.3946 35.301 10.4166 35.45V42.875C10.4167 42.9205 10.4206 42.966 10.4283 43.0109ZM12.0833 42.7992V37.9659C13.3055 38.7802 14.7484 39.1994 16.2166 39.1667C17.382 39.1768 18.5341 38.9182 19.5833 38.4109V43.9334C18.6143 44.66 17.4273 45.0361 16.2166 45C14.135 45 12.3391 44.0384 12.0833 42.7992ZM24.5833 17.8617V20C24.5833 20.4603 24.9564 20.8334 25.4166 20.8334C25.8769 20.8334 26.25 20.4603 26.25 20V17.8617C26.25 17.7567 26.25 17.6559 26.25 17.5525C28.1266 17.7909 29.5833 18.815 29.5833 20C29.5833 21.355 27.675 22.5 25.4166 22.5C23.1583 22.5 21.25 21.355 21.25 20C21.25 18.8167 22.7066 17.7934 24.5833 17.5534V17.8617ZM29.6166 35H29.5833C29.5833 36.355 27.675 37.5 25.4166 37.5C23.1583 37.5 21.25 36.355 21.25 35V29.6075C22.4781 30.4385 23.9342 30.8669 25.4166 30.8334C26.9132 30.8685 28.3828 30.4311 29.6166 29.5834V35ZM29.5833 26.6667C29.5833 28.0217 27.675 29.1667 25.4166 29.1667C23.1583 29.1667 21.25 28.0217 21.25 26.6667C21.25 25.3117 23.1583 24.1667 25.4166 24.1667C27.675 24.1667 29.5833 25.3117 29.5833 26.6667ZM21.25 37.9409C22.4781 38.7718 23.9342 39.2002 25.4166 39.1667C26.9132 39.2019 28.3828 38.7645 29.6166 37.9167V38.3334H29.5833C29.5833 39.6884 27.675 40.8334 25.4166 40.8334C23.1583 40.8334 21.25 39.6884 21.25 38.3334V37.9409ZM19.5833 33.1C18.6143 33.8266 17.4273 34.2027 16.2166 34.1667C14.0675 34.1667 12.255 33.1267 12.0833 31.8584V26.275C13.3115 27.1057 14.7676 27.5338 16.25 27.5C17.402 27.5129 18.5419 27.2635 19.5833 26.7709V33.1ZM16.2166 35.8334C17.382 35.8435 18.5341 35.5848 19.5833 35.0775V36.4334C18.6143 37.16 17.4273 37.5361 16.2166 37.5C14.0675 37.5 12.255 36.46 12.0833 35.1917V34.6325C13.3055 35.4469 14.7484 35.866 16.2166 35.8334ZM29.5833 45.8334C29.5833 47.1884 27.675 48.3334 25.4166 48.3334C23.1583 48.3334 21.25 47.1884 21.25 45.8334V41.2742C22.4781 42.1052 23.9342 42.5336 25.4166 42.5C26.9132 42.5352 28.3828 42.0978 29.6166 41.25V45.6009C29.5946 45.6764 29.5834 45.7547 29.5833 45.8334ZM34.5833 45C33.4018 45.0361 32.2416 44.6804 31.2833 43.9884V38.44C32.3151 38.9262 33.4428 39.1745 34.5833 39.1667C36.0657 39.2002 37.5219 38.7718 38.75 37.9409V42.5C38.75 43.855 36.8416 45 34.5833 45ZM34.5833 37.5C33.4018 37.5361 32.2416 37.1804 31.2833 36.4884V35.1067C32.3151 35.5929 33.4428 35.8412 34.5833 35.8334C36.0657 35.8669 37.5219 35.4385 38.75 34.6075V35C38.75 36.355 36.8416 37.5 34.5833 37.5ZM34.5833 34.1667C33.4018 34.2028 32.2416 33.8471 31.2833 33.155V26.7884C32.3162 27.2695 33.4439 27.5127 34.5833 27.5C36.0657 27.5336 37.5219 27.1052 38.75 26.2742V31.6667C38.75 33.0217 36.8416 34.1667 34.5833 34.1667ZM34.5833 25.8334C32.325 25.8334 30.4166 24.6884 30.4166 23.3334C30.4166 21.9784 32.325 20.8334 34.5833 20.8334C36.8416 20.8334 38.75 21.9784 38.75 23.3334C38.75 24.6884 36.8416 25.8334 34.5833 25.8334ZM34.1666 15.5584C36.3766 15.5584 37.9166 16.6559 37.9166 17.6417C37.9166 18.2892 37.2791 18.9392 36.2808 19.3409C35.7225 19.2244 35.1536 19.166 34.5833 19.1667C33.842 19.1646 33.1039 19.2647 32.39 19.4642C31.8512 19.305 31.3557 19.0254 30.9408 18.6467C30.8127 18.3747 30.6518 18.1195 30.4616 17.8867C30.4372 17.8071 30.4221 17.7248 30.4166 17.6417C30.4166 16.6559 31.9566 15.5584 34.1666 15.5584ZM28.75 14.4434C28.7458 15.0659 28.1666 15.6759 27.265 16.0417C26.9116 15.9622 26.5533 15.9065 26.1925 15.875C26.1357 14.7442 25.9728 13.6212 25.7058 12.5209C27.3566 12.6109 28.75 13.465 28.75 14.4434ZM24.0241 12.6934C24.3013 13.7361 24.4688 14.805 24.5241 15.8825C24.203 15.9156 23.884 15.9679 23.5691 16.0392C22.6666 15.6759 22.0875 15.0659 22.0833 14.4417C22.0833 13.7025 22.8775 13.0175 24.0241 12.6959V12.6934ZM16.6666 15.5584C18.8766 15.5584 20.4166 16.6559 20.4166 17.6417C20.4112 17.7248 20.3961 17.8071 20.3716 17.8867C20.1815 18.1195 20.0206 18.3747 19.8925 18.6467C19.4782 19.0254 18.9832 19.305 18.445 19.4642C17.7304 19.2648 16.9918 19.1647 16.25 19.1667C15.6796 19.166 15.1108 19.2244 14.5525 19.3409C13.5541 18.9392 12.9166 18.2892 12.9166 17.6417C12.9166 16.6559 14.4566 15.5584 16.6666 15.5584ZM16.25 20.8334C18.5083 20.8334 20.4166 21.9784 20.4166 23.3334C20.4166 24.6884 18.5083 25.8334 16.25 25.8334C13.9916 25.8334 12.0833 24.6884 12.0833 23.3334C12.0833 21.9784 13.9916 20.8334 16.25 20.8334Z" fill="#A6A9B5"/>
</g>
<defs>
<clipPath id="clip0_1274_16155">
<rect width="50" height="50" fill="white"/>
</clipPath>
</defs>
</svg>
