<svg width="18" height="18" viewBox="0 0 18 18" fill="none" xmlns="http://www.w3.org/2000/svg">
<path fill-rule="evenodd" clip-rule="evenodd" d="M13.9508 4.04927C14.1998 4.29823 14.1998 4.70187 13.9508 4.95083L4.95083 13.9508C4.70187 14.1998 4.29823 14.1998 4.04927 13.9508C3.80031 13.7019 3.80031 13.2982 4.04927 13.0493L13.0493 4.04927C13.2982 3.80031 13.7019 3.80031 13.9508 4.04927Z" fill="#A6A9B5"/>
<path fill-rule="evenodd" clip-rule="evenodd" d="M4.04927 4.04927C4.29823 3.80031 4.70187 3.80031 4.95083 4.04927L13.9508 13.0493C14.1998 13.2982 14.1998 13.7019 13.9508 13.9508C13.7019 14.1998 13.2982 14.1998 13.0493 13.9508L4.04927 4.95083C3.80031 4.70187 3.80031 4.29823 4.04927 4.04927Z" fill="#A6A9B5"/>
</svg>
