<svg width="50" height="50" viewBox="0 0 50 50" fill="none" xmlns="http://www.w3.org/2000/svg">
<path d="M21.458 7.81482C21.89 7.81482 22.2393 7.46482 22.2393 7.03357C22.2393 6.60232 21.89 6.25232 21.458 6.25232C21.0268 6.25232 20.6768 5.90154 20.6768 5.47107C20.6768 5.0406 21.0268 4.68982 21.458 4.68982C21.89 4.68982 22.2393 4.33982 22.2393 3.90857C22.2393 3.47732 21.89 3.12732 21.458 3.12732C20.1658 3.12732 19.1143 4.17888 19.1143 5.47107C19.1143 6.76326 20.1658 7.81482 21.458 7.81482Z" fill="#A6A9B5"/>
<path d="M21.4609 10.9382C21.893 10.9382 22.2422 10.5882 22.2422 10.157C22.2422 9.72573 21.893 9.37573 21.4609 9.37573C19.307 9.37573 17.5547 7.62339 17.5547 5.46948C17.5547 3.31558 19.307 1.56323 21.4609 1.56323C21.893 1.56323 22.2422 1.21323 22.2422 0.781982C22.2422 0.350732 21.893 0.000732422 21.4609 0.000732422C18.4461 0.000732422 15.9922 2.45386 15.9922 5.46948C15.9922 8.48511 18.4453 10.9382 21.4609 10.9382Z" fill="#A6A9B5"/>
<path d="M29.2729 10.9406C31.4269 10.9406 33.1792 9.18827 33.1792 7.03436C33.1792 4.88046 31.4269 3.12811 29.2729 3.12811C28.8409 3.12811 28.4917 3.47811 28.4917 3.90936C28.4917 4.34061 28.8409 4.69061 29.2729 4.69061C30.5651 4.69061 31.6167 5.74218 31.6167 7.03436C31.6167 8.32655 30.5651 9.37811 29.2729 9.37811C28.8409 9.37811 28.4917 9.72811 28.4917 10.1594C28.4917 10.5906 28.8409 10.9406 29.2729 10.9406Z" fill="#A6A9B5"/>
<path d="M29.2737 14.0656C33.1503 14.0656 36.3042 10.9117 36.3042 7.03511C36.3042 3.15855 33.1503 0.00463867 29.2737 0.00463867C28.8417 0.00463867 28.4925 0.354639 28.4925 0.785889C28.4925 1.21714 28.8417 1.56714 29.2737 1.56714C32.2886 1.56714 34.7417 4.02026 34.7417 7.03511C34.7417 10.05 32.2886 12.5031 29.2737 12.5031C28.8417 12.5031 28.4925 12.8531 28.4925 13.2843C28.4925 13.7156 28.8417 14.0656 29.2737 14.0656V14.0656Z" fill="#A6A9B5"/>
<path d="M21.4579 4.68982H29.272C29.704 4.68982 30.0532 4.33982 30.0532 3.90857C30.0532 3.47732 29.704 3.12732 29.272 3.12732H21.4579C21.0259 3.12732 20.6766 3.47732 20.6766 3.90857C20.6766 4.33982 21.0259 4.68982 21.4579 4.68982Z" fill="#A6A9B5"/>
<path d="M21.4577 7.81482H29.2749C29.7069 7.81482 30.0562 7.46482 30.0562 7.03357C30.0562 6.60232 29.7069 6.25232 29.2749 6.25232H21.4577C21.0257 6.25232 20.6765 6.60232 20.6765 7.03357C20.6765 7.46482 21.0257 7.81482 21.4577 7.81482Z" fill="#A6A9B5"/>
<path d="M21.4581 10.9406H29.2729C29.705 10.9406 30.0542 10.5906 30.0542 10.1593C30.0542 9.72805 29.705 9.37805 29.2729 9.37805H21.4581C21.026 9.37805 20.6768 9.72805 20.6768 10.1593C20.6768 10.5906 21.026 10.9406 21.4581 10.9406Z" fill="#A6A9B5"/>
<path d="M29.2749 10.9383C29.7069 10.9383 30.0562 10.5883 30.0562 10.157V7.03357C30.0562 6.60232 29.7069 6.25232 29.2749 6.25232C28.8429 6.25232 28.4937 6.60232 28.4937 7.03357V10.157C28.4937 10.5883 28.8429 10.9383 29.2749 10.9383V10.9383Z" fill="#A6A9B5"/>
<path d="M21.461 1.56714H29.2734C29.7055 1.56714 30.0547 1.21714 30.0547 0.785889C30.0547 0.354639 29.7055 0.00463867 29.2734 0.00463867H21.461C21.0289 0.00463867 20.6797 0.354639 20.6797 0.785889C20.6797 1.21714 21.0289 1.56714 21.461 1.56714Z" fill="#A6A9B5"/>
<path d="M21.4633 14.0656H29.2734C29.7055 14.0656 30.0547 13.7156 30.0547 13.2844C30.0547 12.8531 29.7055 12.5031 29.2734 12.5031H21.4633C21.0313 12.5031 20.6821 12.8531 20.6821 13.2844C20.6821 13.7156 21.0313 14.0656 21.4633 14.0656Z" fill="#A6A9B5"/>
<path d="M21.4609 21.0797C21.893 21.0797 22.2422 20.7297 22.2422 20.2984V13.2836C22.2422 12.8523 21.893 12.5023 21.4609 12.5023C21.0289 12.5023 20.6797 12.8523 20.6797 13.2836V20.2984C20.6797 20.7304 21.0289 21.0797 21.4609 21.0797Z" fill="#A6A9B5"/>
<path d="M26.1533 25.7733C31.7518 25.7733 36.3057 21.2202 36.3057 15.6234C36.3057 15.1921 35.9564 14.8421 35.5244 14.8421C35.0924 14.8421 34.7432 15.1921 34.7432 15.6234C34.7432 20.3585 30.8893 24.2108 26.1533 24.2108C21.4166 24.2108 17.5627 20.3585 17.5627 15.6234C17.5627 15.1921 17.2135 14.8421 16.7814 14.8421C16.3494 14.8421 16.0002 15.1921 16.0002 15.6234C15.9994 21.2202 20.5549 25.7733 26.1533 25.7733Z" fill="#A6A9B5"/>
<path d="M35.5229 16.4047C35.955 16.4047 36.3042 16.0547 36.3042 15.6234V7.03516C36.3042 6.60391 35.955 6.25391 35.5229 6.25391C35.0909 6.25391 34.7417 6.60391 34.7417 7.03516V15.6234C34.7417 16.0547 35.0909 16.4047 35.5229 16.4047Z" fill="#A6A9B5"/>
<path d="M16.7734 16.4046C17.2055 16.4046 17.5547 16.0546 17.5547 15.6234V5.46948C17.5547 5.03823 17.2055 4.68823 16.7734 4.68823C16.3414 4.68823 15.9922 5.03823 15.9922 5.46948V15.6234C15.9922 16.0546 16.3414 16.4046 16.7734 16.4046Z" fill="#A6A9B5"/>
<path d="M26.1533 25.7734C26.5854 25.7734 26.9346 25.4234 26.9346 24.9921C26.9346 24.5609 26.5854 24.2109 26.1533 24.2109C23.9947 24.2109 22.2393 22.4554 22.2393 20.2984C22.2393 19.8671 21.8901 19.5172 21.458 19.5172C21.026 19.5172 20.6768 19.8671 20.6768 20.2984C20.6768 23.3179 23.133 25.7734 26.1533 25.7734Z" fill="#A6A9B5"/>
<path d="M26.1533 49.9992C26.5854 49.9992 26.9346 49.65 26.9346 49.218V24.9922C26.9346 24.5609 26.5854 24.2109 26.1533 24.2109C25.7213 24.2109 25.3721 24.5609 25.3721 24.9922V49.218C25.3721 49.65 25.7213 49.9992 26.1533 49.9992Z" fill="#A6A9B5"/>
<path d="M14.6444 29.8446C15.4796 29.8446 16.264 29.5195 16.8546 28.9289C18.0726 27.7102 18.0726 25.7281 16.8546 24.5109C16.2983 23.9547 9.82178 18.6445 7.71318 18.6445C7.27334 18.6445 7.00224 18.8242 6.85068 18.975C6.19834 19.6273 6.30849 20.7625 8.86943 24.4016C10.2655 26.3852 11.9132 28.4078 12.4343 28.9289C13.0257 29.5195 13.8101 29.8446 14.6444 29.8446V29.8446ZM8.2124 20.3352C10.0397 21.0625 14.8022 24.6672 15.7499 25.6156C16.3585 26.2242 16.3585 27.2156 15.7499 27.8242C15.1601 28.4149 14.1312 28.4156 13.5397 27.8242C12.553 26.8383 8.93974 22.1398 8.2124 20.3352V20.3352Z" fill="#A6A9B5"/>
<path d="M19.064 37.5789C20.7874 37.5789 22.189 36.1773 22.189 34.4539C22.189 32.7312 20.7874 31.3297 19.064 31.3297C17.9421 31.3297 13.596 32.2984 13.596 34.4539C13.596 36.6093 17.9429 37.5789 19.064 37.5789ZM19.064 32.8922C19.9257 32.8922 20.6265 33.5922 20.6265 34.4539C20.6265 35.3156 19.9257 36.0164 19.064 36.0164C17.6686 36.0164 15.2413 34.9617 15.1585 34.45C15.2421 33.9453 17.6686 32.8922 19.064 32.8922Z" fill="#A6A9B5"/>
<path d="M26.1556 39.0125C26.3556 39.0125 26.5556 38.936 26.7079 38.7836C27.0134 38.4782 27.0134 37.9844 26.7079 37.6789L16.8548 27.825C16.5493 27.5196 16.0556 27.5196 15.7501 27.825C15.4446 28.1305 15.4446 28.6243 15.7501 28.9297L25.6032 38.7836C25.7563 38.936 25.9563 39.0125 26.1556 39.0125Z" fill="#A6A9B5"/>
<path d="M36.8845 40.0524C37.7196 40.0524 38.504 39.7274 39.0946 39.1367C39.1563 39.075 44.8618 32.4922 43.1149 30.7453C42.9485 30.5789 42.6454 30.3805 42.1485 30.3805C40.1431 30.3805 35.3563 34.0375 34.6759 34.718C33.4579 35.9367 33.4579 37.9188 34.6759 39.1367C35.2657 39.7274 36.0501 40.0524 36.8845 40.0524V40.0524ZM41.8829 31.9789C41.5548 33.2891 38.9938 37.0274 37.9899 38.032C37.4001 38.6227 36.3712 38.6227 35.7798 38.032C35.1712 37.4235 35.1712 36.4313 35.7798 35.8227C36.6634 34.9391 40.4431 32.3149 41.8829 31.9789V31.9789Z" fill="#A6A9B5"/>
<path d="M32.4656 47.7861C33.5875 47.7861 37.9336 46.8173 37.9336 44.6611C37.9336 42.5056 33.5875 41.5369 32.4656 41.5369C30.7422 41.5369 29.3406 42.9384 29.3406 44.6611C29.3406 46.3845 30.7422 47.7861 32.4656 47.7861ZM32.4656 43.0994C33.8609 43.0994 36.2883 44.1533 36.3711 44.665C36.2883 45.1697 33.8609 46.2236 32.4656 46.2236C31.6039 46.2236 30.9031 45.5228 30.9031 44.6611C30.9031 43.7994 31.6039 43.0994 32.4656 43.0994V43.0994Z" fill="#A6A9B5"/>
<path d="M26.1555 48.4375C26.3555 48.4375 26.5555 48.3609 26.7078 48.2086L35.7797 39.1367C36.0852 38.8312 36.0852 38.3375 35.7797 38.032C35.4742 37.7266 34.9805 37.7266 34.675 38.032L25.6039 47.1039C25.2984 47.4094 25.2984 47.9031 25.6039 48.2086C25.7562 48.3609 25.9562 48.4375 26.1555 48.4375Z" fill="#A6A9B5"/>
<path d="M25.3742 28.9062H26.1524C26.5844 28.9062 26.9336 28.557 26.9336 28.125C26.9336 27.693 26.5844 27.3438 26.1524 27.3438H25.3742C24.9422 27.3438 24.593 27.693 24.593 28.125C24.593 28.557 24.943 28.9062 25.3742 28.9062Z" fill="#A6A9B5"/>
<path d="M25.3742 35.1562H26.1524C26.5844 35.1562 26.9336 34.807 26.9336 34.375C26.9336 33.943 26.5844 33.5938 26.1524 33.5938H25.3742C24.9422 33.5938 24.593 33.943 24.593 34.375C24.593 34.807 24.943 35.1562 25.3742 35.1562Z" fill="#A6A9B5"/>
<path d="M25.3742 41.4062H26.1524C26.5844 41.4062 26.9336 41.057 26.9336 40.625C26.9336 40.193 26.5844 39.8438 26.1524 39.8438H25.3742C24.9422 39.8438 24.593 40.193 24.593 40.625C24.593 41.057 24.943 41.4062 25.3742 41.4062Z" fill="#A6A9B5"/>
<path d="M25.3742 47.6562H26.1524C26.5844 47.6562 26.9336 47.307 26.9336 46.875C26.9336 46.443 26.5844 46.0938 26.1524 46.0938H25.3742C24.9422 46.0938 24.593 46.443 24.593 46.875C24.593 47.307 24.943 47.6562 25.3742 47.6562Z" fill="#A6A9B5"/>
<path d="M26.1531 44.5312H26.9375C27.3695 44.5312 27.7188 44.182 27.7188 43.75C27.7188 43.318 27.3695 42.9688 26.9375 42.9688H26.1531C25.7211 42.9688 25.3719 43.318 25.3719 43.75C25.3719 44.182 25.7211 44.5312 26.1531 44.5312Z" fill="#A6A9B5"/>
<path d="M26.1531 38.2812H26.9375C27.3695 38.2812 27.7188 37.932 27.7188 37.5C27.7188 37.068 27.3695 36.7188 26.9375 36.7188H26.1531C25.7211 36.7188 25.3719 37.068 25.3719 37.5C25.3719 37.932 25.7211 38.2812 26.1531 38.2812Z" fill="#A6A9B5"/>
<path d="M26.1531 32.0312H26.9375C27.3695 32.0312 27.7188 31.682 27.7188 31.25C27.7188 30.818 27.3695 30.4688 26.9375 30.4688H26.1531C25.7211 30.4688 25.3719 30.818 25.3719 31.25C25.3719 31.682 25.7211 32.0312 26.1531 32.0312Z" fill="#A6A9B5"/>
</svg>
