<svg width="50" height="50" viewBox="0 0 50 50" fill="none" xmlns="http://www.w3.org/2000/svg">
<g clip-path="url(#clip0_1274_16004)">
<path d="M12.8559 11.6004C12.7186 12.2728 12.785 12.9711 13.0458 13.6058C13.0744 13.674 13.1194 13.7309 13.1519 13.7965C12.6518 14.4582 12.2262 15.1363 11.8128 15.7961C10.902 17.5418 9.56217 19.0273 7.9195 20.1127C4.00373 22.464 3.83134 23.7379 4.93853 25.8775L5.1052 26.1983C5.77149 27.5396 7.34551 30.6793 9.77079 31.0725C9.93861 31.1 10.1083 31.1137 10.278 31.1141C11.3688 31.0614 12.391 30.5683 13.111 29.7475C15.7587 27.0999 17.7999 26.1723 20.0387 25.9149C20.0513 26.0724 20.1089 26.2231 20.2054 26.3482C20.2286 26.3775 22.4682 29.222 21.0002 31.1808C18.5192 32.7296 16.6096 35.0439 15.5588 37.7736C14.309 41.1405 14.793 45.8877 18.1325 48.4473C19.6912 49.5438 21.5723 50.0865 23.4754 49.9885C23.668 49.9885 23.882 49.966 24.0822 49.9588C24.1269 49.9725 24.173 49.9828 24.2195 49.9885C24.3156 49.9877 24.411 49.9702 24.5014 49.937C24.7005 49.9244 24.8843 49.9271 25.0903 49.9076C26.1063 49.8249 27.1147 49.6632 28.1056 49.4237C29.0789 49.2352 30.0205 48.9088 30.9016 48.4538C32.0797 48.8703 33.3234 49.0709 34.5725 49.0453C35.19 49.0453 35.7731 49.0098 36.2914 48.9622C38.7686 48.8596 41.1862 48.1727 43.3476 46.9576C45.6756 45.5586 47.2073 43.1429 47.4792 40.4407C47.4918 40.2988 47.501 40.1573 47.5052 40.0147V40.0055C47.5136 39.5478 47.1505 39.1687 46.6928 39.1573C46.4724 39.1436 46.2561 39.2214 46.0948 39.3716C45.9335 39.5223 45.8412 39.7324 45.8396 39.9533C45.8202 40.0047 45.628 40.4212 44.3175 41.1413C43.1802 41.7447 41.8178 41.7466 40.679 41.1463C40.2888 40.9346 40.0348 40.6764 39.9997 40.4548C39.9887 40.2965 40.0135 40.1379 40.0722 39.9906C40.4707 39.0688 41.0642 38.2446 41.8121 37.5745C42.1001 37.2701 42.3876 36.9688 42.6519 36.658C43.5253 35.6546 44.3263 34.5901 45.049 33.4726C46.8621 30.6957 47.7245 27.4046 47.5052 24.0953C46.7309 14.0314 35.4367 10.1866 32.5332 9.36086C32.8184 8.37381 32.7891 7.32269 32.4496 6.35318C32.339 6.07667 32.0888 5.88026 31.794 5.8383C29.207 5.46835 27.4805 6.00497 26.3359 6.7998C25.1337 5.54615 23.5056 4.78832 21.7725 4.67505C20.0227 4.64339 18.3159 5.21701 16.9402 6.29903L4.35957 0.136076C3.79968 -0.150732 3.11394 0.028523 2.76649 0.552559C2.4156 1.06058 2.49531 1.75014 2.95299 2.16471L12.8559 11.6004ZM21.8602 25.8199C24.279 25.6662 26.5933 24.7776 28.4938 23.273C28.4069 23.7661 28.2821 24.252 28.1204 24.7261C27.2573 27.0869 25.4614 28.9889 23.1539 29.9859C23.1673 28.4966 22.7149 27.04 21.8602 25.8199ZM27.7257 47.8016C26.8073 48.0224 25.8733 48.1723 24.932 48.2497C24.8202 48.2596 24.718 48.2631 24.6086 48.2707C23.5723 46.7577 20.1928 41.0288 24.8088 36.4139C25.1246 36.0871 25.12 35.5672 24.7985 35.2457C24.477 34.9246 23.9575 34.92 23.6307 35.2358C18.9033 39.9632 21.2202 45.7043 22.6791 48.289C21.4079 48.2612 20.1733 47.855 19.134 47.1227C16.4677 45.0773 16.0989 41.0761 17.1092 38.3503C18.057 35.9048 19.7873 33.8418 22.0307 32.4837C22.5647 32.1461 23.1196 31.8437 23.6921 31.5775C26.4869 30.41 28.6632 28.1232 29.691 25.2745C31.3756 20.4728 29.5152 15.0764 28.6464 12.9944C29.0377 12.8476 29.4191 12.6748 29.7875 12.4768C33.0214 13.9765 35.5984 16.6028 37.0363 19.8645C38.0214 22.0132 38.457 24.3737 38.3025 26.7322C37.9745 30.3608 35.4375 32.2079 32.5004 34.3468C30.9252 35.4078 29.5724 36.7663 28.5178 38.3461C27.4728 40.1977 27.1776 42.3793 27.6933 44.4423C27.8477 45.5655 28.3641 46.6078 29.1643 47.4107C28.6937 47.5724 28.2062 47.6898 27.7257 47.8016ZM45.8412 24.223C46.0319 27.1746 45.2584 30.1083 43.6375 32.582C42.9574 33.6339 42.2034 34.6362 41.3811 35.5813C41.137 35.8689 40.8712 36.1481 40.6039 36.4288C39.6782 37.2705 38.9555 38.3117 38.4902 39.4731C38.3449 39.8705 38.2983 40.2969 38.3544 40.7164C38.5382 41.5528 39.1046 42.2542 39.883 42.6108C41.5219 43.4739 43.4811 43.4701 45.1165 42.6009L45.1996 42.5544C44.5906 43.7939 43.6394 44.8328 42.4586 45.5487C41.5627 46.0922 40.5901 46.4972 39.5733 46.7501C39.3994 46.6605 39.1996 46.636 39.0092 46.681C37.9104 46.9347 36.7556 46.691 35.8532 46.0144C34.7975 45.0254 34.5134 42.9949 35.0324 40.1432C35.0858 39.8503 34.9787 39.5513 34.7517 39.3587C34.5248 39.1661 34.2121 39.1092 33.9317 39.2095C33.6514 39.3098 33.4462 39.552 33.3928 39.8449C32.759 43.3301 33.2037 45.8153 34.7144 47.231C34.7727 47.2852 34.8341 47.3283 34.8932 47.3782C33.3772 47.4953 31.8604 47.1601 30.535 46.4145C29.8443 45.8515 29.4099 45.0338 29.3302 44.1463C28.9004 42.4911 29.1151 40.734 29.9309 39.2309C30.8752 37.8354 32.0801 36.6355 33.4794 35.6973C36.4707 33.5195 39.5615 31.2666 39.9616 26.8867C40.1485 24.2425 39.6652 21.5941 38.5558 19.1863C37.0672 15.8552 34.5218 13.1084 31.3131 11.3712C31.4672 11.2141 31.611 11.047 31.7441 10.8712C33.606 11.3838 45.1245 14.904 45.8412 24.223ZM25.8267 10.1633C25.8534 10.0298 26.514 7.02291 31.0125 7.42795C31.13 8.08166 31.0381 8.75559 30.7501 9.35399C30.2261 10.4005 29.0587 11.187 27.2798 11.698C27.0415 11.7659 26.8462 11.9368 26.7463 12.1637C26.6467 12.3907 26.6532 12.65 26.7642 12.872C27.9091 15.3392 28.5663 18.0048 28.6986 20.7218C26.9328 22.7867 24.3923 24.0308 21.6783 24.1605C18.3792 24.1605 15.5962 24.8977 11.9245 28.5705C11.4752 29.1518 10.767 29.4733 10.0332 29.4287C8.4504 29.172 7.10218 26.471 6.59378 25.4542L6.4191 25.1121C5.79895 23.9156 5.56745 23.4671 8.77688 21.5418C10.6491 20.3263 12.1804 18.6535 13.2258 16.681C13.5592 16.1478 13.8925 15.6405 14.2423 15.1455C15.1164 15.8354 16.1263 16.3327 17.2061 16.6051C17.2496 16.6207 17.2942 16.6333 17.3392 16.6428V16.6352C17.3941 16.6482 17.4498 16.6569 17.5058 16.6611C17.8392 16.6611 18.1405 16.4624 18.2721 16.1562C18.4033 15.8495 18.3392 15.4944 18.1092 15.253C18.047 15.065 17.9963 14.8739 17.9574 14.6798C17.819 14.1523 17.8666 13.5932 18.0924 13.0966C18.9132 11.3647 21.0593 10.6156 24.7047 10.8155C24.7813 10.8155 24.8568 10.8224 24.9335 10.8288C25.3576 10.8677 25.7428 10.5806 25.8267 10.1633ZM21.6753 6.33907C22.9853 6.43099 24.215 7.00422 25.1276 7.94856C24.8481 8.31241 24.6143 8.70906 24.432 9.13012C22.5826 9.04163 18.1882 9.00921 16.5901 12.3792C16.2846 13.0325 16.1626 13.7568 16.2377 14.4738C15.4627 14.1657 14.8445 13.5577 14.5233 12.7877C14.1576 11.5314 15.3605 9.98825 16.4338 8.91501C18.1493 7.1995 19.8495 6.33221 21.4868 6.33221C21.5536 6.33488 21.6127 6.3364 21.6753 6.33907ZM15.544 7.47105C15.4478 7.56297 15.3514 7.64458 15.2556 7.74031C14.5848 8.39212 14.0012 9.12821 13.5191 9.9299L6.05639 2.823L15.544 7.47105Z" fill="#A6A9B5"/>
<path d="M9.17937 24.1606C9.17937 23.8234 8.97647 23.5198 8.66487 23.3909C8.35365 23.262 7.99552 23.3333 7.75715 23.5713C7.35783 23.9306 7.2129 24.4939 7.38986 25.0012C7.73121 25.8261 8.822 25.8261 9.18013 25.8261C9.64047 25.8261 10.0135 25.4531 10.0135 24.9928C10.0135 24.5328 9.64047 24.1598 9.18013 24.1598L9.17937 24.1606Z" fill="#A6A9B5"/>
<path d="M22.3086 14.1859C21.1347 14.3927 20.1045 15.0895 19.4756 16.1021C19.0679 16.866 18.9779 17.76 19.2258 18.5899C19.2742 18.7329 19.3604 18.8599 19.4756 18.9572C19.8498 19.2493 20.3132 19.4026 20.7872 19.3916C21.23 19.3855 21.6656 19.2756 22.0588 19.0716C22.4711 18.863 22.6362 18.3599 22.4276 17.9476C22.2194 17.5353 21.7159 17.3698 21.3036 17.5784C21.1324 17.665 20.9447 17.7157 20.7529 17.7276C20.7361 17.4343 20.8017 17.1421 20.9421 16.8843C21.3608 16.2985 21.9997 15.9076 22.7117 15.8011C23.1584 15.6898 23.4299 15.2371 23.3185 14.7908C23.2068 14.3442 22.7545 14.0727 22.3078 14.184L22.3086 14.1859Z" fill="#A6A9B5"/>
<path d="M31.7181 30.8259C31.8691 30.8259 32.0171 30.7847 32.1464 30.7069C32.3398 30.591 36.8547 27.7717 34.1743 19.7315C34.029 19.2944 33.5568 19.058 33.1193 19.2033C32.6823 19.3486 32.4458 19.8208 32.5911 20.2578C34.8226 26.9502 31.4424 29.1806 31.2814 29.2813C30.9622 29.4758 30.8115 29.8595 30.9134 30.2195C31.0148 30.5791 31.344 30.8274 31.7181 30.8259Z" fill="#A6A9B5"/>
</g>
<defs>
<clipPath id="clip0_1274_16004">
<rect width="50" height="50" fill="white"/>
</clipPath>
</defs>
</svg>
