<svg width="136" height="244" viewBox="0 0 136 244" fill="none" xmlns="http://www.w3.org/2000/svg">
<path d="M21.817 186.937C21.817 188.352 20.0785 188.451 21.6898 189.145C22.1976 189.422 22.7552 189.595 23.3303 189.654C23.9054 189.714 24.4866 189.658 25.0401 189.491C25.5937 189.324 26.1085 189.048 26.5549 188.68C27.0012 188.312 27.3701 187.859 27.6403 187.347C29.2515 184.319 30.2551 182.252 28.7569 181.559C28.0423 181.292 27.2864 181.153 26.5237 181.148C25.7754 181.283 25.0602 181.562 24.4177 181.969C23.3011 182.946 21.817 186.937 21.817 186.937Z" fill="#121324"/>
<path d="M123.766 93.2447C123.342 78.9786 122.494 70.218 122.353 69.1849V69.0433C122.211 68.4772 121.505 65.5193 120.232 61.8395C119.95 61.1319 119.667 60.2827 119.384 59.4335C116.84 52.6543 112.459 44.3183 106.24 41.2188C102.616 39.3869 98.688 38.2357 94.6499 37.8221H94.3672C94.0772 37.8444 93.7862 37.7958 93.5191 37.6806C88.4309 37.256 83.908 37.6806 80.3745 37.3975C79.6602 37.3729 78.9501 37.2781 78.2544 37.1144C73.1661 35.9822 59.8801 34.5811 50.2689 40.3696C49.5622 40.7942 48.9969 41.2188 48.2902 41.6434C47.5835 42.068 46.8768 42.903 46.1701 43.4691C45.014 44.5796 43.9283 45.7614 42.9192 47.0073C40.818 49.5156 38.8823 52.1584 37.1243 54.9188C36.1349 56.4756 35.2868 57.8909 34.4388 59.4335C31.7533 64.2455 29.6332 68.7603 27.9371 72.1711C26.5237 75.0017 20.5874 86.324 20.1634 88.5601L14.5098 102.826C14.5098 102.968 14.3684 103.109 14.3684 103.251L11.1176 111.615C7.58408 118.111 2.0718 155.121 2.0718 155.121C2.0718 155.121 -1.46171 181.261 1.93046 181.828C3.34387 182.111 8.99749 174.624 15.2165 162.608C12.107 173.492 9.84553 181.828 10.9763 182.111C11.5416 182.252 15.2165 182.111 15.6405 182.111C22.1422 181.828 27.7958 166.995 28.2198 167.703C28.5025 168.128 26.9477 174.624 27.6544 174.779C32.884 175.487 40.7991 169.118 49.1382 161.207L49.9862 160.372C50.3505 160.078 50.6822 159.746 50.9756 159.381C51.6701 158.757 52.3306 158.095 52.9544 157.4C53.8024 156.551 54.6505 155.843 55.3572 154.994C58.184 152.163 61.0108 149.333 63.6963 146.799C64.2258 146.242 64.7925 145.722 65.3924 145.242C65.8 144.902 66.1783 144.528 66.5231 144.124L67.0885 143.558C68.2192 142.568 69.3499 141.577 70.4806 140.728C70.622 140.586 70.9046 140.445 71.046 140.303C71.4049 140.056 71.7365 139.771 72.0354 139.454C72.1767 139.312 72.3181 139.312 72.4594 139.171C76.1343 136.34 79.2437 134.798 81.5052 135.222C81.7879 135.222 82.2119 135.364 82.4946 135.364H82.6359C82.9186 135.364 83.3426 135.505 83.6253 135.505C84.1907 135.505 84.756 135.647 85.3214 135.647H87.3002C87.4415 135.93 87.4415 136.071 87.5828 136.354V136.496C89.8443 142.426 95.9219 148.639 95.9219 148.639C97.0811 148.055 98.1715 147.343 99.1728 146.516C101.926 144.556 104.482 142.333 106.805 139.878C109.481 137.106 111.938 134.129 114.155 130.976C127.724 111.898 123.766 93.5278 123.766 93.2447ZM24.5449 141.138C24.6863 140.855 24.8276 140.43 24.969 140.147C24.8536 140.488 24.7118 140.819 24.5449 141.138C24.2726 142.362 23.8451 143.547 23.2729 144.662C23.6969 143.544 24.1209 142.412 24.5449 141.138Z" fill="#372D53"/>
<path opacity="0.59" d="M17.9727 130.495C18.2419 129.6 18.6068 128.736 19.061 127.919C23.974 119.061 29.9447 110.835 36.8416 103.421L54.0852 80.3939L118.254 78.271C118.254 78.271 124.614 114.432 111.752 125.74C98.8901 137.048 92.3885 141.308 92.3885 141.308L77.8304 126.023L50.8343 133.227C50.8343 133.227 45.6047 157.286 36.1349 160.358C26.6651 163.429 26.8064 173.35 20.3048 170.661C13.8031 167.972 29.0679 128.57 29.0679 128.57L21.5627 130.099L18.7359 130.679L18.5946 130.806L17.9727 130.495Z" fill="#330730"/>
<path d="M12.2483 200.198C12.3897 204.571 13.379 211.209 13.379 211.209C15.2256 214.489 18.1837 216.999 21.7181 218.285C27.9371 220.55 31.612 219.135 31.612 219.135C34.378 219.584 37.2019 219.536 39.9511 218.993C44.05 218.002 44.1913 215.327 44.1913 215.327C48.4601 216.781 52.9986 217.265 57.4773 216.743C64.6857 215.752 63.2723 212.228 66.2404 211.379C69.2086 210.53 69.9153 211.945 75.0035 213.926C80.0918 215.908 79.1024 219.432 83.6253 222.418C88.1482 225.404 91.2577 222.843 91.2577 222.843C91.2577 222.843 93.2365 231.037 95.4979 231.731L105.533 234.278C105.533 234.278 113.307 234.137 117.264 230.896C121.222 227.655 125.603 224.244 125.603 224.244C125.603 224.244 125.745 223.126 125.886 221.569C126.321 217.472 125.887 213.329 124.614 209.412C122.07 203.198 120.657 206.029 119.95 206.312C119.243 206.595 119.102 201.217 115.992 197.268C114.155 195.004 113.307 194.155 111.893 193.872H111.611C110.484 193.754 109.351 193.707 108.219 193.73C108.219 193.73 98.8901 192.315 96.346 192.173C93.8018 192.032 43.7673 182.861 31.3293 182.436C30.4323 182.342 29.526 182.39 28.6438 182.578C25.5343 184.559 20.6864 185.606 16.9126 192.329C15.3578 195.089 11.9656 195.952 12.2483 200.198Z" fill="#16212D"/>
<path opacity="0.47" d="M12.5311 199.434C12.6724 203.807 13.6618 210.445 13.6618 210.445C15.5103 213.724 18.4677 216.233 22.0009 217.521C28.2199 219.772 31.8947 218.356 31.8947 218.356C34.6607 218.806 37.4846 218.758 40.2338 218.215C44.3327 217.238 44.474 214.549 44.474 214.549C48.7414 216.01 53.2814 216.493 57.7601 215.965C64.9684 214.974 63.555 211.436 66.5232 210.587C69.4913 209.737 70.198 211.153 75.2863 213.134C80.3745 215.115 79.3852 218.64 83.9081 221.626C88.431 224.612 91.5405 222.05 91.5405 222.05C91.5405 222.05 93.5192 230.245 95.7807 230.953L105.816 233.514C105.816 233.514 113.59 233.373 117.547 230.118C121.505 226.862 125.604 223.607 125.604 223.607C125.604 223.607 125.759 222.333 125.9 220.777C122.791 216.403 117.42 215.965 115.3 218.498C112.897 221.47 108.939 221.187 104.558 216.955C100.176 212.724 100.318 210.02 104.134 206.355C107.667 202.958 111.484 194.622 112.19 192.938C112.19 192.796 112.332 192.796 112.332 192.655L111.908 192.938C109.363 194.905 93.9574 206.213 87.3144 206.355C80.106 206.496 71.9082 206.921 67.3853 203.383C62.8624 199.845 67.9507 200 62.7211 197.594C57.4915 195.188 58.4809 194.622 56.6435 196.179C54.806 197.736 52.5446 203.949 52.5446 203.949C45.3362 204.09 42.7921 203.524 42.7921 207.629C42.9369 209.321 42.6448 211.021 41.944 212.568C41.5646 213.259 40.9686 213.806 40.248 214.125C39.575 214.548 38.7668 214.7 37.9865 214.549C34.029 214.691 38.8346 213.842 30.2128 209.468C21.591 205.095 24.5592 205.93 23.2871 201.274C22.015 196.618 24.8418 192.782 26.5379 190.532C28.234 188.282 37.2798 188.975 36.4318 185.593C35.7251 182.762 35.8664 182.054 31.4849 181.205C30.5878 181.111 29.6816 181.159 28.7994 181.347C25.6899 183.328 19.5274 187.786 17.4921 191.763C16.3473 194.594 12.2625 195.188 12.5311 199.434Z" fill="#0C051A"/>
<path d="M55.9225 184.786C58.608 200.354 66.8058 209.935 84.756 208.095C102.706 206.256 114.014 194.112 113.589 191.721C113.448 190.73 111.611 188.607 109.208 186.484C106.408 183.826 103.271 181.547 99.8795 179.705C95.6393 177.723 91.8231 176.308 90.6923 175.615C89.5616 174.921 67.0885 174.624 63.979 176.181C62.8403 176.772 61.8312 177.585 61.0108 178.573C59.2078 180.553 57.5094 182.627 55.9225 184.786Z" fill="#D7A6B0"/>
<path d="M62.2829 186.909C62.3582 187.244 62.4526 187.575 62.5656 187.899C63.3779 190.992 64.9862 193.818 67.2298 196.094C71.47 200.75 74.5795 202.024 80.5158 202.024C86.4521 202.024 94.3672 199.066 101.717 193.532C102.174 193.247 102.6 192.915 102.989 192.541C105.068 190.874 107.015 189.047 108.812 187.078C108.962 186.925 109.045 186.719 109.045 186.505C109.045 186.291 108.962 186.085 108.812 185.932C106.171 183.507 103.242 181.416 100.091 179.705C96.9961 178.289 94.5227 176.874 92.6005 176.223C92.1085 175.956 91.5984 175.725 91.074 175.53L90.8761 175.445C89.7454 174.992 81.4204 174.78 74.2686 174.921L71.4418 175.063C70.9406 175.071 70.4516 175.218 70.0284 175.487C66.6645 177.299 64.2617 180.979 62.2829 186.909Z" fill="#671E67"/>
<path opacity="0.47" d="M62.2829 186.909C62.3582 187.244 62.4526 187.575 62.5656 187.899C63.3779 190.992 64.9862 193.818 67.2298 196.094C71.47 200.75 74.5795 202.024 80.5158 202.024C86.4521 202.024 94.3672 199.066 101.717 193.532C102.171 193.247 102.597 192.92 102.989 192.555C102.989 192.555 91.6817 198.627 86.4521 197.07C81.2225 195.513 81.6466 188.027 82.9186 186.045C84.1907 184.064 90.127 182.38 92.9538 177.851C92.9538 177.851 81.2225 175.317 74.2968 175.176C73.3524 175.152 72.4075 175.2 71.47 175.317C70.9689 175.326 70.4799 175.473 70.0566 175.742C66.6645 177.299 64.2617 180.978 62.2829 186.909Z" fill="#0C051A"/>
<path d="M41.2232 116.979C39.5606 115.585 37.7036 114.44 35.7109 113.583C31.3772 111.602 26.6054 110.778 21.8595 111.191C20.3968 111.35 18.967 111.732 17.6193 112.323C17.318 112.471 17.0254 112.637 16.743 112.818C15.4687 113.635 14.3984 114.733 13.6143 116.029C12.8302 117.324 12.3533 118.782 12.2201 120.291C12.2201 120.475 12.2201 120.659 12.2201 120.843C11.9984 122.887 12.2698 124.955 13.0116 126.872C13.5363 127.693 14.2484 128.377 15.0893 128.868C14.8207 128.075 15.5274 127.453 15.5274 126.518C15.4802 125.845 15.5766 125.17 15.8101 124.537C15.9018 123.937 16.0581 123.348 16.2766 122.782C16.7303 122.049 17.3501 121.433 18.0857 120.985C18.9338 120.419 18.1705 120.39 19.1599 120.249L20.0786 119.414C19.2481 119.547 18.4568 119.861 17.7606 120.334C16.4952 121.232 15.5494 122.511 15.061 123.985C14.7901 124.763 14.6515 125.581 14.6511 126.405C14.58 127.211 14.6861 128.023 14.9621 128.783C15.8738 129.36 16.8176 129.884 17.7889 130.354C19.0776 130.995 20.4039 131.558 21.7606 132.038L22.1705 132.194C21.9827 131.124 21.9352 130.035 22.0291 128.953C22.0787 128.427 22.1733 127.906 22.3118 127.396C22.3118 126.717 22.439 125.981 22.5238 125.287C22.6086 124.594 22.6793 123.872 22.7217 123.575C22.7246 123.528 22.7246 123.48 22.7217 123.433H22.9196H23.5556H24.3612C26.0955 123.541 27.7936 123.978 29.3647 124.721C30.6783 125.489 31.9097 126.39 33.0395 127.41C35.2308 125.965 37.3097 124.357 39.2585 122.598C42.4952 119.952 41.2232 116.979 41.2232 116.979Z" fill="#FDCFB2"/>
<path opacity="0.38" d="M16.7713 112.818C14.4816 114.998 12.3756 118.932 13.2661 121.31C13.7479 122.377 14.4347 123.339 15.2873 124.141C15.058 124.906 14.9623 125.706 15.0046 126.504C14.8695 127.286 14.8695 128.086 15.0046 128.868C14.1637 128.377 13.4515 127.693 12.9269 126.872C12.1851 124.955 11.9137 122.887 12.1354 120.843C12.1354 120.659 12.1354 120.475 12.1354 120.291C12.2548 118.604 12.7999 116.975 13.7195 115.557C14.6391 114.139 15.9031 112.977 17.3932 112.181C17.1733 112.381 16.9656 112.594 16.7713 112.818Z" fill="#D78A5A"/>
<path opacity="0.38" d="M17.7607 130.396C16.7895 129.927 15.8457 129.402 14.9339 128.825C14.658 128.065 14.5518 127.253 14.623 126.447C14.6233 125.623 14.7619 124.805 15.0329 124.027C15.4286 124.424 15.7961 124.749 16.0929 125.046C16.3778 125.297 16.5592 125.645 16.6017 126.023C16.584 126.121 16.584 126.222 16.6017 126.32C16.9834 127.367 18.3968 129.377 17.7607 130.396Z" fill="#D78A5A"/>
<path opacity="0.38" d="M22.2837 127.438C22.425 125.74 22.7077 123.475 22.7077 123.475C22.7077 123.475 27.2306 123.617 29.3507 124.891C30.6644 125.659 31.8958 126.56 33.0256 127.58C35.2168 126.135 37.2958 124.527 39.2446 122.768C42.4954 119.937 41.2233 116.979 41.2233 116.979C39.5607 115.584 37.7037 114.44 35.711 113.583C34.863 116.838 36.5591 114.715 29.6334 114.573C22.001 114.432 19.8809 115.989 19.3155 119.244C19.2019 120.742 19.4078 122.248 19.9195 123.661C20.4312 125.073 21.2371 126.361 22.2837 127.438Z" fill="#D78A5A"/>
<path d="M26.8065 122.202C25.9582 122.622 25.1368 123.095 24.3472 123.617L23.697 124.056C23.2367 124.425 22.832 124.859 22.4956 125.344C22.3061 125.607 22.1405 125.886 22.001 126.179C21.5125 128.112 21.4211 130.125 21.7324 132.095C20.3758 131.614 19.0494 131.052 17.7607 130.41C16.7895 129.941 15.8457 129.416 14.9339 128.839C14.658 128.079 14.5518 127.268 14.623 126.462C14.6233 125.638 14.7619 124.82 15.0329 124.042C15.5213 122.568 16.4671 121.288 17.7325 120.39C18.4287 119.918 19.2199 119.604 20.0505 119.47H20.4179C21.127 119.376 21.8478 119.424 22.5381 119.612L26.8065 122.202Z" fill="#2D2034"/>
<path opacity="0.47" d="M23.697 124.042C23.2367 124.411 22.832 124.844 22.4956 125.329C22.3061 125.592 22.1405 125.872 22.001 126.165C21.5125 128.098 21.4211 130.111 21.7324 132.08C20.3758 131.6 19.0494 131.037 17.7607 130.396C16.7895 129.927 15.8457 129.402 14.9339 128.825C14.658 128.065 14.5518 127.253 14.623 126.448C14.6233 125.624 14.7619 124.805 15.0329 124.027C15.5213 122.553 16.4671 121.274 17.7325 120.376C18.4287 119.903 19.2199 119.589 20.0505 119.456C17.8314 121.565 15.9516 123.419 16.0929 125.117C16.1284 125.595 16.3282 126.045 16.6583 126.391C16.8973 126.645 17.1627 126.873 17.4498 127.07C20.4179 129.193 19.4286 127.353 20.5593 125.655C21.1248 124.863 21.8404 124.189 22.6653 123.674C22.7293 123.621 22.8008 123.578 22.8773 123.546C23.0387 123.434 23.2088 123.334 23.3861 123.249C23.4366 123.359 23.4791 123.473 23.5133 123.589C23.5843 123.736 23.6457 123.887 23.697 124.042Z" fill="#0C051A"/>
<path d="M30.9054 146.361C32.4601 148.767 42.0713 150.04 46.4528 148.767C50.8344 147.493 53.2372 147.917 55.7813 140.147C56.2945 138.76 56.7193 137.342 57.0534 135.902C57.8593 133.399 58.52 130.852 59.0322 128.273C59.0322 128.273 59.8802 125.018 58.0428 123.744C56.2053 122.47 43.202 117.531 41.5059 116.116C40.9406 115.691 39.9512 116.116 38.8204 117.107C35.0125 120.62 32.3109 125.17 31.0467 130.198C29.3506 137.883 29.3506 143.969 30.9054 146.361Z" fill="#671E67"/>
<path opacity="0.47" d="M30.9054 146.36C32.4601 148.766 42.0713 150.04 46.4528 148.766C50.8344 147.493 53.2372 147.917 55.7813 140.147C56.2945 138.76 56.7193 137.342 57.0534 135.901C57.4774 130.665 57.9014 127.141 57.9014 127.141C51.1171 132.646 55.64 136.326 46.3115 136.326C36.983 136.326 37.407 130.806 37.9724 125.301C38.5378 119.795 44.4741 116.965 41.0819 116.965C40.3253 116.941 39.5682 116.989 38.8204 117.106C35.0125 120.62 32.3109 125.17 31.0467 130.198C29.3506 137.883 29.3506 143.968 30.9054 146.36Z" fill="#0C051A"/>
<path d="M51.965 165.722C52.0178 167.676 51.7796 169.627 51.2583 171.51C51.2583 171.51 61.4349 176.605 67.6538 177.299C68.8752 177.414 70.1021 177.461 71.3287 177.44C76.6053 177.149 81.8509 176.444 87.0175 175.332C87.2024 171.964 87.82 168.634 88.8549 165.425C89.2268 164.186 89.749 162.998 90.4097 161.886C90.8337 161.051 91.5404 160.061 92.2471 158.929C96.346 152.418 103.413 141.549 102.989 136.609C102.424 130.807 77.689 127.849 74.8622 127.141C72.0354 126.434 59.3147 129.25 59.3147 129.25C57.1946 129.675 49.4209 143.247 48.1488 149.319C47.8188 151.151 47.9155 153.035 48.4315 154.824C49.2796 159.509 51.8237 163.882 51.965 165.722Z" fill="#521852"/>
<path d="M67.3711 123.9C66.9471 125.173 65.1097 125.032 64.827 124.89C64.4804 124.733 64.1492 124.543 63.8376 124.324C63.8376 124.324 62.8482 123.05 62.2829 126.447C61.7175 129.844 62.5655 132.519 63.6963 133.226C64.827 133.934 66.2404 135.066 67.3711 134.217C68.5019 133.368 71.894 130.254 72.0354 129.405C72.1767 128.556 69.0672 125.598 69.0672 125.598L67.3711 123.9Z" fill="#16212D"/>
<path d="M67.7952 120.376C67.7715 120.894 67.8191 121.413 67.9365 121.918C68.0688 122.766 68.3563 123.581 68.7846 124.324C69.4913 125.032 70.3393 125.739 71.046 126.447C72.2022 127.536 73.702 128.187 75.2863 128.287C75.824 128.23 76.3491 128.087 76.841 127.862C78.6784 127.296 81.2226 126.447 82.9187 125.881L85.1801 125.032C85.1568 124.415 85.2042 123.798 85.3214 123.192V120.517C85.3214 120.517 68.3606 117.828 67.7952 118.536C67.7245 119.147 67.7245 119.764 67.7952 120.376Z" fill="#EBBB9D"/>
<path opacity="0.38" d="M67.7952 120.376C67.7715 120.894 67.8191 121.413 67.9366 121.919C67.9736 122.749 68.1653 123.565 68.5019 124.325C69.2086 125.032 70.0567 125.74 70.7634 126.448C72.7421 127.014 74.5796 127.438 76.5583 127.863C78.5371 128.287 80.2332 128.57 80.2332 128.57L82.7773 125.881L85.3215 123.192V121.919L67.7952 120.376Z" fill="#C97D4D"/>
<path d="M65.986 124.098C66.0128 124.489 66.1085 124.873 66.2686 125.23C67.4331 126.795 68.8694 128.138 70.5089 129.193C70.7759 129.308 71.067 129.357 71.3569 129.335C71.6191 129.33 71.8704 129.229 72.0636 129.052C73.0806 128.316 73.9049 127.345 74.4664 126.221C72.8141 125.532 71.2861 124.576 69.9435 123.391C68.5301 121.975 67.8234 121.14 67.8234 121.14C67.8234 121.14 67.258 120.857 66.9753 121.14L66.5513 121.989C66.2619 122.661 66.0715 123.372 65.986 124.098Z" fill="#7D6878"/>
<path opacity="0.47" d="M65.986 124.098C66.0128 124.489 66.1085 124.872 66.2686 125.23C67.4331 126.795 68.8694 128.138 70.5089 129.193C70.7759 129.308 71.067 129.357 71.3569 129.335C71.6191 129.33 71.8704 129.229 72.0636 129.052C72.0636 128.485 71.9223 127.778 71.9223 127.212C71.7809 125.796 68.3888 124.098 66.5513 121.989C66.2619 122.661 66.0715 123.371 65.986 124.098Z" fill="#0C051A"/>
<path d="M86.1695 125.457C86.1695 126.589 87.7384 127.155 88.431 127.297C89.089 127.524 89.7862 127.615 90.4804 127.566C90.5838 128.339 90.461 129.125 90.1271 129.83C89.7236 130.653 89.1446 131.378 88.431 131.953C85.3365 134.414 82.0249 136.588 78.5371 138.449C75.8517 139.864 70.7634 140.006 70.7634 140.006C70.7634 140.006 68.6433 138.025 68.502 137.175C68.2448 136.354 68.1021 135.502 68.0779 134.642C70.4844 132.11 73.1898 129.881 76.1343 128.004C78.5806 126.982 81.1445 126.269 83.7667 125.881C84.6148 125.74 85.4628 125.598 86.1695 125.457Z" fill="#16212D"/>
<path d="M65.5338 133.651C65.7042 134.535 66.0929 135.362 66.6645 136.057C66.8255 136.232 67.0171 136.376 67.2298 136.482C67.696 136.771 68.2362 136.919 68.7846 136.906C71.0365 134.041 73.8201 131.638 76.9823 129.83C79.848 128.547 82.9032 127.739 86.0281 127.438C86.2484 127.26 86.3986 127.009 86.4522 126.731C86.5545 126.509 86.6029 126.267 86.5935 126.023C86.5692 125.214 86.4746 124.409 86.3108 123.617C86.3087 123.507 86.2823 123.4 86.2334 123.302C86.1844 123.204 86.1143 123.118 86.0281 123.051C85.8868 122.909 85.6041 122.768 85.4628 122.626C81.5781 122.673 77.7747 123.747 74.4382 125.74C71.1218 127.956 68.1256 130.618 65.5338 133.651Z" fill="#7D6878"/>
<path opacity="0.47" d="M65.5338 133.651C65.7042 134.535 66.0929 135.362 66.6645 136.057C66.8255 136.232 67.0171 136.376 67.2298 136.482C67.521 136.376 67.7693 136.177 67.9365 135.916L68.3606 135.067C69.3499 132.094 71.6114 128.995 78.6784 126.575C84.0494 124.735 85.8868 124.452 86.3108 123.603C86.1695 123.037 85.8868 122.612 85.3214 122.612C81.4367 122.659 77.6333 123.733 74.2969 125.726C71.0822 128.023 68.1419 130.682 65.5338 133.651Z" fill="#0C051A"/>
<path d="M70.0566 139.723C70.7633 140.997 71.47 142.129 72.1767 143.261C72.318 143.12 79.1024 142.695 83.908 139.44C86.4655 137.712 88.8764 135.776 91.1163 133.651C92.2072 132.652 93.1581 131.509 93.9431 130.255C94.9325 128.57 93.8018 128.429 93.3778 128.146C92.2495 127.708 91.054 127.468 89.8443 127.438C89.5616 127.58 89.9856 128.146 89.7029 128.854C89.4987 129.28 89.2102 129.66 88.8549 129.972C87.1637 132.164 85.0487 133.994 82.6359 135.35C78.3957 138.025 70.0566 139.723 70.0566 139.723Z" fill="#D7A6B0"/>
<path opacity="0.32" d="M70.0566 139.723C70.7633 140.997 71.47 142.129 72.1767 143.261C72.318 143.12 79.1024 142.695 83.908 139.44C86.4655 137.712 88.8764 135.776 91.1163 133.651V133.51C91.1163 133.51 90.8336 130.113 88.9962 130.113C87.3051 132.306 85.19 134.135 82.7772 135.491C78.3957 138.024 70.0566 139.723 70.0566 139.723Z" fill="#752C6A"/>
<path d="M58.3253 129.264C58.608 132.943 63.5549 138.307 65.9577 141.28C68.3605 144.252 67.7951 147.634 67.9365 148.625C67.9365 148.766 68.0778 148.766 68.0778 148.908C68.8996 149.473 69.8062 149.903 70.7633 150.182C71.8425 150.619 72.9915 150.859 74.1555 150.889C74.7208 150.748 75.2862 148.908 75.5689 147.917L75.7102 147.493C74.9147 144.406 73.5744 141.487 71.7527 138.874C71.7527 138.732 71.6113 138.732 71.6113 138.591L71.47 138.449C70.3478 136.867 69.0693 135.401 67.6538 134.076C64.403 130.821 63.5549 128.287 63.4136 126.447C63.2722 124.607 63.9789 124.466 63.9789 124.466V124.183C63.9789 123.9 63.8376 123.617 63.1309 123.334C61.9934 122.954 60.7807 122.857 59.5974 123.051C59.032 123.192 58.0426 125.457 58.3253 129.264Z" fill="#D7A6B0"/>
<path opacity="0.47" d="M67.9366 175.331C61.7176 174.624 51.6824 169.529 51.6824 169.529C52.1507 167.589 52.3411 165.592 52.2478 163.599C52.1064 161.617 49.5623 157.386 48.5729 152.857C50.693 153.14 53.6612 155.121 59.4562 155.97C67.2299 157.103 80.5159 158.376 90.8338 152.857C91.5577 154.138 92.082 155.522 92.3885 156.961C92.5298 157.804 92.5298 158.665 92.3885 159.509C92.2182 160.388 91.8293 161.211 91.2578 161.9C90.6768 162.572 89.9522 163.104 89.1377 163.457C86.9875 164.545 84.7684 165.491 82.4947 166.288C74.7209 169.246 74.1556 167.42 71.7528 175.19C71.7528 175.331 71.6115 175.473 71.6115 175.615C70.3798 175.656 69.1474 175.561 67.9366 175.331Z" fill="#0C051A"/>
<path d="M23.697 180.695C24.3364 180.008 25.0471 179.391 25.8171 178.855C32.6014 173.491 44.8981 175.756 47.7249 175.331C48.5281 175.173 49.266 174.778 49.8449 174.199C50.4237 173.619 50.8174 172.88 50.9757 172.076L68.0779 176.747L71.3288 177.582C72.0074 175.244 72.1998 172.792 71.8941 170.378C71.509 164.86 70.3185 159.429 68.3606 154.258V153.833C68.5019 153.125 68.926 151.3 69.2086 149.743C69.4913 148.469 69.774 147.337 69.774 147.337L71.7528 143.388L71.8941 143.53L72.0355 143.813C73.7376 146.672 75.0227 149.76 75.8517 152.984C76.5859 155.29 77.1063 157.659 77.4064 160.06C78.5617 166.367 78.5137 172.835 77.2651 179.124C75.96 183.993 73.2545 188.37 69.4851 191.712C65.7157 195.053 61.0486 197.212 56.064 197.919C45.1808 199.745 34.0148 187.46 30.34 186.186C29.6333 185.903 28.9266 185.762 28.3612 185.479C26.7768 184.867 25.031 184.817 23.4143 185.337C22.322 185.847 21.3924 186.651 20.7288 187.658C20.7288 187.658 19.3154 185.394 23.697 180.695Z" fill="#D7A6B0"/>
<path d="M69.0673 163.74C69.307 166.333 69.9757 168.868 71.0461 171.241C71.0461 171.241 73.1662 171.1 76.2757 170.675C85.1802 169.26 102.706 165.17 105.957 152.277C106.47 150.419 106.847 148.527 107.088 146.615C108.643 134.614 102.848 134.048 102.848 134.048C97.1941 132.491 86.3109 135.463 80.7986 137.147C79.285 137.565 77.8171 138.134 76.417 138.845L75.8517 139.128C74.5828 139.704 73.3549 140.366 72.1768 141.11C70.3243 146.343 69.2295 151.814 68.926 157.357C68.7592 159.484 68.8065 161.623 69.0673 163.74Z" fill="#671E67"/>
<path d="M69.0672 163.741C69.3068 166.333 69.9756 168.868 71.046 171.242C71.046 171.242 71.7527 168.411 72.4594 164.038C72.8834 161.349 73.4488 157.966 73.7315 154.428C73.9926 151.46 73.8977 148.471 73.4488 145.526C73.2396 144.014 72.811 142.541 72.1767 141.153C71.6113 142.709 71.1873 144.408 70.7633 146.092C69.9221 149.862 69.3552 153.689 69.0672 157.542C68.9265 159.606 68.9265 161.677 69.0672 163.741Z" fill="#A1606D"/>
<path d="M23.1316 180.979C26.3824 180.554 30.1986 179.28 34.2975 180.979C36.1161 181.795 37.8255 182.836 39.3858 184.078C42.9193 186.626 46.5941 189.881 51.8237 191.013C55.7813 191.99 59.3148 190.588 62.5656 187.899C63.9306 186.769 65.1634 185.487 66.2405 184.078C67.7952 182.111 69.9153 179.592 71.1874 177.61C69.8742 177.221 68.6662 176.538 67.6539 175.615H67.5125L51.3997 171.241C50.9757 172.091 50.1276 172.501 49.4209 173.067C48.6936 173.585 47.8799 173.968 47.0181 174.199C44.3327 174.624 32.1774 172.246 25.2517 177.61C24.1845 178.46 23.437 179.648 23.1316 180.979Z" fill="#671E67"/>
<path d="M131.087 242.996H111.752C111.611 242.826 111.484 242.642 111.356 242.459C110.961 241.935 110.621 241.411 110.197 240.873C109.208 239.458 108.219 238.198 107.512 237.066C107.088 236.5 106.805 236.076 106.522 235.651C106.179 235.109 105.801 234.589 105.392 234.094V233.953C105.92 233.073 106.516 232.236 107.173 231.448C107.498 231.051 107.837 230.683 108.19 230.315C108.544 229.947 108.911 229.608 109.293 229.282C110.803 227.942 112.547 226.891 114.438 226.183C116.234 225.386 118.14 224.861 120.091 224.626H120.275C120.479 224.631 120.681 224.593 120.869 224.513C121.236 224.513 121.603 224.484 121.971 224.428C122.55 224.428 123.144 224.428 123.724 224.428L124.685 224.513H125.533C125.638 224.523 125.738 224.567 125.815 224.64H125.971C126.117 224.634 126.262 224.663 126.395 224.725C126.436 224.712 126.481 224.712 126.522 224.725L126.607 224.937C126.684 225.098 126.75 225.263 126.805 225.433C126.946 225.999 127.37 226.706 127.653 227.697C128.667 230.41 129.47 233.197 130.056 236.033C130.197 236.458 130.197 236.882 130.338 237.307C130.455 237.672 130.503 238.056 130.48 238.439V238.722C130.621 239.43 130.621 240.137 130.762 240.831C130.904 241.524 130.974 242.317 131.087 242.996Z" fill="#2F1F2C"/>
<path opacity="0.47" d="M119.102 229.721C118.975 230.035 118.927 230.375 118.96 230.712C119.002 231.582 119.193 232.439 119.526 233.245C119.871 234.405 120.296 235.54 120.798 236.642C121.589 238.51 122.522 240.732 123.455 242.996H111.752C111.611 242.826 111.484 242.642 111.356 242.459C110.989 241.949 110.649 241.42 110.339 240.873C109.349 239.458 108.36 238.198 107.653 237.066C107.229 236.5 106.946 236.076 106.664 235.651C105.957 234.802 105.533 234.094 105.392 233.953C105.92 233.073 106.516 232.236 107.173 231.448C107.498 231.051 107.837 230.683 108.19 230.315C108.544 229.947 108.911 229.608 109.293 229.282C110.848 227.93 112.64 226.879 114.579 226.183C116.376 225.386 118.281 224.861 120.232 224.626C120.43 224.626 120.628 224.541 120.826 224.513H121.038L121.999 224.428C122.579 224.428 123.172 224.428 123.752 224.428C124.119 224.428 124.487 224.456 124.854 224.513H125.561C125.713 224.503 125.864 224.548 125.985 224.64C126.084 224.739 126.268 224.64 126.409 224.725C126.45 224.712 126.495 224.712 126.536 224.725L126.621 224.937C126.701 225.145 126.767 225.358 126.819 225.574C126.96 226.14 127.384 226.848 127.667 227.839C125.569 227.407 123.405 227.407 121.307 227.839C120.811 227.943 120.35 228.169 119.964 228.498C119.579 228.827 119.283 229.247 119.102 229.721Z" fill="#0C051A"/>
<path d="M33.0254 219.121V219.262C33.0254 219.404 32.8841 219.545 32.7427 219.828C32.5877 220.267 32.3987 220.693 32.1774 221.102C31.3293 222.517 30.34 224.768 29.2092 227.174C29.0679 227.598 28.7852 228.164 28.6439 228.589C27.9835 229.911 27.4167 231.278 26.9478 232.679C26.8064 233.245 26.6651 233.67 26.5238 234.094C26.3636 234.452 26.2679 234.836 26.2411 235.227C25.9869 237.818 26.082 240.431 26.5238 242.997H4.47463V242.855H3.62659C4.15502 242.83 4.67779 242.735 5.18133 242.572L5.69016 242.473C6.36859 242.317 7.10356 242.119 7.72546 242.006C8.00814 242.006 8.14948 241.864 8.43216 241.864L10.1282 241.44C10.2696 241.44 10.5523 241.298 10.6936 241.298C10.835 241.298 11.1176 241.157 11.4003 241.015C11.683 240.874 11.5417 240.874 11.683 240.874C12.2236 240.727 12.7129 240.433 13.0964 240.025C13.8031 239.048 13.9444 238.765 13.6618 236.784C13.6618 235.793 13.3791 234.378 13.2377 232.255V231.972C13.0964 229.141 12.9551 224.768 12.8137 220.649V210.742H12.9551C13.3003 210.714 13.6366 210.618 13.9444 210.459C14.0003 210.406 14.0673 210.365 14.1406 210.341C14.2139 210.316 14.2917 210.308 14.3685 210.318C14.5098 210.318 14.6511 210.176 14.7925 210.176C14.9338 210.176 15.2165 210.035 15.3579 210.035C15.4992 210.035 15.7819 209.893 16.0646 209.893H16.2059C18.3892 209.652 20.5985 209.845 22.7076 210.459C28.0785 212.2 33.0254 219.121 33.0254 219.121Z" fill="#2F1F2C"/>
<path opacity="0.47" d="M33.0254 219.262C33.0254 219.404 32.8841 219.545 32.7427 219.828C32.6014 220.111 32.3187 220.536 32.036 221.102C31.3638 220.538 30.6556 220.018 29.9159 219.545C26.0997 216.998 22.5662 216.573 21.2941 218.272L21.1528 218.413C20.994 218.721 20.8979 219.058 20.8701 219.404C20.7897 221.146 20.8369 222.891 21.0114 224.626C21.2941 227.598 21.5768 231.137 21.5768 234.533V237.505C21.5892 239.381 21.2735 241.244 20.644 243.011H5.0965C5.31252 242.984 5.52549 242.937 5.73252 242.869H5.87387C6.67951 242.728 7.61236 242.459 8.418 242.331C8.65058 242.27 8.88656 242.223 9.1247 242.19L10.8208 241.765C11.1035 241.765 11.2448 241.624 11.3861 241.624C11.5275 241.624 11.8102 241.482 12.0928 241.341C12.2 241.326 12.2993 241.276 12.3755 241.199C12.8801 241.061 13.3265 240.763 13.6476 240.35C14.3543 239.359 14.3543 239.076 14.0716 236.968C13.9303 235.977 13.7889 234.562 13.6476 232.439V232.297C13.3649 229.339 13.2236 224.952 13.2236 220.975V211.068H13.5063C13.8141 210.909 14.1504 210.812 14.4956 210.785C14.637 210.785 14.7783 210.643 14.9197 210.643C15.061 210.643 15.2023 210.502 15.3437 210.502C15.485 210.502 15.7677 210.36 15.909 210.36C16.1533 210.382 16.3987 210.333 16.6157 210.219H16.7712C18.9066 209.913 21.0835 210.107 23.1315 210.785C28.2198 212.285 33.0254 219.262 33.0254 219.262Z" fill="#0C051A"/>
<path d="M21.4356 135.208C21.4356 135.208 23.8384 135.491 24.5451 135.491C25.2518 135.491 26.2412 136.624 27.3719 137.034C27.5846 137.14 27.7762 137.284 27.9372 137.459C28.1146 137.652 28.2151 137.904 28.2199 138.166V138.874C28.2178 138.983 28.1914 139.091 28.1425 139.189C28.0936 139.287 28.0235 139.373 27.9372 139.44C27.476 139.874 26.8734 140.125 26.2412 140.148C25.6051 140.142 24.9779 139.997 24.4037 139.723C23.2831 139.148 22.2385 138.435 21.2942 137.6C20.7289 137.176 21.4356 135.208 21.4356 135.208Z" fill="white" stroke="black" stroke-miterlimit="10"/>
<path d="M34.8629 143.785C34.2963 142.578 33.8695 141.31 33.5908 140.006C33.2798 138.838 32.7524 137.738 32.036 136.765C31.7534 136.624 28.6439 136.057 27.3718 135.491C27.004 135.327 26.6264 135.185 26.2411 135.067C25.8775 134.925 25.4739 134.925 25.1104 135.067C24.1064 135.404 23.0591 135.595 22.0009 135.633C21.0115 135.633 22.0009 138.874 23.5556 140.148C25.2639 141.588 27.1674 142.78 29.2092 143.686C31.0467 143.969 32.8841 144.662 34.7215 144.804L34.8629 143.785Z" fill="#FDCFB2"/>
<path d="M35.1455 123.9C33.7321 131.67 25.9584 153.847 25.9584 153.847C24.8973 154.127 23.8048 154.27 22.7075 154.272C21.4378 154.074 20.2296 153.59 19.174 152.856C19.174 152.856 24.969 137.175 26.5237 131.245C27.4797 127.763 28.2347 124.228 28.7852 120.659C28.7852 120.659 32.036 121.635 33.3081 122.201C33.7155 122.341 34.0893 122.564 34.4057 122.856C34.7221 123.149 34.974 123.504 35.1455 123.9Z" fill="#1A101A"/>
<path opacity="0.59" d="M118.395 74.8745C116.134 74.5914 111.611 69.0859 110.197 66.2554C109.241 64.4144 107.767 62.8941 105.957 61.8821C105.957 61.8821 108.219 67.1045 108.077 69.369C107.936 71.6335 108.219 72.9072 106.523 72.9072C104.827 72.9072 101.576 70.6428 100.021 67.3876C98.4662 64.1324 95.6394 56.6031 95.6394 56.6031C95.6394 56.6031 96.7701 70.1616 96.4874 72.0014C96.2047 73.8413 93.2366 73.6998 91.2578 72.8506C89.279 72.0014 87.7243 69.5954 86.4522 65.6468C85.1802 61.6981 84.1908 57.4523 84.1908 57.4523C84.0576 60.5234 83.3379 63.5404 82.0707 66.3403C79.9506 70.5861 77.9718 70.7277 76.5584 69.3124C75.145 67.8971 77.6891 56.1785 77.6891 56.1785L71.0461 65.7883C66.0992 69.3124 70.1981 69.1709 67.0886 70.5861C63.9791 72.0014 61.2936 72.0014 62.4243 65.3637C63.5551 58.726 70.7634 48.6917 70.7634 48.6917C70.7634 48.6917 60.8696 62.5332 54.9333 69.1709C48.997 75.8086 50.4104 78.9222 56.064 81.7528C61.7176 84.5833 97.0528 86.126 102 85.9986C106.947 85.8712 118.395 74.8745 118.395 74.8745Z" fill="#330730"/>
<path opacity="0.47" d="M25.2517 177.723C32.036 172.36 44.3327 174.624 47.0181 174.199C47.9009 174.029 48.7269 173.64 49.4209 173.067C50.1763 172.572 50.8448 171.955 51.3997 171.241L67.5125 175.615L67.6539 175.756C68.6495 176.673 69.8679 177.312 71.1874 177.61C69.728 179.758 68.1569 181.827 66.4807 183.809C65.4148 183.917 64.3436 183.964 63.2723 183.951C62.8483 183.951 62.2829 183.809 61.8589 183.809C53.5198 182.677 47.8662 179.705 43.626 180.129C39.1031 180.554 45.4634 185.394 47.1595 188.225C48.2902 190.065 45.0394 188.225 39.3858 183.979C37.8759 182.765 36.2125 181.756 34.4388 180.979C30.34 179.28 26.3824 180.413 23.1316 180.979C23.4032 179.665 24.1604 178.502 25.2517 177.723Z" fill="#0C051A"/>
<path d="M29.6332 128.57C29.7745 128.712 29.7745 128.712 29.9159 128.712C30.3399 128.853 30.6226 128.853 31.0466 128.995C32.0787 129.113 33.1176 129.16 34.1561 129.136H35.5695C35.6462 129.146 35.7241 129.138 35.7974 129.113C35.8707 129.089 35.9377 129.048 35.9935 128.995C36.2847 128.889 36.533 128.69 36.7002 128.429C36.857 128.171 36.9536 127.88 36.9829 127.58C36.8442 126.994 36.5513 126.457 36.1349 126.023H35.9935C35.4362 125.906 34.8665 125.858 34.2974 125.881C33.0757 125.771 31.8492 125.724 30.6226 125.74H30.0572V126.023C29.6448 126.804 29.4961 127.698 29.6332 128.57Z" fill="#FDCFB2"/>
<path d="M29.4918 125.952C29.6332 126.094 29.6332 126.094 29.7745 126.094C30.1985 126.235 30.4812 126.235 30.9053 126.377C31.9373 126.495 32.9762 126.542 34.0147 126.518H35.4281C35.5049 126.528 35.5827 126.52 35.656 126.495C35.7293 126.471 35.7963 126.43 35.8522 126.377C36.1433 126.271 36.3916 126.072 36.5589 125.811C36.7157 125.553 36.8123 125.262 36.8415 124.962C36.7028 124.376 36.41 123.838 35.9935 123.405H35.8522C35.2948 123.287 34.7251 123.24 34.1561 123.263C32.9344 123.153 31.7078 123.106 30.4812 123.122H29.9159V123.405C29.5035 124.186 29.3547 125.079 29.4918 125.952Z" fill="#FDCFB2"/>
<path opacity="0.32" d="M63.4136 129.349C63.2804 129.011 63.0228 128.738 62.694 128.585C62.3652 128.432 61.9903 128.412 61.6469 128.528C61.0977 128.602 60.5786 128.822 60.1435 129.166C59.7084 129.509 59.3734 129.964 59.1734 130.481C58.6363 132.505 71.8234 143.346 68.7704 146.247C65.7175 149.149 71.9789 149.687 71.9789 149.687L75.1873 145.059C75.1873 145.059 69.6185 136.015 67.4984 134.656C65.6332 133.34 64.2093 131.49 63.4136 129.349Z" fill="#752C6A"/>
<path d="M29.4918 131.614C29.6332 131.755 29.6332 131.755 29.7745 131.755C30.1985 131.897 30.4812 131.897 30.9053 132.038C31.9373 132.156 32.9762 132.203 34.0147 132.18H35.4281C35.5049 132.189 35.5827 132.181 35.656 132.157C35.7293 132.132 35.7963 132.092 35.8522 132.038C36.1433 131.932 36.3916 131.733 36.5589 131.472C36.7157 131.214 36.8123 130.924 36.8415 130.623C36.7028 130.038 36.41 129.5 35.9935 129.066H35.8522C35.2948 128.949 34.7251 128.902 34.1561 128.925C32.9344 128.815 31.7078 128.767 30.4812 128.783H29.9159V129.066C29.5035 129.847 29.3547 130.741 29.4918 131.614Z" fill="#FDCFB2"/>
<path d="M69.3499 165.014C69.6124 167.178 70.2334 169.282 71.1874 171.241C71.1874 171.241 73.3075 171.1 76.417 170.675C78.8109 165.412 79.8322 159.627 79.3851 153.862C79.2438 152.177 79.1024 150.479 78.8198 148.781C78.3771 145.405 77.4239 142.117 75.993 139.029C73.1661 140.317 70.5372 141.025 70.0284 144.153C69.468 148.5 69.1471 152.875 69.0673 157.258C68.8069 159.844 68.902 162.454 69.3499 165.014Z" fill="#D7A6B0"/>
<path d="M27.0892 134.444C27.7959 134.727 33.1669 135.718 34.0149 135.293C34.863 134.868 35.1456 133.029 35.1456 132.321V132.038C34.6215 131.765 34.0404 131.619 33.4496 131.613C32.6015 131.472 31.4708 131.33 30.6228 131.189H29.492C28.5799 132.187 27.7746 133.278 27.0892 134.444Z" fill="#FDCFB2"/>
<path d="M29.7746 123.334C30.6227 124.749 30.9054 129.405 29.7746 132.377C28.6439 135.35 26.6651 134.925 24.8277 134.444C22.9903 133.963 20.8702 133.029 20.8702 130.623C20.8702 128.217 20.8702 124.409 22.1422 123.277C23.4143 122.145 28.9266 121.919 29.7746 123.334Z" fill="#671E67"/>
<path d="M39.8098 121.352C39.5552 121.935 39.1862 122.461 38.725 122.899C38.2637 123.336 37.7194 123.677 37.1243 123.9C36.135 124.324 34.8629 123.192 34.1562 123.9C33.4495 124.607 31.0467 125.032 28.2199 123.758C25.3931 122.484 24.545 121.777 24.6864 121.225C24.8277 120.673 23.273 120.517 22.7076 119.81C22.1422 119.102 23.697 116.979 24.545 116.837C25.3931 116.696 26.8065 117.12 27.6545 116.837C28.3263 116.557 29.0469 116.413 29.7746 116.413C30.5024 116.413 31.2229 116.557 31.8947 116.837C34.5802 117.404 37.1243 117.828 37.6897 118.536C38.2551 119.243 37.6897 119.951 38.3964 120.093C39.1031 120.234 40.0925 120.517 39.8098 121.352Z" fill="#2F1B2F"/>
<path d="M15.7818 150.182C15.9231 150.748 18.3259 151.88 19.598 152.305C19.8807 152.305 20.022 152.446 20.3047 152.446C23.1315 152.588 32.7427 151.455 33.1667 150.04C33.5907 148.625 31.4706 143.261 31.3293 142.964C31.7533 143.105 30.1985 140.416 29.2092 139.992C27.6544 139.284 26.0997 138.576 24.5449 137.727L22.4248 136.312C22.1767 135.91 21.8929 135.531 21.5768 135.18C20.6873 135.037 19.7808 135.037 18.8913 135.18H18.7499L18.4673 135.321L18.1846 135.604C17.9124 136.038 17.7209 136.517 17.6192 137.02C17.5069 137.643 17.6064 138.285 17.9019 138.845C17.4951 139.14 17.1166 139.471 16.7712 139.836C16.3472 140.261 16.6298 142.1 16.6298 142.1C16.528 142.769 16.3864 143.43 16.2058 144.082C16.0417 144.689 16.0917 145.333 16.3472 145.908C16.088 146.283 15.9409 146.725 15.9231 147.181C15.8107 148.177 15.7635 149.18 15.7818 150.182Z" fill="#FDCFB2"/>
<path opacity="0.32" d="M69.3499 165.014C69.6123 167.177 70.2333 169.282 71.1873 171.241C71.1873 171.241 73.3074 171.1 76.4169 170.675C78.8109 165.412 79.8321 159.627 79.385 153.861C79.2437 152.177 79.1024 150.479 78.8197 148.78C77.5476 151.894 74.7208 149.63 73.8728 147.931C73.0247 146.233 70.9046 156.819 69.3499 165.014Z" fill="#752C6A"/>
<path d="M53.5199 97.7592C53.6162 101.692 53.9941 105.613 54.6506 109.492L55.0746 111.19C55.0746 111.332 55.2159 111.473 55.2159 111.756C56.7707 116.554 60.1629 118.96 67.7952 120.659L68.7846 120.8C75.3915 121.659 82.0523 122.033 88.7136 121.918C91.2169 121.926 93.7183 121.784 96.2047 121.494H96.6287C97.0576 121.517 97.4874 121.469 97.9008 121.352H98.1835C100.474 121.15 102.716 120.581 104.826 119.668C106.833 118.658 108.689 117.372 110.339 115.847C115.012 111.27 118.001 105.244 118.819 98.7499C118.961 97.4903 119.102 96.2165 119.243 94.8012C119.526 87.8805 118.395 80.5351 118.678 76.5723C118.703 75.9968 118.798 75.4265 118.961 74.874C118.961 74.874 111.045 75.5816 109.915 74.3079C108.784 73.0341 109.915 66.3964 106.664 61.8816C108.077 67.104 108.643 74.1663 106.523 75.0155C104.402 75.8647 97.9008 75.7231 97.1941 74.3079C96.92 73.7886 96.7746 73.211 96.7701 72.6237C96.5082 73.3303 96.0734 73.9598 95.5054 74.4544C94.9374 74.9489 94.2544 75.2927 93.5192 75.4542C90.374 76.2097 87.12 76.4013 83.9081 76.0204H83.484C82.6822 75.8873 81.9141 75.5988 81.2226 75.1712C79.9505 73.9116 82.7773 69.6657 83.6254 62.4336C81.788 69.51 78.5371 73.6002 76.841 74.1522C74.6759 74.7471 72.3695 74.5463 70.3394 73.5861C68.926 72.5954 70.4807 71.4631 72.1768 68.9156C73.8729 66.3681 75.993 59.8719 76.1343 59.5889C72.2349 62.9448 68.6835 66.6859 65.5338 70.7555C62.4243 75.2703 60.4455 75.4118 57.336 75.2702C53.9439 79.5161 54.0852 85.0216 53.8025 90.9516C53.5722 93.2131 53.4778 95.4864 53.5199 97.7592Z" fill="#FDCFB2"/>
<path opacity="0.38" d="M53.5198 97.7598C53.6161 101.693 53.994 105.614 54.6505 109.492L55.0745 111.191C55.0745 111.332 55.2159 111.474 55.2159 111.757C56.7706 116.555 60.1628 118.961 67.7952 120.659L68.7846 120.801C75.3914 121.66 82.0522 122.033 88.7136 121.919C90.975 121.777 94.0845 121.636 96.2046 121.494H96.6286C97.0575 121.517 97.4873 121.469 97.9007 121.353H98.1834C100.586 120.942 61.1522 122.343 60.4455 101.156C60.0214 86.7488 58.3254 78.9789 57.1946 75.4407C53.8025 79.6865 53.9438 85.192 53.6611 91.1221C53.5198 93.4007 53.5198 95.651 53.5198 97.7598Z" fill="#D78A5A"/>
<path d="M89.1376 77.5636C90.551 79.8281 88.0069 80.9603 85.6041 78.6959C83.3689 76.4844 80.8498 74.5807 78.113 73.0347C76.7727 72.4762 75.297 72.3284 73.8728 72.6101C72.4481 72.8803 71.0983 73.4547 69.9153 74.2943C70.9332 73.0854 72.2486 72.1633 73.7315 71.6194C75.2196 71.0596 76.8312 70.9129 78.3957 71.1948C82.5803 72.0721 86.3573 74.3115 89.1376 77.5636Z" fill="#2E2744"/>
<path d="M104.685 76.7142C104.826 78.1295 107.371 78.4125 109.491 76.9972C110.317 76.3996 111.299 76.0554 112.317 76.0065C113.323 76.0046 114.306 76.3 115.144 76.8557C116.412 77.6711 117.399 78.8568 117.971 80.2524C117.955 79.2672 117.713 78.2988 117.264 77.4218C116.8 76.5539 116.118 75.8222 115.286 75.2989C114.173 74.6032 112.916 74.1723 111.611 74.0393C110.312 73.8799 108.995 74.0705 107.795 74.5913C106.24 75.0017 104.544 75.865 104.685 76.7142Z" fill="#2E2744"/>
<path opacity="0.47" d="M69.0673 163.769C69.3084 166.352 69.9771 168.878 71.046 171.241C71.046 171.241 73.1661 171.1 76.2756 170.675C85.1801 169.26 102.706 165.17 105.957 152.276C106.469 150.419 106.847 148.527 107.088 146.615C98.3248 152.56 88.2896 151.003 85.6041 149.021C82.636 146.615 77.9717 142.101 77.689 142.101C77.8304 142.667 81.6466 157.074 77.1237 162.863C72.6008 168.651 71.7527 160.669 69.0673 163.769Z" fill="#0C051A"/>
<path d="M110.197 240.873C111.886 238.608 114.354 237.049 117.123 236.5C121.646 235.509 130.409 238.34 130.409 238.34H130.833C130.974 238.34 130.974 238.198 131.116 238.198C131.257 238.198 131.257 238.057 131.257 237.915C131.272 237.808 131.322 237.709 131.398 237.632C131.54 236.783 130.268 236.076 130.126 236.076C129.985 236.076 124.897 232.113 114.72 233.245C104.544 234.377 107.653 241.015 108.36 241.439C108.515 241.51 108.684 241.546 108.855 241.546C109.025 241.546 109.194 241.51 109.349 241.439C109.663 241.301 109.95 241.11 110.197 240.873Z" fill="#48394C"/>
<path d="M130.551 236.925C130.551 236.925 129.42 234.519 130.551 233.67C131.681 232.82 133.801 234.66 134.932 234.519C136.063 234.377 136.204 235.368 135.78 236.076C135.497 236.5 135.215 236.783 134.932 237.208C134.611 237.524 134.225 237.765 133.801 237.916C132.812 237.916 130.692 238.199 130.551 236.925Z" fill="#48394C"/>
<path d="M32.4742 149.517C32.3329 150.153 32.2198 150.79 32.1067 151.427C32.1006 151.55 32.1006 151.673 32.1067 151.795C31.9371 152.899 32.0439 154.027 32.4177 155.079L32.7851 148.342C32.6438 148.724 32.559 149.12 32.4742 149.517ZM73.5902 145.511C72.8835 145.653 71.8941 145.794 70.7633 145.936C63.0761 147.364 55.2313 147.745 47.4422 147.068H47.0464C45.9015 146.955 44.7708 146.799 43.626 146.615C40.6861 146.162 37.7321 145.554 34.7922 144.86C33.8355 144.674 32.8914 144.429 31.9654 144.124C31.6544 144.039 31.3576 143.94 31.0608 143.827H30.8346C30.0525 144.3 29.4165 144.981 28.9972 145.794C28.6092 146.586 28.4153 147.46 28.4319 148.342C28.2254 150.141 28.3694 151.962 28.8559 153.706L29.3082 153.932C29.0953 153.004 29.057 152.044 29.1951 151.102V150.762C29.0724 151.341 29.0667 151.938 29.1784 152.519C29.2901 153.1 29.5168 153.653 29.8453 154.145C30.7498 154.612 31.6686 155.05 32.5873 155.475C34.6508 156.452 36.8275 157.329 38.9052 158.107L39.3433 158.263C39.7391 158.419 40.1349 158.546 40.5306 158.674L40.7568 158.758L41.4352 158.999L41.8451 159.141H42.0147H42.0854C43.0041 159.452 43.9369 159.735 44.9122 160.004C47.3008 160.697 49.7319 161.292 52.1629 161.745C57.8166 162.688 63.4702 163.396 69.1238 163.868C70.298 163.983 71.4777 164.03 72.6573 164.009C73.0813 161.32 73.6467 157.938 73.9294 154.399C74.1707 151.434 74.0568 148.45 73.5902 145.511Z" fill="#FDCFB2"/>
<path opacity="0.38" d="M28.7851 153.564C36.124 157.406 43.9789 160.166 52.1063 161.759C57.76 162.702 63.4136 163.41 69.0672 163.882C70.2414 163.997 71.4211 164.044 72.6007 164.023C73.0247 161.334 73.5901 157.951 73.8728 154.413C74.1339 151.445 74.039 148.457 73.5901 145.511C72.0354 150.889 71.47 155.262 63.2722 157.102C55.0745 158.942 46.3114 156.678 44.7566 155.687C43.2019 154.696 38.1136 151.441 35.5695 147.195C35.1447 146.507 34.8568 145.743 34.7214 144.945C33.3813 144.645 32.0598 144.267 30.7639 143.813C29.9868 144.286 29.352 144.961 28.9265 145.766C28.5384 146.558 28.3446 147.431 28.3611 148.313C28.0795 150.072 28.2249 151.873 28.7851 153.564Z" fill="#D78A5A"/>
<path d="M33.8876 144.86C30.9648 142.536 27.5977 140.836 23.9938 139.865C19.7535 139.298 19.3295 146.644 19.3295 148.767C19.2156 149.533 19.3134 150.316 19.6122 151.031C19.8999 151.724 20.3338 152.347 20.8843 152.857C22.1563 154.131 32.5873 155.404 32.5873 155.404C32.5873 155.404 33.3081 155.518 34.1561 151.838C34.566 149.573 33.6049 147.182 33.8876 144.86Z" fill="#671E67"/>
<path d="M130.692 236.345C131.12 236.251 131.567 236.3 131.964 236.486C132.346 236.638 132.686 236.881 132.953 237.194C133.519 238.185 132.953 239.303 133.66 239.727C134.367 240.152 135.497 239.883 135.215 240.152C134.932 240.421 134.367 240.577 132.812 240.577C131.257 240.577 130.833 241.143 129.985 239.727C129.137 238.312 130.692 236.345 130.692 236.345Z" fill="#48394C"/>
<path d="M127.158 223.225C128.289 223.777 127.3 225.617 126.028 225.617C122.16 224.804 118.133 225.301 114.579 227.032C107.936 229.863 107.088 234.377 106.664 235.368C106.24 236.359 105.392 236.5 104.402 235.793C103.413 235.085 104.544 232.538 105.533 230.995C106.523 229.452 112.459 225.192 116.982 223.635C120.265 222.53 123.796 222.387 127.158 223.225Z" fill="#48394C"/>
<path d="M13.0964 220.776C13.0964 220.776 14.3685 219.644 16.6299 221.059C18.8914 222.474 22.8489 226.14 24.8277 227.272C26.8065 228.405 28.5025 228.971 29.3506 228.263C30.1986 227.555 29.9159 227.414 28.7852 226.706C27.6545 225.999 21.4355 216.389 17.3366 215.837C13.2378 215.285 12.3897 217.521 11.8244 218.37C11.259 219.219 13.0964 220.776 13.0964 220.776Z" fill="#48394C"/>
<path d="M13.6617 232.255C14.7925 234.236 16.9126 234.802 19.7394 234.802C21.872 234.624 23.943 233.997 25.817 232.962C26.241 232.821 27.2304 232.538 27.5131 233.104C27.7958 233.67 23.8382 236.217 22.0008 237.35C20.1634 238.482 16.0645 238.482 15.0751 237.633C14.6696 237.369 14.3308 237.014 14.0855 236.596C13.8402 236.179 13.6952 235.71 13.6617 235.227C13.511 234.242 13.511 233.24 13.6617 232.255Z" fill="#48394C"/>
<path d="M12.3897 218.837C12.3897 218.837 11.9656 216.163 9.84552 216.856C7.72541 217.55 7.01871 219.12 5.88799 218.271C4.75726 217.422 5.88799 219.687 6.45335 220.253C7.01871 220.819 8.43212 222.376 10.1282 221.668C11.8243 220.96 12.531 220.96 12.3897 218.837Z" fill="#48394C"/>
<path d="M13.8031 234.094C13.5204 232.254 13.2377 231.844 12.107 231.844C10.9763 231.844 10.2696 232.821 9.56289 232.396C8.85619 231.971 8.29083 233.811 8.85619 235.51C9.42155 237.208 14.3685 237.916 13.8031 234.094Z" fill="#48394C"/>
<path d="M5.88806 242.713V242.997H2.48175C3.35806 242.062 4.99761 241.128 5.69018 242.473C5.69482 242.506 5.69482 242.539 5.69018 242.572C5.71263 242.562 5.73727 242.558 5.76168 242.561C5.78608 242.563 5.80942 242.572 5.82939 242.586C5.84935 242.601 5.86526 242.62 5.87554 242.642C5.88583 242.664 5.89015 242.689 5.88806 242.713Z" fill="#48394C"/>
<path d="M31.3293 214.747C33.7321 217.422 34.7215 218.272 34.2975 219.687C33.8735 221.102 31.3293 219.121 29.3506 217.281C26.3723 214.472 22.7214 212.478 18.75 211.492C14.5098 210.926 12.531 213.615 10.9763 213.191C9.42154 212.766 10.5523 210.926 12.8137 209.652C16.3809 208.252 20.3166 208.102 23.9796 209.228C26.7627 210.575 29.2587 212.449 31.3293 214.747Z" fill="#48394C"/>
<path d="M105.392 89.4375C105.392 89.4375 105.392 81.526 110.763 80.6768C116.134 79.8277 116.416 85.8992 116.275 87.0315C116.134 88.1637 115.286 91.1217 113.024 91.6878C110.763 92.2539 106.24 92.5369 105.392 89.4375Z" fill="white"/>
<path d="M105.957 86.89C105.913 87.4707 106.01 88.0535 106.24 88.5884C106.376 89.134 106.671 89.6267 107.088 90.0036C107.477 90.3771 107.903 90.7091 108.36 90.9943C108.834 91.2654 109.369 91.4115 109.915 91.4189C110.744 91.2987 111.525 90.9564 112.176 90.4282C112.842 89.9377 113.337 89.2493 113.59 88.461C113.9 87.6994 113.997 86.8678 113.872 86.055C113.729 85.2455 113.333 84.5024 112.742 83.9321C112.032 83.0709 111.021 82.5139 109.915 82.3752C108.826 82.4646 107.813 82.9716 107.088 83.7905C106.676 84.1712 106.381 84.6624 106.24 85.2058C106.012 85.7363 105.915 86.314 105.957 86.89Z" fill="url(#paint0_linear_1263_8653)"/>
<path d="M94.5088 97.901C94.5468 98.4199 94.7443 98.9143 95.0742 99.3162C95.3478 99.7159 95.7451 100.014 96.2049 100.165C96.6996 100.358 97.2384 100.407 97.7597 100.307C98.2398 100.191 98.6795 99.9462 99.0317 99.5993C99.3743 99.2437 99.6179 98.8046 99.7384 98.3256C99.8266 98.0949 99.8597 97.8469 99.8352 97.6011C99.8106 97.3554 99.7291 97.1188 99.5971 96.9103C99.4461 96.4499 99.1481 96.052 98.749 95.778C98.3159 95.5055 97.837 95.3137 97.3356 95.2119C96.59 95.2225 95.8788 95.5278 95.3569 96.0611C95.0598 96.2596 94.8234 96.5366 94.6737 96.8613C94.524 97.186 94.467 97.5458 94.5088 97.901Z" fill="#E88869"/>
<path d="M109.349 88.3053C109.108 88.3691 108.855 88.3767 108.61 88.3277C108.365 88.2786 108.134 88.1742 107.936 88.0223C107.497 87.7703 107.113 87.4336 106.805 87.0316C106.577 86.597 106.478 86.1055 106.522 85.6163C106.56 85.0974 106.758 84.603 107.088 84.201C107.388 83.7653 107.843 83.4614 108.36 83.3518C108.591 83.2698 108.838 83.2399 109.082 83.2644C109.327 83.2889 109.563 83.367 109.773 83.4934C110.233 83.6445 110.63 83.9429 110.904 84.3425C111.191 84.7577 111.339 85.2531 111.328 85.7578C111.337 86.3716 111.137 86.9702 110.763 87.4562C110.406 87.8972 109.906 88.198 109.349 88.3053Z" fill="white"/>
<path d="M116.134 86.4655L115.71 88.5884L115.427 89.4376L115.286 90.4142C116.04 89.2689 116.657 88.0386 117.123 86.7486C117.264 86.0004 117.264 85.2323 117.123 84.4841C116.944 83.7284 116.552 83.0404 115.992 82.5027C115.303 81.6952 114.43 81.0643 113.448 80.6628C112.471 80.2369 111.394 80.09 110.339 80.2382C108.36 80.3798 106.664 83.0688 105.816 84.4841C105.395 86.051 105.251 87.6796 105.392 89.2961C105.392 89.2961 106.381 83.6349 108.925 82.3612C112.459 80.8185 114.437 82.5027 115.003 83.3519C115.415 83.7325 115.71 84.2238 115.851 84.7672C116.149 85.2799 116.249 85.8838 116.134 86.4655Z" fill="#2E2744"/>
<path d="M86.1695 88.73C86.1695 88.73 84.1907 81.6536 79.5265 79.6863C74.8622 77.7191 70.622 81.8092 69.6326 82.5169C68.6433 83.2245 68.7846 85.9136 69.2086 87.3289C69.6326 88.7442 71.0461 91.4191 75.993 91.8436C79.1351 92.0054 82.2831 91.6711 85.3214 90.8529C86.0281 90.5699 86.3108 89.7207 86.1695 88.73Z" fill="white"/>
<path d="M26.8065 120.291C28.9875 121.037 31.2877 121.373 33.5908 121.282H34.7215C34.7215 121.282 38.255 108.969 41.5059 92.8203C44.7567 77.1389 51.117 23.174 51.117 10.7336C51.117 6.34626 49.845 3.65721 48.2902 2.24192C47.2959 1.37788 46.144 0.714658 44.8981 0.288827C43.6521 -0.0405533 42.3487 -0.0888921 41.0819 0.147298C40.6578 55.669 26.8065 120.291 26.8065 120.291Z" fill="#6F717A"/>
<path d="M75.0037 90.8389C73.9095 90.8426 72.8349 90.5491 71.8942 89.9897C71.0151 89.4034 70.3272 88.5718 69.9154 87.5979C69.4734 86.6216 69.3738 85.5244 69.6327 84.4843C69.7982 83.3856 70.3495 82.382 71.1875 81.6537C71.9737 80.8909 72.9499 80.3533 74.0143 80.0969C75.0525 79.8307 76.1505 79.9307 77.1238 80.3799C78.0923 80.7984 78.9246 81.4798 79.5266 82.3472C80.1474 83.2687 80.4908 84.3495 80.5159 85.4608C80.5123 86.1892 80.3683 86.91 80.0919 87.5837C79.7996 88.2453 79.4192 88.8641 78.9612 89.4236C78.4342 89.9217 77.808 90.3027 77.1238 90.5417C76.4285 90.7101 75.7184 90.8097 75.0037 90.8389Z" fill="url(#paint1_linear_1263_8653)"/>
<path d="M71.8942 84.909C71.8817 85.4581 72.029 85.999 72.3182 86.4658C72.6373 86.947 73.0756 87.3371 73.5902 87.598C74.1184 87.8548 74.7231 87.9052 75.2863 87.7396C75.871 87.6006 76.4079 87.3074 76.8411 86.8904C77.1564 86.5691 77.3976 86.1827 77.5478 85.7581C77.6644 85.3442 77.7121 84.9139 77.6891 84.4844C77.6788 84.0268 77.531 83.5829 77.2651 83.2106C77.0183 82.8513 76.734 82.5192 76.4171 82.2199C75.9617 81.8918 75.4224 81.7004 74.8623 81.668C74.4735 81.6967 74.0918 81.7875 73.7316 81.9369C73.3696 82.1239 73.0363 82.3623 72.7422 82.6445C72.4729 82.9214 72.2783 83.2623 72.1768 83.6352C72.0158 84.0421 71.9204 84.4721 71.8942 84.909Z" fill="white"/>
<path d="M86.3107 87.8809C86.1752 85.7333 85.3298 83.6918 83.9079 82.0782C82.5159 80.4433 80.6309 79.3058 78.537 78.8372C71.046 77.1389 68.2191 83.6351 66.8057 84.2012C65.3923 84.7673 65.675 85.6165 66.6644 86.1826L69.6326 87.8809C69.4929 86.6845 69.6382 85.472 70.0566 84.3427C70.7878 82.9047 71.9328 81.7193 73.3438 80.9397C74.7548 80.1601 76.3668 79.8221 77.9716 79.9695C81.7878 80.5356 84.4733 84.6257 84.8973 85.6306C85.3214 86.6355 86.1694 89.4377 86.3107 87.8809Z" fill="#2E2744"/>
<path d="M33.5908 121.225H34.7216C34.7216 121.225 38.2551 108.969 41.5059 92.8201C44.7568 77.1387 50.9757 23.1738 50.9757 10.7334C50.9757 6.34603 49.7037 3.65699 48.1489 2.2417C47.594 2.81353 47.1612 3.49251 46.8769 4.23725C46.6004 4.91099 46.4565 5.63182 46.4528 6.36019C46.4528 10.1815 48.0076 12.0213 47.8662 15.5454C47.7249 19.0695 45.6048 21.2066 44.6154 25.5798C43.626 29.953 46.5942 34.1989 45.4635 41.148C44.3327 48.097 43.3433 44.2474 42.2126 50.6021C41.0819 56.9567 42.2126 68.4064 40.9406 73.5014C39.6685 78.5965 37.6897 84.9086 38.8204 90.1311C39.9512 95.3535 36.7003 106.803 34.1562 111.615C32.0361 115.422 31.8948 117.687 33.5908 121.225Z" fill="#F0F1F6"/>
<path opacity="0.14" d="M111.187 50.3051C115.277 56.528 117.977 63.5618 119.102 70.9258C119.526 73.8979 118.678 74.0394 117.123 73.7564C115.568 73.4733 114.438 74.1668 113.59 67.2461C112.742 60.3253 110.339 54.9614 109.632 52.1308C108.925 49.3002 111.187 50.3051 111.187 50.3051Z" fill="#E8A5DE"/>
<path opacity="0.59" d="M76.9823 46.9085C80.6905 47.288 84.3425 48.0954 87.8655 49.3145C91.9644 50.4467 91.399 48.8899 96.0633 48.0408C98.9998 47.6048 101.999 48.0479 104.685 49.3145C104.685 49.3145 100.445 45.7763 97.9007 45.3517C95.3566 44.9271 95.2152 42.9457 93.3778 42.3938C91.5404 41.8418 91.9644 39.7047 94.7912 37.8648C89.703 37.4403 85.1801 37.8648 81.6465 37.5818C80.5158 39.4217 82.9186 40.1293 84.0493 42.2522C85.3214 44.7856 83.6253 44.361 79.6678 45.2102C75.7102 46.0594 71.046 48.4654 70.7633 49.0315C70.4806 49.5976 74.2968 46.767 76.9823 46.9085Z" fill="#330730"/>
<path d="M99.3142 112.606C99.3142 112.606 102.282 108.785 95.6393 107.935C91.4968 107.483 87.3079 108.117 83.484 109.775C83.484 109.775 84.7561 111.474 90.127 113.313C91.6226 113.837 93.2149 114.026 94.7913 113.865C96.3639 113.73 97.8976 113.303 99.3142 112.606Z" fill="#E88869"/>
<path d="M52.1064 168.411C51.2399 169.74 50.5285 171.165 49.9863 172.657C63.4136 183.271 87.4415 177.61 88.1482 175.487C88.4823 173.804 88.2331 172.056 87.4415 170.534C69.0672 174.072 52.8131 167.703 52.1064 168.411Z" fill="#671E67"/>
<path d="M31.8253 143.319C32.1571 144.206 32.4333 145.113 32.6522 146.035L32.8267 146.801C32.9103 147.385 32.9091 147.979 32.8231 148.563C32.7818 148.885 32.7116 149.202 32.6135 149.511C31.6489 151.256 31.0648 153.743 29.492 154.966C30.8098 155.545 31.2354 155.661 32.6135 156.076C33.7322 156.696 34.7931 156.885 35.8523 157.089C36.573 156.724 37.4737 155.603 37.9723 154.966C38.535 154.365 38.8221 153.479 39.156 152.726C39.8068 151.316 39.9909 149.735 39.6815 148.213C39.4966 147.391 39.134 146.62 38.6193 145.954L38.3512 145.702C37.8985 145.148 37.8975 145.395 37.2657 145.059L31.8253 143.319Z" fill="#2D2034"/>
<path opacity="0.47" d="M32.8364 146.79C32.92 147.375 32.9188 147.968 32.8328 148.553C32.7914 148.874 32.7213 149.192 32.6231 149.501C31.6585 151.245 31.0648 153.743 29.492 154.966C30.8098 155.545 31.2451 155.717 32.6231 156.132C33.6523 156.455 34.7932 156.885 35.8523 157.089C36.573 156.723 37.4737 155.602 37.9723 154.966C38.535 154.365 38.8317 153.468 39.1656 152.715C39.8165 151.305 40.0006 149.724 39.6912 148.202C39.5063 147.381 39.1437 146.61 38.629 145.944C38.8068 149.002 38.9113 151.642 37.6479 152.784C37.296 153.108 36.8426 153.299 36.3653 153.326C36.0175 153.347 35.6684 153.331 35.3239 153.279C31.7086 152.794 33.6872 152.13 34.0228 150.117C34.1516 149.151 34.0896 148.17 33.8404 147.229C33.8296 147.146 33.8068 147.066 33.7727 146.991C33.7319 146.798 33.6757 146.609 33.6047 146.425C33.4927 146.471 33.3841 146.525 33.2798 146.586C33.1277 146.644 32.9796 146.713 32.8364 146.79Z" fill="#0C051A"/>
<defs>
<linearGradient id="paint0_linear_1263_8653" x1="113.802" y1="86.9042" x2="105.872" y2="86.8618" gradientUnits="userSpaceOnUse">
<stop stop-color="#A753FC"/>
<stop offset="1" stop-color="#6D41CA"/>
</linearGradient>
<linearGradient id="paint1_linear_1263_8653" x1="9685.6" y1="1351.34" x2="9026.91" y2="1348.66" gradientUnits="userSpaceOnUse">
<stop stop-color="#A753FC"/>
<stop offset="1" stop-color="#6D41CA"/>
</linearGradient>
</defs>
</svg>
