<svg width="38" height="50" viewBox="0 0 38 50" fill="none" xmlns="http://www.w3.org/2000/svg">
<path d="M15.458 7.81482C15.89 7.81482 16.2393 7.46482 16.2393 7.03357C16.2393 6.60232 15.89 6.25232 15.458 6.25232C15.0268 6.25232 14.6768 5.90154 14.6768 5.47107C14.6768 5.0406 15.0268 4.68982 15.458 4.68982C15.89 4.68982 16.2393 4.33982 16.2393 3.90857C16.2393 3.47732 15.89 3.12732 15.458 3.12732C14.1658 3.12732 13.1143 4.17888 13.1143 5.47107C13.1143 6.76326 14.1658 7.81482 15.458 7.81482Z" fill="#A6A9B5"/>
<path d="M15.4609 10.9382C15.893 10.9382 16.2422 10.5882 16.2422 10.157C16.2422 9.72573 15.893 9.37573 15.4609 9.37573C13.307 9.37573 11.5547 7.62339 11.5547 5.46948C11.5547 3.31558 13.307 1.56323 15.4609 1.56323C15.893 1.56323 16.2422 1.21323 16.2422 0.781982C16.2422 0.350732 15.893 0.000732422 15.4609 0.000732422C12.4461 0.000732422 9.99219 2.45386 9.99219 5.46948C9.99219 8.48511 12.4453 10.9382 15.4609 10.9382Z" fill="#A6A9B5"/>
<path d="M23.2729 10.9406C25.4269 10.9406 27.1792 9.18827 27.1792 7.03436C27.1792 4.88046 25.4269 3.12811 23.2729 3.12811C22.8409 3.12811 22.4917 3.47811 22.4917 3.90936C22.4917 4.34061 22.8409 4.69061 23.2729 4.69061C24.5651 4.69061 25.6167 5.74218 25.6167 7.03436C25.6167 8.32655 24.5651 9.37811 23.2729 9.37811C22.8409 9.37811 22.4917 9.72811 22.4917 10.1594C22.4917 10.5906 22.8409 10.9406 23.2729 10.9406Z" fill="#A6A9B5"/>
<path d="M23.2737 14.0656C27.1503 14.0656 30.3042 10.9117 30.3042 7.03511C30.3042 3.15855 27.1503 0.00463867 23.2737 0.00463867C22.8417 0.00463867 22.4925 0.354639 22.4925 0.785889C22.4925 1.21714 22.8417 1.56714 23.2737 1.56714C26.2886 1.56714 28.7417 4.02026 28.7417 7.03511C28.7417 10.05 26.2886 12.5031 23.2737 12.5031C22.8417 12.5031 22.4925 12.8531 22.4925 13.2843C22.4925 13.7156 22.8417 14.0656 23.2737 14.0656V14.0656Z" fill="#A6A9B5"/>
<path d="M15.4579 4.68982H23.272C23.704 4.68982 24.0532 4.33982 24.0532 3.90857C24.0532 3.47732 23.704 3.12732 23.272 3.12732H15.4579C15.0259 3.12732 14.6766 3.47732 14.6766 3.90857C14.6766 4.33982 15.0259 4.68982 15.4579 4.68982Z" fill="#A6A9B5"/>
<path d="M15.4577 7.81482H23.2749C23.7069 7.81482 24.0562 7.46482 24.0562 7.03357C24.0562 6.60232 23.7069 6.25232 23.2749 6.25232H15.4577C15.0257 6.25232 14.6765 6.60232 14.6765 7.03357C14.6765 7.46482 15.0257 7.81482 15.4577 7.81482Z" fill="#A6A9B5"/>
<path d="M15.4581 10.9406H23.2729C23.705 10.9406 24.0542 10.5906 24.0542 10.1593C24.0542 9.72805 23.705 9.37805 23.2729 9.37805H15.4581C15.026 9.37805 14.6768 9.72805 14.6768 10.1593C14.6768 10.5906 15.026 10.9406 15.4581 10.9406Z" fill="#A6A9B5"/>
<path d="M23.2749 10.9383C23.7069 10.9383 24.0562 10.5883 24.0562 10.157V7.03357C24.0562 6.60232 23.7069 6.25232 23.2749 6.25232C22.8429 6.25232 22.4937 6.60232 22.4937 7.03357V10.157C22.4937 10.5883 22.8429 10.9383 23.2749 10.9383V10.9383Z" fill="#A6A9B5"/>
<path d="M15.461 1.56714H23.2734C23.7055 1.56714 24.0547 1.21714 24.0547 0.785889C24.0547 0.354639 23.7055 0.00463867 23.2734 0.00463867H15.461C15.0289 0.00463867 14.6797 0.354639 14.6797 0.785889C14.6797 1.21714 15.0289 1.56714 15.461 1.56714Z" fill="#A6A9B5"/>
<path d="M15.4633 14.0656H23.2734C23.7055 14.0656 24.0547 13.7156 24.0547 13.2844C24.0547 12.8531 23.7055 12.5031 23.2734 12.5031H15.4633C15.0313 12.5031 14.6821 12.8531 14.6821 13.2844C14.6821 13.7156 15.0313 14.0656 15.4633 14.0656Z" fill="#A6A9B5"/>
<path d="M15.4609 21.0797C15.893 21.0797 16.2422 20.7297 16.2422 20.2984V13.2836C16.2422 12.8523 15.893 12.5023 15.4609 12.5023C15.0289 12.5023 14.6797 12.8523 14.6797 13.2836V20.2984C14.6797 20.7304 15.0289 21.0797 15.4609 21.0797Z" fill="#A6A9B5"/>
<path d="M20.1533 25.7733C25.7518 25.7733 30.3057 21.2202 30.3057 15.6234C30.3057 15.1921 29.9564 14.8421 29.5244 14.8421C29.0924 14.8421 28.7432 15.1921 28.7432 15.6234C28.7432 20.3585 24.8893 24.2108 20.1533 24.2108C15.4166 24.2108 11.5627 20.3585 11.5627 15.6234C11.5627 15.1921 11.2135 14.8421 10.7814 14.8421C10.3494 14.8421 10.0002 15.1921 10.0002 15.6234C9.99941 21.2202 14.5549 25.7733 20.1533 25.7733Z" fill="#A6A9B5"/>
<path d="M29.5229 16.4047C29.955 16.4047 30.3042 16.0547 30.3042 15.6234V7.03516C30.3042 6.60391 29.955 6.25391 29.5229 6.25391C29.0909 6.25391 28.7417 6.60391 28.7417 7.03516V15.6234C28.7417 16.0547 29.0909 16.4047 29.5229 16.4047Z" fill="#A6A9B5"/>
<path d="M10.7734 16.4046C11.2055 16.4046 11.5547 16.0546 11.5547 15.6234V5.46948C11.5547 5.03823 11.2055 4.68823 10.7734 4.68823C10.3414 4.68823 9.99219 5.03823 9.99219 5.46948V15.6234C9.99219 16.0546 10.3414 16.4046 10.7734 16.4046Z" fill="#A6A9B5"/>
<path d="M20.1533 25.7734C20.5854 25.7734 20.9346 25.4234 20.9346 24.9921C20.9346 24.5609 20.5854 24.2109 20.1533 24.2109C17.9947 24.2109 16.2393 22.4554 16.2393 20.2984C16.2393 19.8671 15.8901 19.5172 15.458 19.5172C15.026 19.5172 14.6768 19.8671 14.6768 20.2984C14.6768 23.3179 17.133 25.7734 20.1533 25.7734Z" fill="#A6A9B5"/>
<path d="M20.1533 49.9992C20.5854 49.9992 20.9346 49.65 20.9346 49.218V24.9922C20.9346 24.5609 20.5854 24.2109 20.1533 24.2109C19.7213 24.2109 19.3721 24.5609 19.3721 24.9922V49.218C19.3721 49.65 19.7213 49.9992 20.1533 49.9992Z" fill="#A6A9B5"/>
<path d="M8.64443 29.8446C9.47959 29.8446 10.264 29.5195 10.8546 28.9289C12.0726 27.7102 12.0726 25.7281 10.8546 24.5109C10.2983 23.9547 3.82178 18.6445 1.71318 18.6445C1.27334 18.6445 1.00224 18.8242 0.850681 18.975C0.198337 19.6273 0.308493 20.7625 2.86943 24.4016C4.26553 26.3852 5.91318 28.4078 6.43428 28.9289C7.02568 29.5195 7.81006 29.8446 8.64443 29.8446V29.8446ZM2.2124 20.3352C4.03974 21.0625 8.80224 24.6672 9.7499 25.6156C10.3585 26.2242 10.3585 27.2156 9.7499 27.8242C9.16006 28.4149 8.13115 28.4156 7.53975 27.8242C6.55303 26.8383 2.93974 22.1398 2.2124 20.3352V20.3352Z" fill="#A6A9B5"/>
<path d="M13.064 37.5789C14.7874 37.5789 16.189 36.1773 16.189 34.4539C16.189 32.7312 14.7874 31.3297 13.064 31.3297C11.9421 31.3297 7.59599 32.2984 7.59599 34.4539C7.59599 36.6093 11.9429 37.5789 13.064 37.5789ZM13.064 32.8922C13.9257 32.8922 14.6265 33.5922 14.6265 34.4539C14.6265 35.3156 13.9257 36.0164 13.064 36.0164C11.6686 36.0164 9.2413 34.9617 9.15849 34.45C9.24208 33.9453 11.6686 32.8922 13.064 32.8922Z" fill="#A6A9B5"/>
<path d="M20.1556 39.0125C20.3556 39.0125 20.5556 38.936 20.7079 38.7836C21.0134 38.4782 21.0134 37.9844 20.7079 37.6789L10.8548 27.825C10.5493 27.5196 10.0556 27.5196 9.75011 27.825C9.44464 28.1305 9.44464 28.6243 9.75011 28.9297L19.6032 38.7836C19.7563 38.936 19.9563 39.0125 20.1556 39.0125Z" fill="#A6A9B5"/>
<path d="M30.8845 40.0524C31.7196 40.0524 32.504 39.7274 33.0946 39.1367C33.1563 39.075 38.8618 32.4922 37.1149 30.7453C36.9485 30.5789 36.6454 30.3805 36.1485 30.3805C34.1431 30.3805 29.3563 34.0375 28.6759 34.718C27.4579 35.9367 27.4579 37.9188 28.6759 39.1367C29.2657 39.7274 30.0501 40.0524 30.8845 40.0524V40.0524ZM35.8829 31.9789C35.5548 33.2891 32.9938 37.0274 31.9899 38.032C31.4001 38.6227 30.3712 38.6227 29.7798 38.032C29.1712 37.4235 29.1712 36.4313 29.7798 35.8227C30.6634 34.9391 34.4431 32.3149 35.8829 31.9789V31.9789Z" fill="#A6A9B5"/>
<path d="M26.4656 47.7861C27.5875 47.7861 31.9336 46.8173 31.9336 44.6611C31.9336 42.5056 27.5875 41.5369 26.4656 41.5369C24.7422 41.5369 23.3406 42.9384 23.3406 44.6611C23.3406 46.3845 24.7422 47.7861 26.4656 47.7861ZM26.4656 43.0994C27.8609 43.0994 30.2883 44.1533 30.3711 44.665C30.2883 45.1697 27.8609 46.2236 26.4656 46.2236C25.6039 46.2236 24.9031 45.5228 24.9031 44.6611C24.9031 43.7994 25.6039 43.0994 26.4656 43.0994V43.0994Z" fill="#A6A9B5"/>
<path d="M20.1555 48.4375C20.3555 48.4375 20.5555 48.3609 20.7078 48.2086L29.7797 39.1367C30.0852 38.8312 30.0852 38.3375 29.7797 38.032C29.4742 37.7266 28.9805 37.7266 28.675 38.032L19.6039 47.1039C19.2984 47.4094 19.2984 47.9031 19.6039 48.2086C19.7562 48.3609 19.9562 48.4375 20.1555 48.4375Z" fill="#A6A9B5"/>
<path d="M19.3742 28.9062H20.1524C20.5844 28.9062 20.9336 28.557 20.9336 28.125C20.9336 27.693 20.5844 27.3438 20.1524 27.3438H19.3742C18.9422 27.3438 18.593 27.693 18.593 28.125C18.593 28.557 18.943 28.9062 19.3742 28.9062Z" fill="#A6A9B5"/>
<path d="M19.3742 35.1562H20.1524C20.5844 35.1562 20.9336 34.807 20.9336 34.375C20.9336 33.943 20.5844 33.5938 20.1524 33.5938H19.3742C18.9422 33.5938 18.593 33.943 18.593 34.375C18.593 34.807 18.943 35.1562 19.3742 35.1562Z" fill="#A6A9B5"/>
<path d="M19.3742 41.4062H20.1524C20.5844 41.4062 20.9336 41.057 20.9336 40.625C20.9336 40.193 20.5844 39.8438 20.1524 39.8438H19.3742C18.9422 39.8438 18.593 40.193 18.593 40.625C18.593 41.057 18.943 41.4062 19.3742 41.4062Z" fill="#A6A9B5"/>
<path d="M19.3742 47.6562H20.1524C20.5844 47.6562 20.9336 47.307 20.9336 46.875C20.9336 46.443 20.5844 46.0938 20.1524 46.0938H19.3742C18.9422 46.0938 18.593 46.443 18.593 46.875C18.593 47.307 18.943 47.6562 19.3742 47.6562Z" fill="#A6A9B5"/>
<path d="M20.1531 44.5312H20.9375C21.3695 44.5312 21.7188 44.182 21.7188 43.75C21.7188 43.318 21.3695 42.9688 20.9375 42.9688H20.1531C19.7211 42.9688 19.3719 43.318 19.3719 43.75C19.3719 44.182 19.7211 44.5312 20.1531 44.5312Z" fill="#A6A9B5"/>
<path d="M20.1531 38.2812H20.9375C21.3695 38.2812 21.7188 37.932 21.7188 37.5C21.7188 37.068 21.3695 36.7188 20.9375 36.7188H20.1531C19.7211 36.7188 19.3719 37.068 19.3719 37.5C19.3719 37.932 19.7211 38.2812 20.1531 38.2812Z" fill="#A6A9B5"/>
<path d="M20.1531 32.0312H20.9375C21.3695 32.0312 21.7188 31.682 21.7188 31.25C21.7188 30.818 21.3695 30.4688 20.9375 30.4688H20.1531C19.7211 30.4688 19.3719 30.818 19.3719 31.25C19.3719 31.682 19.7211 32.0312 20.1531 32.0312Z" fill="#A6A9B5"/>
</svg>
