<svg width="50" height="50" viewBox="0 0 50 50" fill="none" xmlns="http://www.w3.org/2000/svg">
<g clip-path="url(#clip0_1274_16013)">
<path d="M18.0708 18.4476C18.2708 18.6292 18.4658 18.8059 18.6475 18.9834C20.015 20.3117 24.2892 23.8284 24.4708 23.9767C24.7783 24.2295 25.2217 24.2295 25.5292 23.9767C25.7108 23.8284 29.985 20.3101 31.3525 18.9834C31.5342 18.8059 31.7292 18.6292 31.9292 18.4476C33.225 17.2701 35 15.6584 35 12.4484C35 8.93591 32.8075 6.66674 29.4167 6.66674C27.7163 6.65338 26.0979 7.39659 25 8.69508C23.9021 7.39659 22.2837 6.65338 20.5833 6.66674C17.1925 6.66674 15 8.93591 15 12.4484C15 15.6584 16.775 17.2701 18.0708 18.4476ZM20.5833 8.33341C22.1156 8.33454 23.5246 9.17349 24.2558 10.5201C24.4133 10.7785 24.694 10.9362 24.9967 10.9362C25.2993 10.9362 25.58 10.7785 25.7375 10.5201C26.4698 9.17139 27.882 8.3321 29.4167 8.33341C31.9083 8.33341 33.3333 9.83341 33.3333 12.4484C33.3333 14.9201 32.0492 16.0867 30.8083 17.2142C30.5942 17.4092 30.3858 17.5984 30.1908 17.7876C29.1492 18.8001 26.2092 21.2501 25 22.2501C23.7908 21.2501 20.8508 18.7976 19.8092 17.7851C19.6142 17.5959 19.4058 17.4067 19.1917 17.2117C17.9508 16.0834 16.6667 14.9167 16.6667 12.4484C16.6667 9.83341 18.095 8.33341 20.5833 8.33341Z" fill="#A6A9B5"/>
<path d="M49.9817 22.3891C49.975 22.3404 49.9641 22.2925 49.9492 22.2457C49.94 22.2191 49.9392 22.1907 49.9283 22.1624C49.9128 22.1334 49.8953 22.1056 49.8758 22.0791C49.8617 22.0549 49.8583 22.0274 49.8417 22.0041C49.825 21.9807 49.8083 21.9766 49.7942 21.9599C49.7779 21.9368 49.7603 21.9145 49.7417 21.8932C49.7417 21.8932 49.7358 21.8832 49.7317 21.8799L44.1667 16.7582V5.83238C44.1667 4.45167 43.0474 3.33238 41.6667 3.33238H29.6L26.6717 0.636551C25.7166 -0.218542 24.2704 -0.215307 23.3192 0.644051L20.4 3.33238H8.33333C6.95262 3.33238 5.83333 4.45167 5.83333 5.83238V16.7582L0.268333 21.8866C0.264167 21.8866 0.2625 21.8957 0.258333 21.8999C0.239669 21.9212 0.222144 21.9434 0.205833 21.9666C0.191667 21.9832 0.171667 21.9924 0.158333 22.0107C0.145 22.0291 0.138333 22.0616 0.124167 22.0857C0.104718 22.1122 0.0871739 22.1401 0.0716667 22.1691C0.0608333 22.1941 0.06 22.2224 0.0508333 22.2524C0.035878 22.2991 0.0250039 22.3471 0.0183333 22.3957C0.0107534 22.4246 0.0046345 22.4538 0 22.4832C0 22.4882 0 22.4932 0 22.4991V47.4991C0 48.8798 1.11929 49.9991 2.5 49.9991H47.5C48.8807 49.9991 50 48.8798 50 47.4991V22.4991C50 22.4932 50 22.4882 50 22.4832C49.9956 22.4515 49.9895 22.4201 49.9817 22.3891ZM48.3333 47.4991C48.3333 47.5099 48.3275 47.5182 48.3275 47.5291L32.1725 35.8324L48.3333 24.1316V47.4991ZM1.66667 47.4991V24.1316L17.8275 35.8324L1.6725 47.5291C1.6725 47.5182 1.66667 47.5099 1.66667 47.4991ZM19.25 36.8624L23.5358 39.9657C24.4098 40.6012 25.5936 40.6012 26.4675 39.9657L30.75 36.8624L46.595 48.3324H3.405L19.25 36.8624ZM47.8525 22.4216L44.1667 25.0907V19.0249L47.8525 22.4216ZM24.4392 1.87822C24.7564 1.59812 25.2316 1.59492 25.5525 1.87072L27.14 3.33238H22.86L24.4392 1.87822ZM8.33333 4.99905H41.6667C42.1269 4.99905 42.5 5.37215 42.5 5.83238V26.2974L25.4883 38.6157C25.1969 38.8265 24.8031 38.8265 24.5117 38.6157L7.5 26.2974V5.83238C7.5 5.37215 7.8731 4.99905 8.33333 4.99905ZM5.83333 25.0907L2.1475 22.4241L5.83333 19.0249V25.0907Z" fill="#A6A9B5"/>
<path d="M14.1668 28.3334H35.8335C36.2937 28.3334 36.6668 27.9603 36.6668 27.5001C36.6668 27.0398 36.2937 26.6667 35.8335 26.6667H14.1668C13.7066 26.6667 13.3335 27.0398 13.3335 27.5001C13.3335 27.9603 13.7066 28.3334 14.1668 28.3334Z" fill="#A6A9B5"/>
<path d="M30.8335 30.0001H19.1668C18.7066 30.0001 18.3335 30.3732 18.3335 30.8334C18.3335 31.2936 18.7066 31.6667 19.1668 31.6667H30.8335C31.2937 31.6667 31.6668 31.2936 31.6668 30.8334C31.6668 30.3732 31.2937 30.0001 30.8335 30.0001Z" fill="#A6A9B5"/>
<path d="M27.4998 33.3334H22.4998C22.0396 33.3334 21.6665 33.7065 21.6665 34.1667C21.6665 34.6269 22.0396 35 22.4998 35H27.4998C27.9601 35 28.3332 34.6269 28.3332 34.1667C28.3332 33.7065 27.9601 33.3334 27.4998 33.3334Z" fill="#A6A9B5"/>
</g>
<defs>
<clipPath id="clip0_1274_16013">
<rect width="50" height="50" fill="white"/>
</clipPath>
</defs>
</svg>
