<svg width="50" height="50" viewBox="0 0 50 50" fill="none" xmlns="http://www.w3.org/2000/svg">
<path d="M43.1725 26.0336V3.58223C43.1725 1.60703 41.5654 0 39.5902 0H10.4105C8.43535 0 6.82832 1.60703 6.82832 3.58223V26.0332C4.50791 27.017 2.93994 29.3344 2.93994 31.8961C2.93994 34.4604 4.50693 36.7754 6.82832 37.7594V40.5163C6.82832 45.7456 11.0826 49.9999 16.3119 49.9999H33.6886C38.9179 49.9999 43.1724 45.7456 43.1724 40.5163V37.7592C45.4934 36.7749 47.0601 34.4602 47.0601 31.8961C47.0601 29.3348 45.4925 27.0175 43.1725 26.0336ZM6.82832 35.6492C5.5958 34.8304 4.80645 33.4263 4.80645 31.8961C4.80645 30.3675 5.59609 28.9623 6.82832 28.143V35.6492ZM41.3061 40.5164C41.3061 44.7166 37.889 48.1336 33.6888 48.1336H16.312C12.1118 48.1336 8.69483 44.7166 8.69483 40.5164V10.9929H11.425V12.0194C11.425 12.5349 11.8429 12.9526 12.3582 12.9526C12.8735 12.9526 13.2914 12.5348 13.2914 12.0194V10.9929H17.746V12.0194C17.746 12.5349 18.1639 12.9526 18.6792 12.9526C19.1945 12.9526 19.6124 12.5348 19.6124 12.0194V10.9929H24.067V12.0194C24.067 12.5349 24.4849 12.9526 25.0002 12.9526C25.5156 12.9526 25.9334 12.5348 25.9334 12.0194V10.9929H30.388V12.0194C30.388 12.5349 30.8057 12.9526 31.3212 12.9526C31.8367 12.9526 32.2544 12.5348 32.2544 12.0194V10.9929H36.709V12.0194C36.709 12.5349 37.1267 12.9526 37.6422 12.9526C38.1577 12.9526 38.5754 12.5348 38.5754 12.0194V10.9929H41.3056V40.5164H41.3061ZM41.3061 9.12637H38.5759V8.1C38.5759 7.58457 38.1582 7.1668 37.6427 7.1668C37.1272 7.1668 36.7095 7.58467 36.7095 8.1V9.12646H32.2549V8.1C32.2549 7.58457 31.8372 7.1668 31.3217 7.1668C30.8062 7.1668 30.3885 7.58467 30.3885 8.1V9.12646H25.9339V8.1C25.9339 7.58457 25.516 7.1668 25.0007 7.1668C24.4853 7.1668 24.0675 7.58467 24.0675 8.1V9.12646H19.6129V8.1C19.6129 7.58457 19.195 7.1668 18.6797 7.1668C18.1643 7.1668 17.7465 7.58467 17.7465 8.1V9.12646H13.2919V8.1C13.2919 7.58457 12.874 7.1668 12.3587 7.1668C11.8433 7.1668 11.4255 7.58467 11.4255 8.1V9.12646H8.69473V3.58223C8.69473 2.63613 9.46445 1.86641 10.4105 1.86641H39.5902C40.5364 1.86641 41.3061 2.63613 41.3061 3.58223V9.12637ZM43.1725 35.6488V28.1436C44.4042 28.9628 45.1936 30.3679 45.1936 31.8962C45.1936 33.4261 44.4046 34.8299 43.1725 35.6488Z" fill="#A6A9B5"/>
<path d="M39.5625 27.7742H10.4381C9.92266 27.7742 9.50488 28.1921 9.50488 28.7074C9.50488 29.2228 9.92275 29.6406 10.4381 29.6406H11.1174C10.9956 30.2575 11.1331 30.9026 11.518 31.4241C12.3785 32.5905 13.7568 33.2868 15.2048 33.2868C15.7977 33.2868 16.3641 33.1724 16.8846 32.9663C16.2756 34.0647 15.3115 35.1311 13.7848 35.8154C13.3145 36.0263 13.1041 36.5784 13.3149 37.0488C13.4702 37.3952 13.8105 37.6006 14.1671 37.6006C14.2946 37.6006 14.4243 37.5743 14.5482 37.5188C18.7993 35.6131 19.6145 31.5266 19.7591 29.6407H22.0141V37.0405C22.0141 38.0192 22.8103 38.8154 23.789 38.8154H26.2116C27.1902 38.8154 27.9866 38.0193 27.9866 37.0405V29.6407H30.2416C30.386 31.5264 31.2014 35.6129 35.4522 37.5188C35.5763 37.5744 35.7059 37.6006 35.8335 37.6006C36.1898 37.6006 36.5303 37.3953 36.6856 37.0488C36.8964 36.5785 36.6861 36.0264 36.2159 35.8154C34.6762 35.1252 33.7097 34.058 33.1011 32.9604C33.6257 33.1701 34.1973 33.2868 34.7961 33.2868C36.2441 33.2868 37.6223 32.5905 38.4829 31.4242C38.8678 30.9026 39.0054 30.2575 38.8835 29.6406H39.5628C40.0783 29.6406 40.496 29.2228 40.496 28.7074C40.496 28.1921 40.078 27.7742 39.5625 27.7742ZM15.2048 31.4206C14.334 31.4205 13.5377 31.018 13.0197 30.3161C12.8917 30.1425 12.9448 29.9734 12.988 29.888C13.0254 29.8137 13.1393 29.6408 13.385 29.6408H17.7523C17.3711 30.6783 16.3729 31.4206 15.2048 31.4206ZM26.1201 36.9489H23.8805V29.6407H26.1201V36.9489ZM36.9807 30.3161C36.4629 31.0179 35.6664 31.4204 34.7958 31.4204C33.6275 31.4204 32.6295 30.6782 32.248 29.6406H36.6156C36.8612 29.6406 36.975 29.8135 37.0126 29.8878C37.0557 29.9734 37.1089 30.1426 36.9807 30.3161Z" fill="#A6A9B5"/>
<path d="M35.27 41.2784C28.5514 39.3324 21.4489 39.3324 14.7305 41.2784C14.2354 41.4218 13.9504 41.9393 14.0937 42.4345C14.2371 42.9296 14.7545 43.2145 15.2498 43.0713C21.6286 41.2236 28.3717 41.2236 34.7505 43.0713C34.8373 43.0964 34.9247 43.1084 35.0107 43.1084C35.4155 43.1084 35.7882 42.8429 35.9066 42.4345C36.0501 41.9393 35.7649 41.4219 35.27 41.2784Z" fill="#A6A9B5"/>
<path d="M30.3514 43.4248C26.8008 42.8983 23.2005 42.8983 19.6499 43.4248C19.1401 43.5004 18.7881 43.975 18.8638 44.4849C18.9394 44.9947 19.4134 45.3466 19.9239 45.2711C23.2928 44.7714 26.7088 44.7714 30.0777 45.2711C30.1241 45.2779 30.1703 45.2812 30.2158 45.2812C30.6706 45.2812 31.0689 44.9482 31.1377 44.4848C31.2131 43.975 30.8611 43.5004 30.3514 43.4248Z" fill="#A6A9B5"/>
<path d="M19.6802 23.0802L17.8137 19.3474C17.6556 19.0312 17.3326 18.8314 16.9791 18.8314H14.5254L12.3701 15.184C12.1079 14.7402 11.5355 14.5931 11.0919 14.8553C10.6482 15.1175 10.501 15.6898 10.7632 16.1334L13.1896 20.2394C13.3576 20.5235 13.663 20.6979 13.993 20.6979H16.4024L18.0109 23.9148C18.1744 24.2418 18.5039 24.4309 18.8463 24.4308C18.9866 24.4308 19.129 24.399 19.2629 24.3321C19.724 24.1018 19.9108 23.5412 19.6802 23.0802Z" fill="#A6A9B5"/>
</svg>
