<svg width="20" height="16" viewBox="0 0 20 16" fill="none" xmlns="http://www.w3.org/2000/svg">
<rect width="20" height="14.6667" fill="#EEF3F8"/>
<rect width="11.25" height="9.33333" fill="#41479B"/>
<rect x="11.25" width="8.75" height="1.33333" fill="#DC251C"/>
<rect x="11.25" y="2.66666" width="8.75" height="1.33333" fill="#DC251C"/>
<rect x="11.25" y="5.33334" width="8.75" height="1.33333" fill="#DC251C"/>
<rect x="11.25" y="8" width="8.75" height="1.33333" fill="#DC251C"/>
<rect y="10.6667" width="20" height="1.33333" fill="#DC251C"/>
<rect y="13.3333" width="20" height="1.33333" fill="#DC251C"/>
<rect x="1.25" y="1.33334" width="1.25" height="1.33333" fill="#C5D0EC"/>
<rect x="3.75" y="1.33334" width="1.25" height="1.33333" fill="#C5D0EC"/>
<rect x="6.25" y="1.33334" width="1.25" height="1.33333" fill="#C5D0EC"/>
<rect x="8.75" y="1.33334" width="1.25" height="1.33333" fill="#C5D0EC"/>
<rect x="1.25" y="4" width="1.25" height="1.33333" fill="#C5D0EC"/>
<rect x="3.75" y="4" width="1.25" height="1.33333" fill="#C5D0EC"/>
<rect x="6.25" y="4" width="1.25" height="1.33333" fill="#C5D0EC"/>
<rect x="2.5" y="5.33334" width="1.25" height="1.33333" fill="#C5D0EC"/>
<rect x="5" y="5.33334" width="1.25" height="1.33333" fill="#C5D0EC"/>
<rect x="7.5" y="5.33334" width="1.25" height="1.33333" fill="#C5D0EC"/>
<rect x="2.5" y="2.66669" width="1.25" height="1.33333" fill="#C5D0EC"/>
<rect x="5" y="2.66669" width="1.25" height="1.33333" fill="#C5D0EC"/>
<rect x="7.5" y="2.66669" width="1.25" height="1.33333" fill="#C5D0EC"/>
<rect x="8.75" y="4" width="1.25" height="1.33333" fill="#C5D0EC"/>
<rect x="1.25" y="6.66669" width="1.25" height="1.33333" fill="#C5D0EC"/>
<rect x="3.75" y="6.66669" width="1.25" height="1.33333" fill="#C5D0EC"/>
<rect x="6.25" y="6.66669" width="1.25" height="1.33333" fill="#C5D0EC"/>
<rect x="8.75" y="6.66669" width="1.25" height="1.33333" fill="#C5D0EC"/>
</svg>
