<svg width="24" height="24" viewBox="0 0 24 24" fill="none" xmlns="http://www.w3.org/2000/svg">
<path fill-rule="evenodd" clip-rule="evenodd" d="M12.8794 2.85872C13.9828 1.79309 15.4605 1.20345 16.9943 1.21677C18.5282 1.2301 19.9955 1.84534 21.0801 2.92998C22.1647 4.01462 22.78 5.48187 22.7933 7.01572C22.8066 8.54957 22.217 10.0273 21.1513 11.1306L21.141 11.1412L18.1411 14.141C18.1411 14.1411 18.1411 14.141 18.1411 14.141C17.5481 14.7343 16.8343 15.1931 16.0484 15.4863C15.2624 15.7795 14.4226 15.9002 13.5859 15.8403C12.7492 15.7804 11.9351 15.5412 11.199 15.139C10.4628 14.7368 9.82176 14.181 9.3193 13.5092C9.03812 13.1333 9.11491 12.6006 9.49082 12.3195C9.86673 12.0383 10.3994 12.1151 10.6806 12.491C11.037 12.9675 11.4918 13.3618 12.014 13.6471C12.5363 13.9324 13.1138 14.1021 13.7073 14.1446C14.3009 14.1871 14.8967 14.1015 15.4542 13.8935C16.0118 13.6855 16.5181 13.36 16.9388 12.9392L19.9335 9.94453C20.6863 9.16238 21.1028 8.11626 21.0934 7.03049C21.0839 5.94238 20.6474 4.9015 19.878 4.13206C19.1086 3.36262 18.0677 2.92617 16.9796 2.91671C15.8934 2.90727 14.8469 3.32405 14.0647 4.07743L12.3492 5.7829C12.0163 6.11388 11.4781 6.11231 11.1472 5.7794C10.8162 5.44649 10.8178 4.9083 11.1507 4.57732L12.8794 2.85872Z" fill="#7556F1"/>
<path fill-rule="evenodd" clip-rule="evenodd" d="M7.95168 8.51371C8.73764 8.22052 9.57745 8.0998 10.4142 8.15972C11.2509 8.21965 12.0649 8.45882 12.8011 8.86101C13.5372 9.26321 14.1783 9.81902 14.6808 10.4908C14.9619 10.8667 14.8851 11.3993 14.5092 11.6805C14.1333 11.9617 13.6006 11.8849 13.3195 11.509C12.963 11.0325 12.5082 10.6382 11.986 10.3529C11.4638 10.0676 10.8863 9.89789 10.2927 9.85538C9.69916 9.81287 9.10339 9.89851 8.54584 10.1065C7.98828 10.3145 7.48197 10.6399 7.06125 11.0608L7.06114 11.0609L4.0666 14.0555C3.31374 14.8376 2.89726 15.8837 2.9067 16.9695C2.91616 18.0576 3.35261 19.0985 4.12205 19.8679C4.89149 20.6374 5.93237 21.0738 7.02048 21.0833C8.10625 21.0927 9.15237 20.6762 9.93452 19.9234L11.6391 18.2188C11.971 17.8869 12.5092 17.8869 12.8411 18.2188C13.1731 18.5508 13.1731 19.089 12.8411 19.4209L11.1311 21.1309L11.1206 21.1413C10.0173 22.2069 8.53956 22.7966 7.00571 22.7832C5.47186 22.7699 4.00461 22.1547 2.91997 21.07C1.83533 19.9854 1.22009 18.5181 1.20676 16.9843C1.19344 15.4504 1.78308 13.9727 2.84871 12.8694L2.85906 12.8588L5.85895 9.85895C5.85899 9.85892 5.85903 9.85888 5.85906 9.85884C6.4521 9.26562 7.16577 8.80687 7.95168 8.51371Z" fill="#7556F1"/>
</svg>
