<svg width="158" height="36" viewBox="0 0 158 36" fill="none" xmlns="http://www.w3.org/2000/svg">
<g clip-path="url(#clip0_1397_7708)">
<path d="M29.5608 33.4991C29.3701 32.4461 26.2551 18.3181 8.05225 30.362C8.66678 27.9049 9.84968 25.8401 11.778 24.0631C13.7867 22.0737 16.2742 20.9287 18.9019 20.4461C18.9655 20.468 19.4317 20.5558 19.8979 20.6435C20.3852 20.7313 20.8938 20.8629 21.36 20.9945C23.0553 21.4772 24.6234 22.3985 25.9372 23.6271C31.7223 29.0457 29.5608 33.4991 29.5608 33.4991Z" fill="url(#paint0_linear_1397_7708)"/>
<path d="M22.5045 16.4536C22.4622 16.5194 22.2926 16.7169 22.2503 16.7608L20.3431 16.7827L19.8769 16.8046L19.4107 16.8266L18.8809 16.8485L18.1604 16.8924L16.2533 17.0021C16.1897 17.0021 16.1261 17.024 16.0626 17.0679C15.999 17.1118 15.9566 17.1556 15.9354 17.2215C15.8718 17.375 15.8295 17.5505 15.8295 17.726C15.8295 18.0112 15.9142 18.2964 16.0626 18.5377C16.2533 18.8668 16.5076 19.1739 16.8042 19.4591C16.889 19.5249 16.9526 19.5907 16.995 19.6566C17.0161 19.6785 17.1009 19.7443 17.1433 19.7662C17.1857 19.7882 17.2281 19.8101 17.2492 19.854C17.3128 19.8979 17.3976 19.9417 17.4823 19.9856C17.6095 20.0514 17.7578 20.1172 17.9062 20.1831L18.1393 20.2708L18.2452 20.3147C18.33 20.3586 18.4359 20.3805 18.5419 20.4244C18.5843 20.4463 18.6266 20.4463 18.6902 20.4683C18.7538 20.4902 18.7962 20.5121 18.8597 20.5121C18.6478 20.556 18.4147 20.5999 18.2028 20.6438C15.6811 21.2361 13.5094 22.4031 11.687 24.1581C7.48532 25.7767 4.1087 31.5071 4.1087 36.0002C-0.532071 26.2818 2.35217 21.1922 5.29768 18.6474C2.75479 19.9198 0.847629 22.0917 0 24.6803C0.127144 22.0697 0.932392 19.5469 2.33098 17.2873C3.72957 15.0496 5.65792 13.141 8.01009 11.7589C8.13724 11.7589 8.37033 11.7151 8.49748 11.7151C10.108 11.7151 11.6549 12.0002 13.1171 12.6584C14.0071 13.0752 22.3138 16.4975 22.5045 16.4536Z" fill="url(#paint1_linear_1397_7708)"/>
<path d="M42.0002 21.5211C42.0002 23.6052 41.6823 25.6893 41.0466 27.6857C40.5168 29.331 39.3725 31.5687 38.2918 33.236C38.3554 33.0604 40.5804 25.7332 39.203 23.1884C39.203 23.1665 39.1818 23.1445 39.1818 23.1226C39.1394 23.0129 39.097 22.9032 39.0335 22.7935C39.0123 22.7058 38.9911 22.64 38.9911 22.64L39.3089 22.8155L39.9023 23.1445L40.4744 23.4517C40.4744 23.4297 40.4744 23.4078 40.4956 23.3859C40.6863 22.3328 40.4532 21.3237 40.0718 20.4462C39.5632 19.3054 38.8004 18.3402 38.3554 17.704C37.5289 16.5413 38.3554 16.0586 38.3554 16.0586C37.4442 15.0934 35.7277 15.4005 35.7277 15.4005C35.7277 15.4005 35.7277 14.6327 35.6853 14.3036C35.6641 14.0184 35.6006 13.7332 35.537 13.47C35.2191 12.0221 34.0748 9.80634 33.4391 9.01658L33.0153 10.3548L31.7227 14.3694C31.7015 14.2597 31.0446 11.3639 29.095 9.93797L28.0991 13.3383L27.7749 14.3812L27.6654 14.4001L23.3523 15.5102C23.3099 15.5102 23.204 15.5102 23.1616 15.5321C23.0557 15.576 23.0133 15.6199 22.9497 15.7296L22.5471 16.3877C22.5047 16.4535 22.3352 16.6509 22.2928 16.7168C22.2292 16.7168 20.7882 16.5851 20.5128 16.5193C19.1354 16.2561 17.8004 15.7076 16.5925 14.9398C16.0627 14.6107 15.5965 14.3036 15.5541 14.2817C12.757 12.0659 9.55717 11.5833 7.98906 11.7807C6.35581 11.8298 5.1132 12.1264 3.37842 12.8843C4.20016 10.1369 6.75553 7.21718 8.40016 5.77905C11.2185 3.32202 14.5582 1.90872 18.4149 1.75516C19.9194 1.62353 23.3099 2.1281 25.2595 2.89592C24.3271 2.23779 23.3099 1.68934 22.2504 1.25059C20.6823 0.592451 19.0294 0.19757 17.3342 0.0440052C21.6147 -0.219249 26.1071 0.724078 29.2222 2.17197C30.6843 2.85205 32.0617 3.72956 33.3543 4.65095C35.6006 6.25241 37.3382 8.24876 38.7368 10.4645C38.7368 10.4645 38.7368 10.4645 38.7368 10.4864C40.877 13.799 42.0002 17.6381 42.0002 21.5211Z" fill="url(#paint2_linear_1397_7708)"/>
<path d="M3.37842 12.8843C5.2045 12.1264 6.48276 11.8422 7.96786 11.8027C9.53598 11.6052 12.7358 12.0879 15.5329 14.2816C15.5965 14.3255 16.0415 14.6107 16.5713 14.9398C17.0375 15.225 17.5037 15.4882 17.9911 15.7076C17.8427 15.7076 17.6732 15.6857 17.5249 15.6857C4.59854 15.3566 4.10885 33.6019 4.10885 35.9053C5.12601 26.7134 11.6871 24.158 11.6871 24.158C13.4883 22.4029 15.7025 21.2579 18.2242 20.6656C18.4361 20.6217 18.8175 20.5339 19.0506 20.4901C17.7899 20.055 16.8162 19.6848 16.0839 18.4718C15.9356 18.2305 15.8508 17.9453 15.8508 17.6601C15.8508 17.4846 15.8871 17.1475 16.0697 17.0527C16.5262 16.958 18.0478 16.886 18.4436 16.8633L20.6349 16.7685H22.2784C22.3061 16.7494 22.5523 16.3969 22.5523 16.3896L22.9697 15.7076C23.0544 15.576 23.3317 15.5369 23.3741 15.5369L27.7647 14.3757C27.4828 13.7369 11.8783 2.12928 3.37842 12.8843Z" fill="#7657F2"/>
</g>
<path d="M63.6054 30.1062H58V9.10268H72.5996V11.7865H63.6054V18.2771H70.5522V20.9463H63.6054V30.1062Z" fill="#7556F1"/>
<path d="M90.9758 30.1062H86.2034V28.0933C85.6387 28.8907 84.9562 29.4839 84.1561 29.8728C83.3654 30.252 82.4947 30.4417 81.544 30.4417C80.3015 30.4417 79.1907 30.2131 78.2118 29.7561C77.2328 29.2991 76.4045 28.6768 75.7268 27.8891C75.049 27.0918 74.5313 26.1583 74.1736 25.0887C73.8159 24.0191 73.6371 22.8716 73.6371 21.6464C73.6371 20.4212 73.8159 19.2738 74.1736 18.2042C74.5313 17.1346 75.049 16.206 75.7268 15.4183C76.4045 14.621 77.2328 13.9938 78.2118 13.5368C79.1907 13.0797 80.3015 12.8512 81.544 12.8512C82.1747 12.8512 82.7724 12.9485 83.3372 13.1429C83.9114 13.3374 84.4338 13.6145 84.9044 13.9743C85.3845 14.3244 85.8034 14.7522 86.1611 15.2579C86.5282 15.7538 86.8153 16.3081 87.0224 16.9207L89.1403 13.2596H90.9758V30.1062ZM86.1752 21.6464C86.1752 21.2089 86.1517 20.747 86.1046 20.2608C86.0669 19.7746 85.9963 19.2933 85.8928 18.8168C85.7893 18.3403 85.6434 17.8882 85.4551 17.4603C85.2763 17.0228 85.0409 16.6387 84.7491 16.3081C84.4667 15.9677 84.1232 15.7003 83.7184 15.5058C83.3136 15.3114 82.843 15.2141 82.3065 15.2141C81.7699 15.2141 81.304 15.3162 80.9086 15.5204C80.5133 15.7149 80.1744 15.9823 79.892 16.3226C79.6096 16.6532 79.3743 17.0373 79.186 17.4749C79.0072 17.9125 78.866 18.3695 78.7625 18.846C78.6589 19.3224 78.5836 19.8038 78.5365 20.29C78.4989 20.7664 78.4801 21.2186 78.4801 21.6464C78.4801 22.0743 78.4989 22.5313 78.5365 23.0175C78.5836 23.5037 78.6589 23.985 78.7625 24.4615C78.866 24.938 79.0072 25.395 79.186 25.8326C79.3743 26.2701 79.6096 26.6591 79.892 26.9994C80.1744 27.33 80.5133 27.5974 80.9086 27.8016C81.304 27.9961 81.7699 28.0933 82.3065 28.0933C82.7959 28.0933 83.2289 27.9912 83.6054 27.787C83.9914 27.5731 84.3255 27.2911 84.6079 26.9411C84.8997 26.591 85.1445 26.1923 85.3421 25.745C85.5398 25.2977 85.6998 24.8359 85.8222 24.3594C85.9446 23.8829 86.034 23.4113 86.0905 22.9446C86.147 22.4681 86.1752 22.0354 86.1752 21.6464Z" fill="#7556F1"/>
<path d="M112.6 21.7048C112.6 22.93 112.421 24.0774 112.063 25.147C111.705 26.2166 111.188 27.1501 110.51 27.9475C109.832 28.7351 109.004 29.3574 108.025 29.8145C107.046 30.2715 105.935 30.5 104.693 30.5C104.062 30.5 103.46 30.4028 102.885 30.2083C102.321 30.0138 101.798 29.7415 101.318 29.3915C100.847 29.0317 100.429 28.6039 100.061 28.1079C99.7038 27.612 99.4214 27.0578 99.2143 26.4452L97.0964 30.1062H95.2608V7.06068H100.033V15.2725C100.598 14.4654 101.276 13.8722 102.066 13.493C102.867 13.1138 103.742 12.9242 104.693 12.9242C105.935 12.9242 107.046 13.1527 108.025 13.6097C109.004 14.0667 109.832 14.689 110.51 15.4767C111.188 16.2643 111.705 17.1929 112.063 18.2625C112.421 19.3322 112.6 20.4796 112.6 21.7048ZM107.757 21.7048C107.757 21.2769 107.733 20.8248 107.686 20.3483C107.648 19.8621 107.578 19.3808 107.474 18.9043C107.371 18.4278 107.225 17.9708 107.036 17.5333C106.858 17.0957 106.627 16.7116 106.345 16.381C106.062 16.0406 105.723 15.7732 105.328 15.5788C104.933 15.3746 104.467 15.2725 103.93 15.2725C103.441 15.2725 103.003 15.3794 102.617 15.5933C102.241 15.7976 101.906 16.0747 101.615 16.4247C101.332 16.7748 101.092 17.1735 100.895 17.6208C100.697 18.0681 100.537 18.53 100.414 19.0064C100.292 19.4829 100.203 19.9545 100.146 20.4212C100.09 20.888 100.061 21.3158 100.061 21.7048C100.061 22.1424 100.08 22.6042 100.118 23.0904C100.165 23.5766 100.24 24.0628 100.344 24.549C100.447 25.0255 100.589 25.4825 100.767 25.9201C100.956 26.3479 101.191 26.732 101.473 27.0723C101.765 27.403 102.109 27.6655 102.504 27.86C102.909 28.0545 103.384 28.1517 103.93 28.1517C104.457 28.1517 104.919 28.0545 105.314 27.86C105.719 27.6558 106.062 27.3884 106.345 27.0578C106.627 26.7174 106.858 26.3285 107.036 25.8909C107.225 25.4436 107.371 24.9817 107.474 24.5053C107.578 24.0288 107.648 23.5523 107.686 23.0758C107.733 22.5897 107.757 22.1326 107.757 21.7048Z" fill="#7556F1"/>
<path d="M120.739 30.1062H115.967V5.5H117.802L120.739 10.6196V30.1062Z" fill="#7556F1"/>
<path d="M128.935 22.1132C129.519 22.2493 130.102 22.3563 130.686 22.4341C131.27 22.5119 131.858 22.5508 132.451 22.5508C133.072 22.5508 133.646 22.4924 134.174 22.3757C134.71 22.2493 135.171 22.0451 135.557 21.7631C135.953 21.4714 136.263 21.0873 136.489 20.6109C136.715 20.1344 136.828 19.5412 136.828 18.8314C136.828 18.2577 136.753 17.7326 136.602 17.2561C136.452 16.7797 136.226 16.3713 135.924 16.0309C135.633 15.6906 135.27 15.428 134.837 15.2433C134.404 15.0488 133.901 14.9516 133.326 14.9516C132.79 14.9516 132.305 15.0537 131.872 15.2579C131.449 15.4621 131.072 15.7392 130.743 16.0893C130.423 16.4296 130.145 16.8283 129.91 17.2853C129.684 17.7423 129.495 18.2188 129.345 18.7147C129.194 19.2106 129.086 19.7114 129.02 20.217C128.954 20.7227 128.921 21.1991 128.921 21.6464C128.921 21.7242 128.921 21.802 128.921 21.8798C128.921 21.9576 128.926 22.0354 128.935 22.1132ZM140.697 18.7876C140.697 19.478 140.589 20.0955 140.372 20.64C140.156 21.1748 139.859 21.6464 139.483 22.0548C139.115 22.4632 138.687 22.8084 138.198 23.0904C137.708 23.3724 137.186 23.6058 136.63 23.7905C136.075 23.9656 135.501 24.092 134.908 24.1698C134.324 24.2476 133.755 24.2865 133.199 24.2865C132.493 24.2865 131.797 24.2378 131.11 24.1406C130.423 24.0336 129.745 23.8683 129.076 23.6447C129.18 24.2865 129.345 24.8991 129.571 25.4825C129.797 26.0562 130.098 26.5618 130.474 26.9994C130.851 27.4273 131.312 27.7676 131.858 28.0204C132.413 28.2732 133.068 28.3997 133.821 28.3997C134.32 28.3997 134.795 28.3219 135.247 28.1663C135.699 28.0107 136.113 27.7919 136.489 27.5099C136.866 27.2279 137.195 26.8925 137.478 26.5035C137.769 26.1145 138.005 25.6818 138.184 25.2054L140.245 25.993C139.934 26.7612 139.506 27.4273 138.96 27.9912C138.424 28.5455 137.812 29.0074 137.125 29.3769C136.447 29.7367 135.722 30.0041 134.95 30.1791C134.188 30.3541 133.43 30.4417 132.677 30.4417C131.434 30.4417 130.286 30.2277 129.232 29.7999C128.178 29.3623 127.269 28.7546 126.507 27.9767C125.744 27.1988 125.147 26.2701 124.714 25.1908C124.281 24.1114 124.064 22.93 124.064 21.6464C124.064 20.3629 124.281 19.1814 124.714 18.1021C125.147 17.0228 125.744 16.0941 126.507 15.3162C127.269 14.5383 128.178 13.9354 129.232 13.5076C130.286 13.07 131.434 12.8512 132.677 12.8512C133.279 12.8512 133.896 12.895 134.527 12.9825C135.157 13.07 135.769 13.211 136.362 13.4055C136.955 13.5902 137.515 13.8333 138.042 14.1348C138.569 14.4362 139.026 14.8106 139.412 15.2579C139.807 15.6954 140.118 16.206 140.344 16.7894C140.579 17.3728 140.697 18.0389 140.697 18.7876Z" fill="#7556F1"/>
<path d="M158 24.724C158 25.463 157.896 26.1194 157.689 26.6931C157.482 27.2668 157.2 27.7676 156.842 28.1954C156.485 28.6136 156.061 28.9685 155.571 29.2602C155.082 29.5422 154.555 29.7707 153.99 29.9457C153.435 30.1208 152.851 30.2472 152.239 30.325C151.627 30.4028 151.02 30.4417 150.418 30.4417C149.608 30.4417 148.893 30.3882 148.272 30.2812C147.65 30.1743 147.057 30.0041 146.493 29.7707C145.928 29.5276 145.363 29.2165 144.798 28.8372C144.243 28.458 143.622 27.9961 142.934 27.4516L145.716 25.1033C145.97 25.5992 146.304 26.0513 146.719 26.4597C147.142 26.8584 147.58 27.2036 148.032 27.4953C148.483 27.787 148.921 28.0107 149.345 28.1663C149.768 28.3219 150.112 28.3997 150.375 28.3997C150.592 28.3997 150.837 28.3948 151.11 28.3851C151.383 28.3656 151.66 28.3364 151.943 28.2976C152.225 28.2489 152.503 28.1809 152.776 28.0933C153.049 28.0058 153.289 27.8891 153.496 27.7433C153.712 27.5877 153.882 27.3981 154.004 27.1744C154.136 26.9411 154.202 26.6639 154.202 26.3431C154.202 26.0124 154.117 25.7256 153.948 25.4825C153.788 25.2297 153.576 25.0109 153.312 24.8261C153.049 24.6414 152.748 24.4858 152.409 24.3594C152.07 24.233 151.726 24.1212 151.378 24.0239C151.039 23.9267 150.71 23.844 150.39 23.776C150.07 23.6982 149.792 23.6252 149.557 23.5572C149.124 23.4308 148.667 23.3044 148.187 23.1779C147.707 23.0418 147.232 22.8911 146.761 22.7258C146.29 22.5508 145.838 22.3466 145.405 22.1132C144.982 21.8798 144.605 21.6027 144.276 21.2818C143.956 20.9512 143.697 20.5671 143.499 20.1295C143.311 19.6822 143.217 19.162 143.217 18.5688C143.217 17.4798 143.424 16.5706 143.838 15.8413C144.262 15.1023 144.817 14.514 145.504 14.0764C146.191 13.6291 146.973 13.3131 147.848 13.1284C148.723 12.9436 149.613 12.8512 150.517 12.8512C151.138 12.8512 151.792 12.9193 152.479 13.0554C153.166 13.1818 153.835 13.3763 154.484 13.6389C155.134 13.8917 155.741 14.2028 156.306 14.5723C156.87 14.9419 157.341 15.3648 157.718 15.8413L154.936 18.2042C154.729 17.6208 154.456 17.12 154.117 16.7019C153.788 16.2837 153.425 15.9434 153.03 15.6809C152.644 15.4086 152.244 15.2093 151.83 15.0828C151.425 14.9564 151.049 14.8932 150.7 14.8932C150.361 14.8932 149.98 14.9078 149.557 14.937C149.133 14.9662 148.733 15.0488 148.356 15.1849C147.989 15.3211 147.674 15.5301 147.41 15.8121C147.156 16.0844 147.029 16.4636 147.029 16.9498C147.029 17.2999 147.104 17.6013 147.255 17.8541C147.415 18.0972 147.622 18.3112 147.876 18.4959C148.13 18.6709 148.418 18.8217 148.738 18.9481C149.067 19.0648 149.401 19.1717 149.74 19.269C150.079 19.3565 150.408 19.4343 150.728 19.5023C151.049 19.5704 151.336 19.6433 151.59 19.7211C152.023 19.8475 152.479 19.9788 152.959 20.1149C153.449 20.2413 153.929 20.3921 154.4 20.5671C154.87 20.7324 155.322 20.9317 155.755 21.1651C156.197 21.3888 156.583 21.6659 156.913 21.9965C157.242 22.3271 157.506 22.7161 157.703 23.1634C157.901 23.6009 158 24.1212 158 24.724Z" fill="#7556F1"/>
<defs>
<linearGradient id="paint0_linear_1397_7708" x1="-30.8562" y1="-6.03767" x2="19.2432" y2="26.1519" gradientUnits="userSpaceOnUse">
<stop stop-color="white" stop-opacity="0"/>
<stop offset="1" stop-color="#7556F1"/>
</linearGradient>
<linearGradient id="paint1_linear_1397_7708" x1="21.9844" y1="77.7562" x2="9.79111" y2="17.154" gradientUnits="userSpaceOnUse">
<stop stop-color="white" stop-opacity="0"/>
<stop offset="1" stop-color="#7556F1"/>
</linearGradient>
<linearGradient id="paint2_linear_1397_7708" x1="26.5911" y1="16.1824" x2="-33.6283" y2="7.66992" gradientUnits="userSpaceOnUse">
<stop stop-color="#7556F1"/>
<stop offset="1" stop-color="white" stop-opacity="0"/>
</linearGradient>
<clipPath id="clip0_1397_7708">
<rect width="42" height="36" fill="white"/>
</clipPath>
</defs>
</svg>
