<svg width="158" height="36" viewBox="0 0 158 36" fill="none" xmlns="http://www.w3.org/2000/svg">
<g clip-path="url(#clip0_1393_8023)">
<path d="M29.5611 33.4991C29.3704 32.4461 26.2553 18.3181 8.05249 30.362C8.66702 27.9049 9.84993 25.8401 11.7783 24.0631C13.787 22.0737 16.2745 20.9287 18.9021 20.4461C18.9657 20.468 19.4319 20.5558 19.8981 20.6435C20.3855 20.7313 20.8941 20.8629 21.3603 20.9945C23.0555 21.4772 24.6236 22.3985 25.9375 23.6271C31.7225 29.0457 29.5611 33.4991 29.5611 33.4991Z" fill="url(#paint0_linear_1393_8023)"/>
<path d="M22.5045 16.4534C22.4622 16.5192 22.2926 16.7166 22.2503 16.7605L20.3431 16.7825L19.8769 16.8044L19.4107 16.8263L18.8809 16.8483L18.1604 16.8921L16.2533 17.0018C16.1897 17.0018 16.1261 17.0238 16.0626 17.0676C15.999 17.1115 15.9566 17.1554 15.9354 17.2212C15.8718 17.3748 15.8295 17.5503 15.8295 17.7258C15.8295 18.011 15.9142 18.2962 16.0626 18.5375C16.2533 18.8666 16.5076 19.1737 16.8042 19.4589C16.889 19.5247 16.9526 19.5905 16.995 19.6563C17.0161 19.6783 17.1009 19.7441 17.1433 19.766C17.1857 19.7879 17.2281 19.8099 17.2492 19.8538C17.3128 19.8976 17.3976 19.9415 17.4823 19.9854C17.6095 20.0512 17.7578 20.117 17.9062 20.1828L18.1393 20.2706L18.2452 20.3144C18.33 20.3583 18.4359 20.3803 18.5419 20.4241C18.5843 20.4461 18.6266 20.4461 18.6902 20.468C18.7538 20.49 18.7962 20.5119 18.8597 20.5119C18.6478 20.5558 18.4147 20.5996 18.2028 20.6435C15.6811 21.2358 13.5094 22.4029 11.687 24.1579C7.48532 25.7764 4.1087 31.5069 4.1087 36C-0.532071 26.2815 2.35217 21.192 5.29768 18.6472C2.75479 19.9196 0.847629 22.0914 0 24.6801C0.127144 22.0695 0.932392 19.5466 2.33098 17.287C3.72957 15.0494 5.65792 13.1408 8.01009 11.7587C8.13724 11.7587 8.37033 11.7148 8.49748 11.7148C10.108 11.7148 11.6549 12 13.1171 12.6581C14.0071 13.075 22.3138 16.4973 22.5045 16.4534Z" fill="url(#paint1_linear_1393_8023)"/>
<path d="M42 21.521C42 23.6051 41.6821 25.6892 41.0464 27.6856C40.5166 29.3309 39.3723 31.5686 38.2916 33.2358C38.3552 33.0603 40.5802 25.7331 39.2028 23.1883C39.2028 23.1664 39.1816 23.1444 39.1816 23.1225C39.1392 23.0128 39.0968 22.9031 39.0333 22.7934C39.0121 22.7057 38.9909 22.6399 38.9909 22.6399L39.3088 22.8154L39.9021 23.1444L40.4742 23.4516C40.4742 23.4296 40.4742 23.4077 40.4954 23.3857C40.6861 22.3327 40.4531 21.3236 40.0716 20.4461C39.563 19.3053 38.8002 18.34 38.3552 17.7038C37.5287 16.5411 38.3552 16.0585 38.3552 16.0585C37.444 15.0932 35.7275 15.4004 35.7275 15.4004C35.7275 15.4004 35.7275 14.6326 35.6851 14.3035C35.6639 14.0183 35.6004 13.7331 35.5368 13.4698C35.2189 12.0219 34.0746 9.80622 33.4389 9.01646L33.0151 10.3547L31.7225 14.3693C31.7013 14.2596 31.0444 11.3638 29.0948 9.93785L28.0989 13.3382L27.7748 14.381L27.6652 14.4L23.3521 15.5101C23.3098 15.5101 23.2038 15.5101 23.1614 15.532C23.0555 15.5759 23.0131 15.6198 22.9495 15.7294L22.5469 16.3876C22.5045 16.4534 22.335 16.6508 22.2926 16.7166C22.229 16.7166 20.7881 16.585 20.5126 16.5192C19.1352 16.256 17.8002 15.7075 16.5923 14.9397C16.0625 14.6106 15.5963 14.3035 15.554 14.2815C12.7568 12.0658 9.55699 11.5832 7.98887 11.7806C6.35563 11.8296 5.11302 12.1263 3.37823 12.8842C4.19997 10.1368 6.75535 7.21706 8.39997 5.77893C11.2183 3.3219 14.558 1.9086 18.4147 1.75504C19.9192 1.62341 23.3098 2.12798 25.2593 2.8958C24.3269 2.23767 23.3098 1.68922 22.2502 1.25046C20.6821 0.592329 19.0292 0.197448 17.334 0.0438831C21.6145 -0.219371 26.1069 0.723956 29.222 2.17185C30.6841 2.85193 32.0615 3.72944 33.3542 4.65083C35.6004 6.25229 37.338 8.24864 38.7366 10.4644C38.7366 10.4644 38.7366 10.4644 38.7366 10.4863C40.8769 13.7989 42 17.638 42 21.521Z" fill="url(#paint2_linear_1393_8023)"/>
<path d="M3.37823 12.8842C5.20432 12.1263 6.48258 11.8421 7.96768 11.8026C9.5358 11.6051 12.7356 12.0878 15.5328 14.2816C15.5963 14.3254 16.0413 14.6106 16.5711 14.9397C17.0373 15.2249 17.5035 15.4881 17.9909 15.7075C17.8426 15.7075 17.673 15.6856 17.5247 15.6856C4.59836 15.3565 4.10867 33.6018 4.10867 35.9052C5.12582 26.7133 11.6869 24.1579 11.6869 24.1579C13.4881 22.4028 15.7023 21.2578 18.224 20.6655C18.4359 20.6216 18.8173 20.5338 19.0504 20.49C17.7897 20.0549 16.8161 19.6847 16.0837 18.4717C15.9354 18.2304 15.8506 17.9452 15.8506 17.66C15.8506 17.4845 15.8869 17.1474 16.0695 17.0526C16.5261 16.9579 18.0476 16.8859 18.4435 16.8632L20.6348 16.7684H22.2782C22.3059 16.7494 22.5521 16.3968 22.5521 16.3895L22.9695 15.7075C23.0542 15.5759 23.3315 15.5369 23.3739 15.5369L27.7645 14.3756C27.4826 13.7368 11.8781 2.12919 3.37823 12.8842Z" fill="url(#paint3_linear_1393_8023)"/>
</g>
<path d="M63.6054 30.1062H58V9.10268H72.5996V11.7865H63.6054V18.2771H70.5522V20.9463H63.6054V30.1062Z" fill="white"/>
<path d="M90.9758 30.1062H86.2034V28.0933C85.6387 28.8907 84.9562 29.4839 84.1561 29.8728C83.3654 30.252 82.4947 30.4417 81.544 30.4417C80.3015 30.4417 79.1907 30.2131 78.2118 29.7561C77.2328 29.2991 76.4045 28.6768 75.7268 27.8891C75.049 27.0918 74.5313 26.1583 74.1736 25.0887C73.8159 24.0191 73.6371 22.8716 73.6371 21.6464C73.6371 20.4212 73.8159 19.2738 74.1736 18.2042C74.5313 17.1346 75.049 16.206 75.7268 15.4183C76.4045 14.621 77.2328 13.9938 78.2118 13.5368C79.1907 13.0797 80.3015 12.8512 81.544 12.8512C82.1747 12.8512 82.7724 12.9485 83.3372 13.1429C83.9114 13.3374 84.4338 13.6145 84.9044 13.9743C85.3845 14.3244 85.8034 14.7522 86.1611 15.2579C86.5282 15.7538 86.8153 16.3081 87.0224 16.9207L89.1403 13.2596H90.9758V30.1062ZM86.1752 21.6464C86.1752 21.2089 86.1517 20.747 86.1046 20.2608C86.0669 19.7746 85.9963 19.2933 85.8928 18.8168C85.7893 18.3403 85.6434 17.8882 85.4551 17.4603C85.2763 17.0228 85.0409 16.6387 84.7491 16.3081C84.4667 15.9677 84.1232 15.7003 83.7184 15.5058C83.3136 15.3114 82.843 15.2141 82.3065 15.2141C81.7699 15.2141 81.304 15.3162 80.9086 15.5204C80.5133 15.7149 80.1744 15.9823 79.892 16.3226C79.6096 16.6532 79.3743 17.0373 79.186 17.4749C79.0072 17.9125 78.866 18.3695 78.7625 18.846C78.6589 19.3224 78.5836 19.8038 78.5365 20.29C78.4989 20.7664 78.4801 21.2186 78.4801 21.6464C78.4801 22.0743 78.4989 22.5313 78.5365 23.0175C78.5836 23.5037 78.6589 23.985 78.7625 24.4615C78.866 24.938 79.0072 25.395 79.186 25.8326C79.3743 26.2701 79.6096 26.6591 79.892 26.9994C80.1744 27.33 80.5133 27.5974 80.9086 27.8016C81.304 27.9961 81.7699 28.0933 82.3065 28.0933C82.7959 28.0933 83.2289 27.9912 83.6054 27.787C83.9914 27.5731 84.3255 27.2911 84.6079 26.9411C84.8997 26.591 85.1445 26.1923 85.3421 25.745C85.5398 25.2977 85.6998 24.8359 85.8222 24.3594C85.9446 23.8829 86.034 23.4113 86.0905 22.9446C86.147 22.4681 86.1752 22.0354 86.1752 21.6464Z" fill="white"/>
<path d="M112.6 21.7048C112.6 22.93 112.421 24.0774 112.063 25.147C111.705 26.2166 111.188 27.1501 110.51 27.9475C109.832 28.7351 109.004 29.3574 108.025 29.8145C107.046 30.2715 105.935 30.5 104.693 30.5C104.062 30.5 103.46 30.4028 102.885 30.2083C102.321 30.0138 101.798 29.7415 101.318 29.3915C100.847 29.0317 100.429 28.6039 100.061 28.1079C99.7038 27.612 99.4214 27.0578 99.2143 26.4452L97.0964 30.1062H95.2608V7.06068H100.033V15.2725C100.598 14.4654 101.276 13.8722 102.066 13.493C102.867 13.1138 103.742 12.9242 104.693 12.9242C105.935 12.9242 107.046 13.1527 108.025 13.6097C109.004 14.0667 109.832 14.689 110.51 15.4767C111.188 16.2643 111.705 17.1929 112.063 18.2625C112.421 19.3322 112.6 20.4796 112.6 21.7048ZM107.757 21.7048C107.757 21.2769 107.733 20.8248 107.686 20.3483C107.648 19.8621 107.578 19.3808 107.474 18.9043C107.371 18.4278 107.225 17.9708 107.036 17.5333C106.858 17.0957 106.627 16.7116 106.345 16.381C106.062 16.0406 105.723 15.7732 105.328 15.5788C104.933 15.3746 104.467 15.2725 103.93 15.2725C103.441 15.2725 103.003 15.3794 102.617 15.5933C102.241 15.7976 101.906 16.0747 101.615 16.4247C101.332 16.7748 101.092 17.1735 100.895 17.6208C100.697 18.0681 100.537 18.53 100.414 19.0064C100.292 19.4829 100.203 19.9545 100.146 20.4212C100.09 20.888 100.061 21.3158 100.061 21.7048C100.061 22.1424 100.08 22.6042 100.118 23.0904C100.165 23.5766 100.24 24.0628 100.344 24.549C100.447 25.0255 100.589 25.4825 100.767 25.9201C100.956 26.3479 101.191 26.732 101.473 27.0723C101.765 27.403 102.109 27.6655 102.504 27.86C102.909 28.0545 103.384 28.1517 103.93 28.1517C104.457 28.1517 104.919 28.0545 105.314 27.86C105.719 27.6558 106.062 27.3884 106.345 27.0578C106.627 26.7174 106.858 26.3285 107.036 25.8909C107.225 25.4436 107.371 24.9817 107.474 24.5053C107.578 24.0288 107.648 23.5523 107.686 23.0758C107.733 22.5897 107.757 22.1326 107.757 21.7048Z" fill="white"/>
<path d="M120.739 30.1062H115.967V5.5H117.802L120.739 10.6196V30.1062Z" fill="white"/>
<path d="M128.935 22.1132C129.519 22.2493 130.102 22.3563 130.686 22.4341C131.27 22.5119 131.858 22.5508 132.451 22.5508C133.072 22.5508 133.646 22.4924 134.174 22.3757C134.71 22.2493 135.171 22.0451 135.557 21.7631C135.953 21.4714 136.263 21.0873 136.489 20.6109C136.715 20.1344 136.828 19.5412 136.828 18.8314C136.828 18.2577 136.753 17.7326 136.602 17.2561C136.452 16.7797 136.226 16.3713 135.924 16.0309C135.633 15.6906 135.27 15.428 134.837 15.2433C134.404 15.0488 133.901 14.9516 133.326 14.9516C132.79 14.9516 132.305 15.0537 131.872 15.2579C131.449 15.4621 131.072 15.7392 130.743 16.0893C130.423 16.4296 130.145 16.8283 129.91 17.2853C129.684 17.7423 129.495 18.2188 129.345 18.7147C129.194 19.2106 129.086 19.7114 129.02 20.217C128.954 20.7227 128.921 21.1991 128.921 21.6464C128.921 21.7242 128.921 21.802 128.921 21.8798C128.921 21.9576 128.926 22.0354 128.935 22.1132ZM140.697 18.7876C140.697 19.478 140.589 20.0955 140.372 20.64C140.156 21.1748 139.859 21.6464 139.483 22.0548C139.115 22.4632 138.687 22.8084 138.198 23.0904C137.708 23.3724 137.186 23.6058 136.63 23.7905C136.075 23.9656 135.501 24.092 134.908 24.1698C134.324 24.2476 133.755 24.2865 133.199 24.2865C132.493 24.2865 131.797 24.2378 131.11 24.1406C130.423 24.0336 129.745 23.8683 129.076 23.6447C129.18 24.2865 129.345 24.8991 129.571 25.4825C129.797 26.0562 130.098 26.5618 130.474 26.9994C130.851 27.4273 131.312 27.7676 131.858 28.0204C132.413 28.2732 133.068 28.3997 133.821 28.3997C134.32 28.3997 134.795 28.3219 135.247 28.1663C135.699 28.0107 136.113 27.7919 136.489 27.5099C136.866 27.2279 137.195 26.8925 137.478 26.5035C137.769 26.1145 138.005 25.6818 138.184 25.2054L140.245 25.993C139.934 26.7612 139.506 27.4273 138.96 27.9912C138.424 28.5455 137.812 29.0074 137.125 29.3769C136.447 29.7367 135.722 30.0041 134.95 30.1791C134.188 30.3541 133.43 30.4417 132.677 30.4417C131.434 30.4417 130.286 30.2277 129.232 29.7999C128.178 29.3623 127.269 28.7546 126.507 27.9767C125.744 27.1988 125.147 26.2701 124.714 25.1908C124.281 24.1114 124.064 22.93 124.064 21.6464C124.064 20.3629 124.281 19.1814 124.714 18.1021C125.147 17.0228 125.744 16.0941 126.507 15.3162C127.269 14.5383 128.178 13.9354 129.232 13.5076C130.286 13.07 131.434 12.8512 132.677 12.8512C133.279 12.8512 133.896 12.895 134.527 12.9825C135.157 13.07 135.769 13.211 136.362 13.4055C136.955 13.5902 137.515 13.8333 138.042 14.1348C138.569 14.4362 139.026 14.8106 139.412 15.2579C139.807 15.6954 140.118 16.206 140.344 16.7894C140.579 17.3728 140.697 18.0389 140.697 18.7876Z" fill="white"/>
<path d="M158 24.724C158 25.463 157.896 26.1194 157.689 26.6931C157.482 27.2668 157.2 27.7676 156.842 28.1954C156.485 28.6136 156.061 28.9685 155.571 29.2602C155.082 29.5422 154.555 29.7707 153.99 29.9457C153.435 30.1208 152.851 30.2472 152.239 30.325C151.627 30.4028 151.02 30.4417 150.418 30.4417C149.608 30.4417 148.893 30.3882 148.272 30.2812C147.65 30.1743 147.057 30.0041 146.493 29.7707C145.928 29.5276 145.363 29.2165 144.798 28.8372C144.243 28.458 143.622 27.9961 142.934 27.4516L145.716 25.1033C145.97 25.5992 146.304 26.0513 146.719 26.4597C147.142 26.8584 147.58 27.2036 148.032 27.4953C148.483 27.787 148.921 28.0107 149.345 28.1663C149.768 28.3219 150.112 28.3997 150.375 28.3997C150.592 28.3997 150.837 28.3948 151.11 28.3851C151.383 28.3656 151.66 28.3364 151.943 28.2976C152.225 28.2489 152.503 28.1809 152.776 28.0933C153.049 28.0058 153.289 27.8891 153.496 27.7433C153.712 27.5877 153.882 27.3981 154.004 27.1744C154.136 26.9411 154.202 26.6639 154.202 26.3431C154.202 26.0124 154.117 25.7256 153.948 25.4825C153.788 25.2297 153.576 25.0109 153.312 24.8261C153.049 24.6414 152.748 24.4858 152.409 24.3594C152.07 24.233 151.726 24.1212 151.378 24.0239C151.039 23.9267 150.71 23.844 150.39 23.776C150.07 23.6982 149.792 23.6252 149.557 23.5572C149.124 23.4308 148.667 23.3044 148.187 23.1779C147.707 23.0418 147.232 22.8911 146.761 22.7258C146.29 22.5508 145.838 22.3466 145.405 22.1132C144.982 21.8798 144.605 21.6027 144.276 21.2818C143.956 20.9512 143.697 20.5671 143.499 20.1295C143.311 19.6822 143.217 19.162 143.217 18.5688C143.217 17.4798 143.424 16.5706 143.838 15.8413C144.262 15.1023 144.817 14.514 145.504 14.0764C146.191 13.6291 146.973 13.3131 147.848 13.1284C148.723 12.9436 149.613 12.8512 150.517 12.8512C151.138 12.8512 151.792 12.9193 152.479 13.0554C153.166 13.1818 153.835 13.3763 154.484 13.6389C155.134 13.8917 155.741 14.2028 156.306 14.5723C156.87 14.9419 157.341 15.3648 157.718 15.8413L154.936 18.2042C154.729 17.6208 154.456 17.12 154.117 16.7019C153.788 16.2837 153.425 15.9434 153.03 15.6809C152.644 15.4086 152.244 15.2093 151.83 15.0828C151.425 14.9564 151.049 14.8932 150.7 14.8932C150.361 14.8932 149.98 14.9078 149.557 14.937C149.133 14.9662 148.733 15.0488 148.356 15.1849C147.989 15.3211 147.674 15.5301 147.41 15.8121C147.156 16.0844 147.029 16.4636 147.029 16.9498C147.029 17.2999 147.104 17.6013 147.255 17.8541C147.415 18.0972 147.622 18.3112 147.876 18.4959C148.13 18.6709 148.418 18.8217 148.738 18.9481C149.067 19.0648 149.401 19.1717 149.74 19.269C150.079 19.3565 150.408 19.4343 150.728 19.5023C151.049 19.5704 151.336 19.6433 151.59 19.7211C152.023 19.8475 152.479 19.9788 152.959 20.1149C153.449 20.2413 153.929 20.3921 154.4 20.5671C154.87 20.7324 155.322 20.9317 155.755 21.1651C156.197 21.3888 156.583 21.6659 156.913 21.9965C157.242 22.3271 157.506 22.7161 157.703 23.1634C157.901 23.6009 158 24.1212 158 24.724Z" fill="white"/>
<defs>
<linearGradient id="paint0_linear_1393_8023" x1="12.1088" y1="23.5137" x2="27.2109" y2="58.7193" gradientUnits="userSpaceOnUse">
<stop stop-color="white"/>
<stop offset="1" stop-color="#7556F1" stop-opacity="0"/>
</linearGradient>
<linearGradient id="paint1_linear_1393_8023" x1="0.748227" y1="11.6789" x2="60.731" y2="-21.7957" gradientUnits="userSpaceOnUse">
<stop stop-color="white"/>
<stop offset="1" stop-color="#7556F1" stop-opacity="0"/>
</linearGradient>
<linearGradient id="paint2_linear_1393_8023" x1="136.066" y1="71.5971" x2="21.479" y2="-0.674973" gradientUnits="userSpaceOnUse">
<stop stop-color="#7556F1" stop-opacity="0"/>
<stop offset="1" stop-color="white"/>
</linearGradient>
<linearGradient id="paint3_linear_1393_8023" x1="-9.51462" y1="-7.77904" x2="51.3107" y2="-0.916452" gradientUnits="userSpaceOnUse">
<stop stop-color="white"/>
<stop offset="1" stop-color="#7657F2" stop-opacity="0"/>
</linearGradient>
<clipPath id="clip0_1393_8023">
<rect width="42" height="36" fill="white"/>
</clipPath>
</defs>
</svg>
