<svg width="20" height="20" viewBox="0 0 20 20" fill="none" xmlns="http://www.w3.org/2000/svg">
<path fill-rule="evenodd" clip-rule="evenodd" d="M11.0833 10H10V11.0833C10 11.6792 9.5125 12.1667 8.91667 12.1667C8.32083 12.1667 7.83333 11.6792 7.83333 11.0833V10H6.75C6.15417 10 5.66667 9.5125 5.66667 8.91667C5.66667 8.32083 6.15417 7.83333 6.75 7.83333H7.83333V6.75C7.83333 6.15417 8.32083 5.66667 8.91667 5.66667C9.5125 5.66667 10 6.15417 10 6.75V7.83333H11.0833C11.6792 7.83333 12.1667 8.32083 12.1667 8.91667C12.1667 9.5125 11.6792 10 11.0833 10M19.4326 17.9007L15.7547 14.2218C16.8954 12.7549 17.5833 10.9165 17.5833 8.91667C17.5833 4.13808 13.6953 0.25 8.91667 0.25C4.13808 0.25 0.25 4.13808 0.25 8.91667C0.25 13.6953 4.13808 17.5833 8.91667 17.5833C10.9165 17.5833 12.7549 16.8954 14.2218 15.7547L17.9007 19.4326C18.112 19.6438 18.3893 19.75 18.6667 19.75C18.944 19.75 19.2213 19.6438 19.4326 19.4326C19.8562 19.009 19.8562 18.3243 19.4326 17.9007" fill="white"/>
</svg>
