<svg width="18" height="18" viewBox="0 0 18 18" fill="none" xmlns="http://www.w3.org/2000/svg">
<path d="M8.08255 2.49073C8.4307 1.68785 9.5693 1.68785 9.91745 2.49073L11.2091 5.46946C11.354 5.80361 11.6692 6.03256 12.0317 6.06711L15.2638 6.37509C16.135 6.45811 16.4868 7.54098 15.8308 8.1202L13.397 10.2691C13.124 10.5102 13.0037 10.8806 13.0828 11.2362L13.7887 14.4052C13.979 15.2594 13.0578 15.9287 12.3042 15.4838L9.50839 13.8331C9.19475 13.648 8.80525 13.648 8.49161 13.8331L5.69576 15.4838C4.94218 15.9287 4.02104 15.2594 4.21129 14.4052L4.91715 11.2362C4.99634 10.8806 4.87597 10.5102 4.60295 10.2691L2.16916 8.12019C1.51316 7.54097 1.86501 6.45811 2.73618 6.37509L5.96827 6.06711C6.33085 6.03256 6.64597 5.80361 6.79087 5.46946L8.08255 2.49073Z" fill="#A6A9B5"/>
</svg>
