<svg width="50" height="50" viewBox="0 0 50 50" fill="none" xmlns="http://www.w3.org/2000/svg">
<g clip-path="url(#clip0_1274_16008)">
<path d="M41.5323 0C39.5315 0 37.9032 1.62826 37.9032 3.62903C37.9032 4.95802 38.629 6.1106 39.6977 6.74261L33.6961 12.7445C33.2768 11.5388 32.5959 10.4299 31.6662 9.50061C29.7887 7.62349 27.0961 6.71229 24.4653 7.06275L9.92747 9.0017V8.65872C9.92747 7.14269 9.3372 5.71683 8.26455 4.64418C6.3768 2.75721 3.30574 2.75721 1.41759 4.64418C-0.46938 6.53234 -0.46938 9.60339 1.41759 11.4911C3.85663 13.9298 7.22184 15.1257 10.6548 14.7701L14.6047 14.3614L16.8839 29.5556L10.9564 35.4839H6.11769L0 41.6016V43.5484H6.45161V50H8.39844L14.5161 43.8823V39.0436L20.4436 33.1161L35.6378 35.3953L35.2291 39.3452C34.8743 42.7758 36.0694 46.1426 38.5081 48.5824C39.4515 49.5259 40.6919 49.9976 41.9315 49.9976C43.1712 49.9976 44.4111 49.5259 45.355 48.5824C47.242 46.6943 47.242 43.6232 45.355 41.7354C44.2824 40.6628 42.8565 40.0725 41.3405 40.0725H40.9975L42.9365 25.5347C43.2869 22.9031 42.3757 20.2113 40.4982 18.3338C39.5693 17.4041 38.4604 16.7232 37.2547 16.3039L43.2566 10.3023C43.8894 11.371 45.042 12.0968 46.371 12.0968C48.3717 12.0968 50 10.4685 50 8.46774V0L41.5323 0ZM31.7395 19.3871H30.6129V18.2613C30.6129 17.0887 30.2959 15.9668 29.7155 14.9831L32.1356 13.1686C32.4136 13.9282 32.566 14.7355 32.566 15.5687V17.4348H34.4321C35.2563 17.4348 36.0564 17.5848 36.8089 17.8573L34.9968 20.2735C34.0186 19.699 32.9039 19.3871 31.7395 19.3871ZM31.4 11.7034L28.7346 13.7026C28.729 13.6967 28.7243 13.6896 28.7176 13.6837C27.9281 12.8934 26.9638 12.3429 25.9218 12.0452L26.4845 8.66935C27.9966 8.86703 29.4331 9.54669 30.5274 10.641C30.8546 10.9694 31.1468 11.325 31.4 11.7034ZM24.6791 8.66148C24.737 8.654 24.7944 8.65479 24.8523 8.64848L24.3274 11.7959C24.0443 11.7881 23.7604 11.7928 23.4741 11.8227L22.7193 11.9007L23.2272 8.85482L24.6791 8.66148ZM10.4886 13.1663C7.54434 13.4695 4.65245 12.4445 2.55875 10.3508C1.29985 9.09188 1.29985 7.04346 2.55875 5.78456C3.81844 4.52566 5.86607 4.52566 7.12497 5.78456C7.89283 6.55242 8.31535 7.57348 8.31535 8.65872V8.97492C7.22892 8.79497 6.20235 8.28857 5.41205 7.49748L4.27089 8.63706C5.78692 10.1539 7.96371 10.8902 10.0869 10.6063L21.5541 9.0773L21.0548 12.0728L10.4886 13.1663ZM16.2105 14.1952L23.6403 13.4266C25.1032 13.2773 26.5369 13.7845 27.5765 14.8241C28.3128 15.5604 28.7791 16.4937 28.9362 17.5041L18.3023 28.138L16.2105 14.1952ZM12.0184 36.7026L29 19.721V21H30.2789L13.2974 37.9816L11.5927 38.4073L12.0184 36.7026ZM6.78553 37.0968H10.2574L9.85422 38.7097H5.17263L6.78553 37.0968ZM1.94682 41.9355L3.55973 40.3226H8.53705L6.92414 41.9355H1.94682ZM8.06452 48.0532V43.0759L9.67742 41.463V46.4403L8.06452 48.0532ZM11.2903 44.8274V40.1458L12.9032 39.7425V43.2145L11.2903 44.8274ZM36.5734 26.3597L35.8048 33.7895L21.862 31.6985L32.4959 21.0646C33.5063 21.2217 34.4396 21.6872 35.1759 22.4243C36.2155 23.4619 36.725 24.8968 36.5734 26.3597ZM44.2162 42.8758C45.4751 44.1347 45.4751 46.1831 44.2162 47.442C42.9565 48.7009 40.9081 48.7009 39.65 47.442C37.5555 45.3475 36.5297 42.4572 36.8345 39.5122L37.9324 28.9047L40.9282 28.4058L39.3937 39.9131C39.1097 42.0387 39.8469 44.2131 41.3629 45.7291L42.5033 44.5887C41.7122 43.7976 41.2066 42.7726 41.0266 41.6854H41.3421C42.4265 41.6846 43.4476 42.108 44.2162 42.8758ZM38.1773 26.5259C38.208 26.2266 38.2112 25.9289 38.2017 25.634L41.3539 25.1079C41.3468 25.1792 41.3476 25.25 41.3377 25.3209L41.1499 26.7322L38.1033 27.2402L38.1773 26.5259ZM41.3259 23.4773L37.9442 24.0412C37.6437 23.0138 37.0968 22.0628 36.3163 21.2832C36.3049 21.2717 36.2919 21.2623 36.2797 21.2501L38.2765 18.5878C38.662 18.8437 39.0251 19.1387 39.3598 19.4734C40.4435 20.5582 41.1219 21.9797 41.3259 23.4773ZM35.4 15.879C35.0806 15.8435 34.7589 15.8203 34.4329 15.8203H34.1797V15.5671C34.1797 15.2411 34.1572 14.9194 34.121 14.6L41.4692 7.25176C41.4913 7.25255 41.5106 7.25806 41.5323 7.25806H42.7419V8.46774C42.7419 8.4894 42.7474 8.50869 42.7482 8.53075L35.4 15.879ZM48.3871 8.46774C48.3871 9.57897 47.4822 10.4839 46.371 10.4839C45.2597 10.4839 44.3548 9.57897 44.3548 8.46774V5.64516H41.5323C40.421 5.64516 39.5161 4.74027 39.5161 3.62903C39.5161 2.5178 40.421 1.6129 41.5323 1.6129H48.3871V8.46774Z" fill="#A6A9B5"/>
</g>
<defs>
<clipPath id="clip0_1274_16008">
<rect width="50" height="50" fill="white"/>
</clipPath>
</defs>
</svg>
