<svg width="24" height="24" viewBox="0 0 24 24" fill="none" xmlns="http://www.w3.org/2000/svg">
<path d="M18 8C19.6569 8 21 6.65685 21 5C21 3.34315 19.6569 2 18 2C16.3431 2 15 3.34315 15 5C15 6.65685 16.3431 8 18 8Z" fill="#7556F1"/>
<path fill-rule="evenodd" clip-rule="evenodd" d="M17.9999 2.85002C16.8125 2.85002 15.8499 3.81261 15.8499 5.00002C15.8499 6.18744 16.8125 7.15002 17.9999 7.15002C19.1873 7.15002 20.1499 6.18744 20.1499 5.00002C20.1499 3.81261 19.1873 2.85002 17.9999 2.85002ZM14.1499 5.00002C14.1499 2.87373 15.8736 1.15002 17.9999 1.15002C20.1262 1.15002 21.8499 2.87373 21.8499 5.00002C21.8499 7.12632 20.1262 8.85002 17.9999 8.85002C15.8736 8.85002 14.1499 7.12632 14.1499 5.00002Z" fill="#7556F1"/>
<path d="M6 15C7.65685 15 9 13.6569 9 12C9 10.3431 7.65685 9 6 9C4.34315 9 3 10.3431 3 12C3 13.6569 4.34315 15 6 15Z" fill="#7556F1"/>
<path fill-rule="evenodd" clip-rule="evenodd" d="M5.9999 9.85002C4.81249 9.85002 3.8499 10.8126 3.8499 12C3.8499 13.1874 4.81249 14.15 5.9999 14.15C7.18731 14.15 8.1499 13.1874 8.1499 12C8.1499 10.8126 7.18731 9.85002 5.9999 9.85002ZM2.1499 12C2.1499 9.87373 3.87361 8.15002 5.9999 8.15002C8.1262 8.15002 9.8499 9.87373 9.8499 12C9.8499 14.1263 8.1262 15.85 5.9999 15.85C3.87361 15.85 2.1499 14.1263 2.1499 12Z" fill="#7556F1"/>
<path d="M18 22C19.6569 22 21 20.6569 21 19C21 17.3431 19.6569 16 18 16C16.3431 16 15 17.3431 15 19C15 20.6569 16.3431 22 18 22Z" fill="#7556F1"/>
<path fill-rule="evenodd" clip-rule="evenodd" d="M17.9999 16.85C16.8125 16.85 15.8499 17.8126 15.8499 19C15.8499 20.1874 16.8125 21.15 17.9999 21.15C19.1873 21.15 20.1499 20.1874 20.1499 19C20.1499 17.8126 19.1873 16.85 17.9999 16.85ZM14.1499 19C14.1499 16.8737 15.8736 15.15 17.9999 15.15C20.1262 15.15 21.8499 16.8737 21.8499 19C21.8499 21.1263 20.1262 22.85 17.9999 22.85C15.8736 22.85 14.1499 21.1263 14.1499 19Z" fill="#7556F1"/>
<path fill-rule="evenodd" clip-rule="evenodd" d="M7.85548 13.0821C8.09183 12.6765 8.61224 12.5393 9.01784 12.7756L15.8478 16.7556C16.2534 16.992 16.3906 17.5124 16.1543 17.918C15.9179 18.3236 15.3975 18.4608 14.9919 18.2245L8.16193 14.2445C7.75633 14.0081 7.61912 13.4877 7.85548 13.0821Z" fill="#7556F1"/>
<path fill-rule="evenodd" clip-rule="evenodd" d="M16.144 6.08163C16.3806 6.48708 16.2438 7.00757 15.8383 7.24418L9.01831 11.2242C8.61286 11.4608 8.09236 11.3239 7.85575 10.9185C7.61914 10.513 7.75601 9.99253 8.16146 9.75592L14.9815 5.77592C15.3869 5.5393 15.9074 5.67618 16.144 6.08163Z" fill="#7556F1"/>
</svg>
