<svg width="50" height="50" viewBox="0 0 50 50" fill="none" xmlns="http://www.w3.org/2000/svg">
<path d="M44.6282 7.81852C44.4896 7.80113 41.2157 7.41607 39.1357 9.25231C38.2197 10.0608 37.6849 11.1524 37.5402 12.5043C35.944 12.6048 34.3927 13.0736 33.0079 13.874C31.4195 14.7905 30.0864 16.1171 29.0455 17.8171C27.849 19.7717 27.0411 22.2265 26.6407 25.1206C25.6164 25.3588 24.6335 25.7494 23.7251 26.2793C22.1753 27.1691 20.9493 28.5295 20.2247 30.163C19.3128 27.4238 17.9688 23.0537 17.9688 21.0937V19.4588C19.8785 18.5842 21.4393 17.0937 22.4009 15.2263C23.3625 13.3589 23.6692 11.2227 23.272 9.16009C22.8747 7.09753 21.7964 5.22809 20.21 3.85143C18.6236 2.47477 16.6208 1.67064 14.5229 1.56792C12.4249 1.46521 10.3532 2.06987 8.63991 3.28498C6.92658 4.50009 5.67085 6.25527 5.07401 8.26916C4.47717 10.283 4.57378 12.439 5.34837 14.3914C6.12295 16.3439 7.53064 17.9797 9.34579 19.0367L8.59911 27.2496C8.49618 27.9394 7.12186 37.6665 10.9774 43.2719L11.2441 44.8694C11.3904 45.7815 11.8572 46.6115 12.5607 47.2102C13.2643 47.8088 14.1583 48.1369 15.082 48.1353C15.2695 48.1354 15.4569 48.1223 15.6426 48.0962C21.9069 47.2151 35.8149 44.1968 37.9924 34.6601C38.609 35.6246 39.2917 36.5452 40.0354 37.4154C41.2883 38.8822 43.0798 40.625 44.5171 40.625H44.5427C44.7479 40.622 44.9437 40.5384 45.0878 40.3922C45.2319 40.246 45.3126 40.049 45.3126 39.8437V8.59371C45.3126 8.40329 45.243 8.21943 45.117 8.07668C44.991 7.93393 44.8172 7.84213 44.6282 7.81852ZM6.25008 10.9375C6.25008 9.39229 6.70828 7.88183 7.56673 6.59707C8.42518 5.31231 9.64532 4.31096 11.0729 3.71965C12.5004 3.12834 14.0712 2.97363 15.5867 3.27508C17.1022 3.57652 18.4943 4.32059 19.5869 5.41319C20.6795 6.50579 21.4235 7.89784 21.725 9.41332C22.0264 10.9288 21.8717 12.4996 21.2804 13.9272C20.6891 15.3547 19.6877 16.5749 18.403 17.4333C17.1182 18.2918 15.6077 18.75 14.0626 18.75C11.9913 18.7476 10.0055 17.9238 8.54091 16.4591C7.07629 14.9945 6.25244 13.0087 6.25008 10.9375ZM43.7501 38.7546C43.1251 38.364 42.244 37.5954 41.223 36.4002C39.8648 34.8101 38.6682 32.9558 38.24 31.7792C38.0865 31.2766 36.3602 25.8629 33.002 25.0233C32.8016 24.9747 32.5901 25.0074 32.4136 25.1141C32.2372 25.2208 32.1101 25.393 32.0601 25.5931C32.0101 25.7932 32.0412 26.0049 32.1467 26.1821C32.2521 26.3594 32.4234 26.4877 32.6231 26.5391C34.7662 27.075 36.2699 30.6595 36.7165 32.1366C36.6154 42.4518 21.8052 45.6511 15.4244 46.5486C14.8183 46.6375 14.2016 46.4842 13.7077 46.1219C13.2139 45.7596 12.8825 45.2174 12.7853 44.6126L12.4894 42.8401C12.4699 42.7227 12.4237 42.6114 12.3546 42.5146C10.4554 39.8556 9.95174 35.9326 9.86385 33.1093C9.80462 31.2225 9.89933 29.3339 10.1471 27.4625C10.1496 27.4465 10.1515 27.4305 10.1529 27.4144L10.8501 19.7455C12.6324 20.3945 14.5694 20.4888 16.4063 20.0158V21.0937C16.4063 24.134 19.1091 31.774 19.5279 32.9394C19.5057 33.5219 19.3396 35.9879 18.1001 37.8474C18.0425 37.9328 18.0024 38.0286 17.982 38.1296C17.9616 38.2305 17.9614 38.3344 17.9813 38.4354C18.0012 38.5364 18.0409 38.6325 18.098 38.7181C18.1552 38.8037 18.2287 38.8772 18.3144 38.9343C18.4 38.9914 18.4961 39.031 18.5971 39.0509C18.6981 39.0707 18.8021 39.0704 18.903 39.05C19.0039 39.0295 19.0997 38.9893 19.185 38.9317C19.2703 38.8741 19.3434 38.8002 19.4001 38.7142C20.9399 36.4044 21.0798 33.3537 21.0925 32.8778C21.3888 30.5738 22.5248 28.816 24.4705 27.6539C25.3851 27.1093 26.3918 26.7372 27.4407 26.556C27.614 26.5344 27.7751 26.4553 27.8981 26.3314C28.0212 26.2074 28.0992 26.0459 28.1197 25.8724C28.4598 22.9826 29.2091 20.5641 30.3471 18.6842C31.2392 17.2103 32.3733 16.0612 33.718 15.2687C36.0226 13.9105 38.1976 14.0578 38.2165 14.0596C38.3242 14.0686 38.4325 14.0551 38.5347 14.0201C38.6369 13.985 38.7308 13.9292 38.8103 13.856C38.8898 13.7829 38.9533 13.694 38.9967 13.5951C39.0401 13.4961 39.0626 13.3893 39.0626 13.2812C39.0626 12.0187 39.4231 11.0853 40.165 10.4278C41.2277 9.4859 42.8345 9.33717 43.7436 9.33717H43.7501V38.7546Z" fill="#A6A9B5"/>
<path d="M19.5312 10.9374C19.5312 9.85582 19.2105 8.7985 18.6096 7.89917C18.0087 6.99984 17.1546 6.29889 16.1553 5.88497C15.156 5.47106 14.0564 5.36276 12.9956 5.57377C11.9348 5.78478 10.9603 6.30563 10.1955 7.07045C9.43069 7.83527 8.90985 8.80971 8.69883 9.87054C8.48782 10.9314 8.59612 12.031 9.01004 13.0302C9.42395 14.0295 10.1249 14.8836 11.0242 15.4845C11.9236 16.0854 12.9809 16.4062 14.0625 16.4062C15.5124 16.4046 16.9025 15.8279 17.9277 14.8026C18.9529 13.7774 19.5296 12.3873 19.5312 10.9374ZM10.1563 10.9374C10.1563 10.1649 10.3853 9.40962 10.8146 8.76724C11.2438 8.12486 11.8539 7.62419 12.5676 7.32854C13.2814 7.03288 14.0668 6.95552 14.8246 7.10625C15.5823 7.25697 16.2783 7.62901 16.8246 8.1753C17.3709 8.7216 17.743 9.41763 17.8937 10.1754C18.0444 10.9331 17.9671 11.7185 17.6714 12.4323C17.3757 13.1461 16.8751 13.7561 16.2327 14.1854C15.5903 14.6146 14.8351 14.8437 14.0625 14.8437C13.0269 14.8425 12.034 14.4306 11.3016 13.6983C10.5693 12.966 10.1574 11.9731 10.1563 10.9374Z" fill="#A6A9B5"/>
<path d="M16.4062 10.9374C16.4062 10.4739 16.2688 10.0207 16.0113 9.63532C15.7537 9.24989 15.3877 8.94949 14.9594 8.7721C14.5311 8.5947 14.0599 8.54829 13.6053 8.63872C13.1506 8.72916 12.733 8.95238 12.4052 9.28016C12.0774 9.60794 11.8542 10.0256 11.7638 10.4802C11.6734 10.9348 11.7198 11.4061 11.8972 11.8344C12.0746 12.2626 12.375 12.6287 12.7604 12.8862C13.1458 13.1437 13.599 13.2812 14.0625 13.2812C14.6839 13.2805 15.2796 13.0333 15.719 12.5939C16.1584 12.1546 16.4056 11.5588 16.4062 10.9374ZM13.2813 10.9374C13.2813 10.7829 13.3271 10.6319 13.4129 10.5034C13.4988 10.3749 13.6208 10.2748 13.7635 10.2157C13.9063 10.1565 14.0634 10.1411 14.2149 10.1712C14.3665 10.2013 14.5057 10.2758 14.6149 10.385C14.7242 10.4943 14.7986 10.6335 14.8287 10.785C14.8589 10.9366 14.8434 11.0937 14.7843 11.2364C14.7251 11.3792 14.625 11.5012 14.4965 11.587C14.3681 11.6729 14.217 11.7187 14.0625 11.7187C13.8554 11.7185 13.6568 11.6361 13.5103 11.4896C13.3639 11.3431 13.2815 11.1446 13.2813 10.9374Z" fill="#A6A9B5"/>
</svg>
