<svg width="50" height="50" viewBox="0 0 50 50" fill="none" xmlns="http://www.w3.org/2000/svg">
<path d="M34.9513 2.08196C34.8003 1.17418 34.1604 0.423936 33.2877 0.131622C32.415 -0.160692 31.4522 0.0527036 30.7848 0.686366C25.6886 -0.534629 20.3372 -0.1192 15.4905 1.87366C11.6652 0.924901 7.62237 2.04856 4.83549 4.83508C2.0486 7.62161 0.924804 11.6639 1.87368 15.4888C-0.0330466 20.1123 -0.497786 25.204 0.540413 30.0962C0.0390697 30.7288 -0.124061 31.5654 0.102864 32.34C0.32979 33.1146 0.918548 33.7309 1.68203 33.993C5.75834 44.5718 16.4459 51.0817 27.7171 49.8514C38.9884 48.6211 48.0193 39.9588 49.7168 28.7498C51.4143 17.5408 45.353 6.59356 34.9513 2.08196V2.08196ZM31.4973 14.963C31.0365 14.5331 30.794 14.2865 30.374 13.8666C31.9014 11.8162 33.1131 9.54865 33.9688 7.1394C35.1301 7.71639 36.2313 8.40715 37.2562 9.20154L31.4973 14.963ZM30.0132 2.21527C29.949 2.76957 29.8508 3.3194 29.719 3.86164C26.5464 3.15701 23.256 3.17296 20.0903 3.9083C19.4397 3.4504 18.7482 3.0535 18.0246 2.72268C21.9083 1.51202 26.041 1.33711 30.0132 2.21527ZM29.2632 5.4647C28.6563 7.17752 27.8252 8.80247 26.7917 10.2972C20.7695 4.27491 22.1044 5.61134 21.7586 5.27556C24.249 4.86791 26.794 4.93207 29.2607 5.4647H29.2632ZM6.01432 6.0121C9.50499 2.52355 15.2072 2.32441 19.4304 5.47136C20.3636 6.15208 20.4995 6.36371 26.29 12.1527C26.4564 12.3189 26.6852 12.4071 26.9202 12.3956C27.1551 12.384 27.3741 12.2737 27.5233 12.0919C29.7434 9.29667 31.1732 5.9574 31.6639 2.4219C31.7122 1.96207 32.1199 1.6256 32.5806 1.66536C33.0311 1.7119 33.3619 2.10967 33.3255 2.56104C32.9548 5.58139 31.9106 8.47997 30.2698 11.0429C29.7874 11.8636 29.236 12.6418 28.6216 13.3691C28.3311 13.6992 28.3472 14.1982 28.6583 14.5089C29.4016 15.253 29.8032 15.6629 30.314 16.1403L16.1438 30.3104C15.6589 29.7921 15.3622 29.5038 14.6123 28.7548C14.3222 28.4664 13.8657 28.4311 13.5348 28.6715C9.9983 31.226 4.88937 32.5408 2.49865 32.4775C2.27696 32.4677 2.06663 32.3767 1.90785 32.2217C1.74309 32.0563 1.65649 31.8286 1.66969 31.5955C1.68288 31.3624 1.79463 31.146 1.97701 31.0002C2.46116 30.5978 2.74948 31.0894 5.681 30.362C7.96858 29.8481 10.144 28.9235 12.1015 27.6333C12.307 27.4939 12.4396 27.2701 12.4631 27.0229C12.4866 26.7757 12.3987 26.5309 12.2232 26.3552L6.60679 20.7395C2.267 16.3995 2.1945 9.8306 6.01266 6.0121H6.01432ZM14.9639 31.4935L9.20251 37.2508C8.29679 36.0833 7.52557 34.8175 6.90345 33.4773C9.40031 32.8643 11.7752 31.8327 13.9273 30.4262C14.2789 30.7778 14.5181 31.0111 14.9639 31.4935ZM5.35269 28.724C4.90791 26.4242 4.87968 24.0633 5.26936 21.7535C5.741 22.2401 3.79943 20.2954 10.3 26.7951C8.75186 27.6719 7.08572 28.3214 5.35269 28.724V28.724ZM2.72198 18.0225C3.05294 18.746 3.44988 19.4374 3.90775 20.088C3.2098 23.0294 3.1456 26.0857 3.71943 29.0539C2.70198 29.1997 2.59365 29.0939 2.05284 29.1922C1.36384 25.47 1.59353 21.6359 2.72198 18.0225ZM24.9976 48.3239C15.6435 48.3002 7.2015 42.7107 3.52861 34.1089C4.10819 34.0589 4.68459 33.9771 5.25519 33.8639C6.08558 35.7325 7.18003 37.4722 8.50504 39.0297C8.65591 39.2065 8.87381 39.3123 9.1061 39.3215C9.33839 39.3306 9.56396 39.2424 9.72831 39.078L39.0853 9.72479C39.2496 9.5607 39.338 9.33549 39.3291 9.10344C39.3203 8.8714 39.215 8.65358 39.0386 8.5025C37.6439 7.31646 36.1017 6.31557 34.4505 5.52469C34.5938 4.97367 34.7132 4.41183 34.8088 3.83915C44.7471 8.43861 50.1467 19.3321 47.7883 30.0251C45.43 40.7181 35.9489 48.3305 24.9976 48.3239V48.3239Z" fill="#A6A9B5"/>
<path d="M40.2657 10.9077L10.9087 40.2609C10.7443 40.4252 10.656 40.6508 10.6652 40.883C10.6744 41.1153 10.7802 41.3332 10.957 41.484C19.5525 48.8067 32.3325 48.2973 40.3176 40.3136C48.3027 32.3299 48.813 19.5516 41.4898 10.9569C41.339 10.7796 41.121 10.6735 40.8885 10.6642C40.656 10.6548 40.4302 10.7431 40.2657 10.9077V10.9077ZM34.7276 31.1333C35.965 33.6012 36.1675 34.7769 35.4775 35.4659C34.7876 36.155 33.6085 35.9567 31.1386 34.716C30.1144 34.1876 28.8982 34.1854 27.8721 34.7102C26.1407 35.7157 24.9539 37.447 24.6406 39.4244C24.4725 40.5688 23.5825 41.4725 22.4407 41.6582H22.414C22.2415 41.6582 21.7174 41.6398 21.5807 40.6583C21.2339 38.4053 20.4306 36.2469 19.22 34.3153L34.3184 19.2113C36.2502 20.4221 38.4094 21.2248 40.6631 21.57C41.6464 21.7108 41.6631 22.2366 41.6631 22.4032C41.4938 23.5578 40.5858 24.464 39.4307 24.6311C37.4542 24.9445 35.724 26.1313 34.7201 27.8622C34.1926 28.8895 34.1954 30.1085 34.7276 31.1333V31.1333ZM44.9963 24.9944C44.9994 32.6284 40.6534 39.5976 33.7962 42.9546C26.939 46.3115 18.7683 45.47 12.7395 40.7858L17.9975 35.5276C18.9786 37.1755 19.632 38.9975 19.9216 40.8933C19.9784 42.2166 21.0419 43.2745 22.3657 43.3245H22.4332C24.3764 43.1469 25.9544 41.6794 26.2722 39.7543C26.4927 38.2884 27.3457 36.9932 28.6054 36.2116C29.1657 35.9195 29.8333 35.9195 30.3936 36.2116C32.6502 37.3447 34.9926 38.3121 36.6558 36.6482C38.3191 34.9843 37.3525 32.6431 36.2217 30.3885C35.928 29.828 35.928 29.1592 36.2217 28.5988C37.0022 27.3392 38.2969 26.4861 39.7623 26.2658C41.7112 25.9468 43.1868 24.3326 43.3297 22.3632C43.2796 21.0395 42.221 19.9762 40.8973 19.9203C39.0018 19.63 37.1802 18.9764 35.5325 17.9956L40.7915 12.7374C43.5139 16.2437 44.993 20.5555 44.9963 24.9944V24.9944Z" fill="#A6A9B5"/>
<path d="M8.07584 17.5016C9.54577 18.9713 12.0065 20.0536 13.3789 18.6797C14.7764 17.2808 13.6497 14.8254 12.2006 13.3773C10.7515 11.9292 8.28833 10.8086 6.89756 12.1992C5.50679 13.5898 6.62674 16.0535 8.07584 17.5016ZM8.07584 13.3773C8.62831 12.8299 10.2591 13.7939 11.0224 14.5554C11.7298 15.2628 12.7523 16.9484 12.2006 17.5016C11.649 18.0548 10.0191 17.085 9.25412 16.3235C8.54665 15.6161 7.5242 13.9305 8.07584 13.3773Z" fill="#A6A9B5"/>
<path d="M18.6818 13.3773C19.8575 12.2017 19.3484 9.92291 17.5035 8.0749C15.6586 6.22689 13.3762 5.72198 12.2004 6.89677C11.0246 8.07157 11.5338 10.352 13.3787 12.1992C14.8378 13.6581 17.2902 14.7687 18.6818 13.3773ZM13.3787 8.0749C13.9195 7.53249 15.5494 8.47816 16.3252 9.25303C17.5643 10.4928 17.8551 11.8476 17.5035 12.1992C17.1518 12.5508 15.7969 12.26 14.557 11.0211C13.317 9.7821 13.027 8.4265 13.3787 8.0749Z" fill="#A6A9B5"/>
<path d="M16.1138 17.7648C16.1325 18.6327 16.3413 19.4859 16.7254 20.2644L16.9271 20.7293C17.4829 22.0191 17.9637 23.1331 19.0636 23.3439C19.1707 23.3644 19.2796 23.3747 19.3886 23.3747C20.3851 23.2224 21.2888 22.7036 21.9227 21.9199C22.6926 21.1501 23.5509 20.1286 23.3468 19.0613C23.1359 17.9615 22.0218 17.4782 20.731 16.925L20.2669 16.7234C19.4873 16.3419 18.6347 16.133 17.767 16.111C16.8728 16.1557 16.158 16.8707 16.1138 17.7648V17.7648ZM17.8262 17.7765H17.8737C18.4734 17.8169 19.0589 17.9775 19.5953 18.2489L20.0719 18.4564C20.6677 18.713 21.6652 19.1429 21.7102 19.3729C21.7102 19.3729 21.7618 19.7212 20.7444 20.7393C19.7269 21.7575 19.3744 21.7017 19.3778 21.705C19.1445 21.66 18.7111 20.6635 18.4612 20.0678L18.2537 19.5904C17.9437 19.0379 17.7955 18.4093 17.8262 17.7765V17.7765Z" fill="#A6A9B5"/>
</svg>
