<svg width="50" height="50" viewBox="0 0 50 50" fill="none" xmlns="http://www.w3.org/2000/svg">
<path d="M41.7085 12.4605H8.25797C7.79563 12.4605 7.42139 12.8353 7.42139 13.2971V36.7127C7.42139 37.1745 7.79621 37.5487 8.25797 37.5487H41.7085C42.1703 37.5487 42.5445 37.1745 42.5445 36.7127V13.2971C42.5445 12.8353 42.1703 12.4605 41.7085 12.4605ZM9.88276 35.8761L16.6203 26.4434L20.3086 31.5988L17.8133 35.8761H9.88276ZM19.7507 35.8761L30.0004 18.3022L40.2524 35.8761H19.7507ZM40.8719 14.1331V33.6186L30.7236 16.2237C30.4553 15.8247 29.914 15.7187 29.515 15.987C29.4218 16.0498 29.3412 16.1304 29.2784 16.2237L21.2316 30.0224L17.3014 24.5256C17.1454 24.3033 16.8921 24.1698 16.6203 24.1686C16.3503 24.1686 16.0969 24.2987 15.9398 24.5187L9.09455 34.1022V14.1331H40.8719Z" fill="#A6A9B5"/>
<path d="M49.8837 33.9203L47.5623 25.2557V9.95199C47.5623 8.56671 46.4389 7.44341 45.0537 7.44341H42.7857L42.0891 4.83061C41.7246 3.49772 40.352 2.70835 39.0168 3.06475L22.6658 7.44341H4.91281C3.52753 7.44341 2.40423 8.56671 2.40423 9.95199V12.8717L1.85898 13.0168C0.524944 13.3812 -0.267302 14.7515 0.0827603 16.0896L2.40423 24.7542V40.0579C2.40423 41.4432 3.52753 42.5665 4.91281 42.5665H7.18073L7.8774 45.1787C8.23725 46.5145 9.61159 47.3056 10.9474 46.9457C10.9479 46.9452 10.9491 46.9452 10.9497 46.9452L27.3007 42.5665H45.0537C46.4389 42.5665 47.5623 41.4432 47.5623 40.0574V37.1382L48.1075 36.9926C49.4415 36.6287 50.2338 35.2584 49.8837 33.9203ZM39.4504 4.68379C39.8943 4.56518 40.3503 4.82657 40.4723 5.26876L41.0527 7.44341H29.131L39.4504 4.68379ZM1.69892 15.6595C1.58262 15.2121 1.84747 14.7544 2.29253 14.6318L2.40423 14.6024V18.2919L1.69892 15.6595ZM10.5155 45.3302C10.0722 45.4488 9.6162 45.1874 9.49356 44.7452L8.91204 42.5665H20.8355L10.5155 45.3302ZM45.8897 40.0579C45.8897 40.5197 45.5154 40.8939 45.0537 40.8939H4.91281C4.45105 40.8939 4.07681 40.5197 4.07681 40.0579V9.95199C4.07681 9.49023 4.45105 9.11599 4.91281 9.11599H45.0537C45.5154 9.11599 45.8897 9.49023 45.8897 9.95199V40.0579ZM47.6734 35.3747L47.5623 35.4069V31.7175L48.2676 34.3498C48.3816 34.7961 48.1173 35.2521 47.6734 35.3747Z" fill="#A6A9B5"/>
<path d="M19.9658 23.332C21.8134 23.332 23.3109 21.8345 23.3109 19.9874C23.3109 18.1398 21.8134 16.6423 19.9658 16.6423C18.1182 16.6423 16.6206 18.1398 16.6206 19.9874C16.6206 21.8345 18.1182 23.332 19.9658 23.332ZM19.9658 18.3149C20.8893 18.3149 21.6384 19.0633 21.6384 19.9874C21.6384 20.911 20.8893 21.6594 19.9658 21.6594C19.0423 21.6594 18.2932 20.911 18.2932 19.9874C18.2932 19.0633 19.0423 18.3149 19.9658 18.3149Z" fill="#A6A9B5"/>
</svg>
