<svg width="50" height="50" viewBox="0 0 50 50" fill="none" xmlns="http://www.w3.org/2000/svg">
<g clip-path="url(#clip0_1274_16007)">
<path d="M11.3985 17.0781C11.0015 17.4301 10.7933 17.9483 10.8367 18.4769L11.5182 27.7041C11.5811 28.4306 12.1078 29.0327 12.8198 29.1917L18.4611 30.4563C18.8535 30.5436 19.1315 30.8933 19.1277 31.2953V42.4346C19.1235 43.3891 19.6605 44.2639 20.5139 44.6922L23.8713 46.385C24.5791 46.7397 25.4128 46.7397 26.1206 46.385L29.478 44.6922C30.3311 44.2639 30.8684 43.3891 30.8642 42.4346V31.298C30.8604 30.896 31.1384 30.5463 31.5304 30.459L37.1721 29.1944C37.8876 29.0335 38.4154 28.4256 38.4741 27.6949L39.1491 18.4944C39.1971 17.9602 38.9893 17.4347 38.5885 17.0781C38.1919 16.7246 37.65 16.5827 37.1313 16.6964L27.826 18.7099C26.6682 18.9685 25.8441 19.9943 25.8414 21.1803V21.5041C25.8345 21.5617 25.8109 21.6162 25.7731 21.66H24.2161C24.1783 21.6162 24.1547 21.5617 24.1478 21.5041V21.1803C24.1448 19.9935 23.3195 18.9673 22.161 18.7099L12.8556 16.699C12.337 16.5846 11.7954 16.7253 11.3985 17.0781ZM22.4783 21.1776V21.5018C22.4645 22.4582 23.2002 23.2591 24.1543 23.3262H25.8323C26.7841 23.2575 27.5178 22.4586 27.5052 21.5041V21.1803C27.5033 20.7787 27.7802 20.4294 28.1715 20.3394L37.4894 18.3568L37.2923 21.0026C37.1729 20.7761 37.0066 20.577 36.8049 20.4195C36.3053 20.0378 35.6589 19.9047 35.0495 20.058L29.7594 21.3744C29.2553 21.4945 28.8213 21.813 28.5555 22.258C28.3229 22.6538 28.2626 23.1279 28.3888 23.5695C29.0226 25.4774 30.8413 26.7366 32.8503 26.6584C33.1092 26.6584 33.3678 26.6397 33.624 26.6027C35.0747 26.4228 36.3496 25.554 37.0478 24.27L36.798 27.5706L31.1582 28.8329C30.0039 29.0884 29.1851 30.1158 29.1927 31.298V42.4346C29.1954 42.7595 29.0135 43.0577 28.7229 43.2042L25.3659 44.897C25.1298 45.0148 24.8522 45.0148 24.6161 44.897L21.2587 43.2042C20.9685 43.0577 20.7862 42.7595 20.7889 42.4346V31.298C20.7973 30.1173 19.9808 29.0903 18.8287 28.8329L13.1786 27.5748L12.9365 24.2666C13.6439 25.5601 14.9321 26.4327 16.3961 26.6092C16.6462 26.6451 16.8987 26.663 17.1515 26.6634C19.1548 26.7332 20.9643 25.4743 21.5954 23.5718C21.7217 23.1305 21.6614 22.6565 21.4288 22.2607C21.163 21.8156 20.729 21.4968 20.2249 21.3767L14.9347 20.0607C14.3253 19.9058 13.6786 20.0393 13.1794 20.4222C12.9776 20.5797 12.8121 20.7784 12.6939 21.0053L12.4971 18.3278L21.8052 20.3394C22.2006 20.4256 22.4821 20.7757 22.4817 21.1803L22.4783 21.1776ZM35.8233 21.7882V22.5379C35.7158 23.8463 34.6621 24.8764 33.3518 24.9542C31.9308 25.2364 30.5126 24.4554 29.9917 23.1038C29.9917 23.0871 30.0378 23.0203 30.1583 22.9887L35.4492 21.6726C35.5857 21.6375 35.7306 21.6822 35.8233 21.7882ZM14.1633 22.5379L14.209 21.7317C14.2731 21.6841 14.3513 21.6589 14.431 21.66C14.4661 21.6597 14.5015 21.6639 14.5358 21.6726L19.8282 22.9929C19.9507 23.0238 19.9949 23.0913 19.9949 23.1122C19.4663 24.4729 18.0317 25.252 16.6028 24.9549C15.3016 24.8672 14.2624 23.8368 14.1633 22.5364V22.5379Z" fill="#A6A9B5"/>
<path d="M24.9932 34.1562C25.6621 34.1757 26.3089 33.9186 26.7822 33.4457C27.255 32.9729 27.5121 32.3257 27.4926 31.6568C27.4922 31.2022 27.125 30.8327 26.6704 30.8297H26.6594C26.2067 30.8323 25.8375 31.1942 25.8265 31.6469C25.8265 32.1072 25.4535 32.4802 24.9932 32.4802C24.5333 32.4802 24.1604 32.1072 24.1604 31.6469C24.1573 31.187 23.7824 30.8159 23.3221 30.819C22.8622 30.8217 22.4912 31.1969 22.4942 31.6568C22.4744 32.3257 22.7314 32.9729 23.2047 33.4457C23.6776 33.9186 24.3247 34.1757 24.9932 34.1562Z" fill="#A6A9B5"/>
<path d="M23.327 38.3217H26.6593C27.1196 38.3217 27.4925 37.9483 27.4925 37.4884C27.4925 37.0285 27.1196 36.6552 26.6593 36.6552H23.327C22.8671 36.6552 22.4941 37.0285 22.4941 37.4884C22.4941 37.9483 22.8671 38.3217 23.327 38.3217Z" fill="#A6A9B5"/>
<path d="M4.59177 29.5411C4.81105 30.7839 5.90324 31.6824 7.16514 31.6568H8.35648C8.51551 32.0969 8.6955 32.5198 8.87817 32.9256C9.22063 33.5941 9.4685 34.3068 9.61532 35.0432C9.67024 35.4223 9.72096 35.8063 9.77282 36.1945C10.1435 38.9887 10.5634 42.1562 12.9045 44.6563C14.2644 45.8992 15.8394 46.8838 17.5528 47.5611C18.2743 47.902 18.955 48.2227 19.5839 48.5717C21.1127 49.599 22.9371 50.0956 24.7756 49.9846H25.1981C27.0355 50.0963 28.8584 49.5983 30.3838 48.5682C31.0153 48.2178 31.6994 47.8952 32.4232 47.5539C34.1367 46.8777 35.712 45.8946 37.0727 44.6529C39.4127 42.1535 39.8325 38.9879 40.2032 36.193C40.2551 35.804 40.3058 35.4192 40.3618 35.0417C40.4999 34.3232 40.7237 33.6242 41.0281 32.9591C41.1997 32.5423 41.3713 32.106 41.5181 31.6538H42.8216C44.0827 31.6782 45.1734 30.7805 45.3919 29.5384L46.6198 22.0406C46.7293 21.3347 46.5237 20.6167 46.0573 20.0755C45.5547 19.4921 44.8221 19.158 44.0522 19.1607H42.4875V14.1623C42.4791 6.34417 36.1433 0.0087711 28.3252 0H21.6607C13.8426 0.0087711 7.50721 6.34417 7.49844 14.1623V19.1607H5.93642C5.16418 19.1568 4.42932 19.4917 3.92555 20.077C3.45839 20.6193 3.25323 21.3389 3.36382 22.0456L4.59177 29.5411ZM22.9405 10.6809L20.8728 9.16389H23.4195C23.7658 9.16427 24.0766 8.94995 24.199 8.6258L24.993 6.52303L25.7869 8.6258C25.9097 8.94995 26.2202 9.16427 26.5668 9.16389H29.1135L27.0458 10.6809C26.7495 10.8983 26.6309 11.2842 26.7533 11.6305L27.4916 13.7134L25.4556 12.3562C25.1756 12.1693 24.8107 12.1693 24.5308 12.3562L22.494 13.7134L23.2319 11.6305C23.3547 11.2842 23.2365 10.8987 22.9405 10.6809ZM27.1057 15.4577C26.346 15.624 25.6275 15.9413 24.993 16.3909C24.3588 15.9417 23.6411 15.6244 22.8822 15.4577L24.993 14.0505L27.1057 15.4577ZM22.5172 17.0823C23.2319 17.2383 23.8932 17.5803 24.4331 18.0734C24.7512 18.3636 25.2382 18.3636 25.5562 18.0734C26.0966 17.5803 26.7575 17.2383 27.4721 17.0823L36.7802 15.071C37.8213 14.8476 38.9066 15.1336 39.7021 15.8414C40.4976 16.5492 40.9079 17.5933 40.8073 18.6535L40.1285 27.8547C40.0045 29.305 38.9539 30.507 37.5334 30.8239L33.1787 31.7994C32.7985 31.8849 32.5281 32.2227 32.5281 32.6125V42.4346C32.5354 44.0199 31.6434 45.4721 30.2266 46.1833L26.8692 47.8753C25.6878 48.4588 24.302 48.4588 23.1201 47.8753L19.7612 46.1825C18.3445 45.4713 17.4525 44.0191 17.4597 42.4334V32.609C17.4597 32.2193 17.1894 31.8814 16.8088 31.796L12.456 30.8239C11.0404 30.5097 9.99019 29.3157 9.85939 27.8715L9.17868 18.6451C9.078 17.5857 9.4891 16.5415 10.2857 15.8356C11.082 15.1294 12.1677 14.8464 13.2077 15.0737L22.5172 17.0823ZM11.4229 35.9764C11.3707 35.5798 11.3188 35.1874 11.2624 34.8018C11.0973 33.911 10.8055 33.0484 10.396 32.2399C10.2766 31.976 10.1633 31.7201 10.0627 31.4654C10.6564 31.9428 11.3512 32.2784 12.0945 32.4466L15.7951 33.2756V42.4346C15.7967 43.3937 16.0342 44.3379 16.4865 45.1838C15.6144 44.7582 14.8162 44.1957 14.1221 43.5172C12.1437 41.408 11.778 38.6466 11.4229 35.9764ZM38.714 34.8018C38.6572 35.1885 38.6046 35.5805 38.5523 35.9771C38.1981 38.6432 37.8316 41.408 35.8581 43.5157C35.1686 44.1896 34.375 44.7479 33.5078 45.1693C33.9563 44.3272 34.1919 43.3883 34.1942 42.4346V33.2756L37.8983 32.4424C38.5855 32.2845 39.2315 31.9825 39.7936 31.5569C39.6994 31.8067 39.5976 32.0652 39.4905 32.3284C39.1308 33.1178 38.87 33.9484 38.714 34.8018ZM44.7954 21.1567C44.9438 21.326 45.0113 21.5517 44.9793 21.7748L43.7513 29.2726C43.6556 29.7031 43.2666 30.004 42.8258 29.9892H41.9528C42.1145 29.2062 42.2354 28.4153 42.3144 27.6198C42.478 25.6387 42.5336 23.6499 42.481 21.6623C42.481 21.3836 42.481 21.1044 42.4761 20.8295H44.0537C44.3371 20.8268 44.6074 20.9473 44.7943 21.1601L44.7954 21.1567ZM21.6607 1.66613H28.3252C35.2235 1.67414 40.8137 7.264 40.8214 14.1623V14.6207C39.6258 13.5544 37.9959 13.1174 36.4271 13.4427L29.679 14.9006L28.5312 11.6579L32.1502 9.0022C32.44 8.78902 32.5605 8.41377 32.4488 8.0717C32.3367 7.72963 32.0179 7.49815 31.6579 7.49777H27.1423L25.7728 3.87034C25.6508 3.54581 25.34 3.33073 24.993 3.33073C24.6459 3.33073 24.3355 3.54581 24.2135 3.87034L22.8437 7.49777H18.3285C17.9685 7.49815 17.6493 7.72963 17.5375 8.0717C17.4254 8.41377 17.5459 8.78902 17.8361 9.0022L21.4552 11.6579L20.3069 14.9006L13.5593 13.4427C11.9904 13.1178 10.3605 13.5544 9.16457 14.6207V14.1623C9.17257 7.264 14.7624 1.67414 21.6607 1.66613ZM5.19164 21.1601C5.37926 20.9454 5.65155 20.8237 5.93642 20.8268H7.49844C7.50759 22.9097 7.54611 24.9439 7.58195 26.6916C7.59607 27.7987 7.70361 28.9019 7.90343 29.9907H7.16514C6.72315 30.0067 6.33265 29.7047 6.23731 29.2726L5.00821 21.7798C4.97618 21.5567 5.04329 21.3302 5.19164 21.1601Z" fill="#A6A9B5"/>
</g>
<defs>
<clipPath id="clip0_1274_16007">
<rect width="50" height="50" fill="white"/>
</clipPath>
</defs>
</svg>
