<svg width="50" height="50" viewBox="0 0 50 50" fill="none" xmlns="http://www.w3.org/2000/svg">
<g clip-path="url(#clip0_1274_16012)">
<path d="M17 24.5C16.7928 24.5 16.6465 23.8535 16.5 24C16.3535 24.1465 16.4062 24.2928 16.4062 24.5V35.1562C16.4062 35.3635 16.3239 35.5622 16.1774 35.7087C16.0309 35.8552 15.8322 35.9375 15.625 35.9375H14.8438C14.6365 35.9375 14.4378 35.8552 14.2913 35.7087C14.1448 35.5622 14.0625 35.3635 14.0625 35.1562V27.3438C14.0625 26.7221 13.8156 26.126 13.376 25.6865C12.9365 25.2469 12.3404 25 11.7188 25C11.0971 25 10.501 25.2469 10.0615 25.6865C9.62193 26.126 9.375 26.7221 9.375 27.3438V30.4688C9.375 30.676 9.29269 30.8747 9.14618 31.0212C8.99966 31.1677 8.80095 31.25 8.59375 31.25C8.38655 31.25 8.18784 31.1677 8.04132 31.0212C7.89481 30.8747 7.8125 30.676 7.8125 30.4688V19.5312C7.8125 19.324 7.73019 19.1253 7.58368 18.9788C7.43716 18.8323 7.23845 18.75 7.03125 18.75C6.82405 18.75 6.62534 18.8323 6.47882 18.9788C6.33231 19.1253 6.25 19.324 6.25 19.5312V30.4688C6.25 31.0904 6.49693 31.6865 6.93647 32.126C7.37601 32.5656 7.97215 32.8125 8.59375 32.8125C9.21535 32.8125 9.81149 32.5656 10.251 32.126C10.6906 31.6865 10.9375 31.0904 10.9375 30.4688V27.3438C10.9375 27.1365 11.0198 26.9378 11.1663 26.7913C11.3128 26.6448 11.5115 26.5625 11.7188 26.5625C11.926 26.5625 12.1247 26.6448 12.2712 26.7913C12.4177 26.9378 12.5 27.1365 12.5 27.3438V35.1562C12.5 35.7779 12.7469 36.374 13.1865 36.8135C13.626 37.2531 14.2221 37.5 14.8438 37.5H15.625C16.2466 37.5 16.8427 37.2531 17.2823 36.8135C17.7218 36.374 17.9688 35.7779 17.9688 35.1562V26C17.9688 25.7928 17.6465 25.1465 17.5 25C17.3535 24.8535 17.2072 24.5 17 24.5Z" fill="#A6A9B5"/>
<path d="M14.2625 42.4469C13.8375 42.9204 11.7188 45.3586 11.7188 46.875C11.7188 47.7038 12.048 48.4987 12.634 49.0847C13.2201 49.6708 14.0149 50 14.8438 50C15.6726 50 16.4674 49.6708 17.0535 49.0847C17.6395 48.4987 17.9688 47.7038 17.9688 46.875C17.9688 45.3586 15.85 42.9204 15.425 42.4469C15.3498 42.3687 15.2595 42.3064 15.1596 42.2639C15.0597 42.2213 14.9523 42.1994 14.8438 42.1994C14.7352 42.1994 14.6278 42.2213 14.5279 42.2639C14.428 42.3064 14.3377 42.3687 14.2625 42.4469ZM14.8438 48.4375C14.4293 48.4375 14.0319 48.2729 13.7389 47.9799C13.4459 47.6869 13.2812 47.2894 13.2812 46.875C13.2812 46.3774 14.0148 45.2149 14.8438 44.1789C15.6742 45.2204 16.4062 46.3914 16.4062 46.875C16.4062 47.2894 16.2416 47.6869 15.9486 47.9799C15.6556 48.2729 15.2582 48.4375 14.8438 48.4375Z" fill="#A6A9B5"/>
<path d="M9.175 34.6344C9.09977 34.5562 9.00951 34.4939 8.90963 34.4514C8.80975 34.4088 8.70231 34.3869 8.59375 34.3869C8.48519 34.3869 8.37775 34.4088 8.27787 34.4514C8.17799 34.4939 8.08773 34.5562 8.0125 34.6344C7.5875 35.1079 5.46875 37.5461 5.46875 39.0625C5.46875 39.8913 5.79799 40.6862 6.38404 41.2722C6.97009 41.8583 7.76495 42.1875 8.59375 42.1875C9.42255 42.1875 10.2174 41.8583 10.8035 41.2722C11.3895 40.6862 11.7188 39.8913 11.7188 39.0625C11.7188 37.5461 9.6 35.1079 9.175 34.6344ZM8.59375 40.625C8.17935 40.625 7.78192 40.4604 7.4889 40.1674C7.19587 39.8744 7.03125 39.4769 7.03125 39.0625C7.03125 38.5649 7.76484 37.4024 8.59375 36.3664C9.42422 37.4079 10.1562 38.5789 10.1562 39.0625C10.1562 39.4769 9.99163 39.8744 9.6986 40.1674C9.40558 40.4604 9.00815 40.625 8.59375 40.625Z" fill="#A6A9B5"/>
<path d="M49.7658 45.5391L39.7744 35.625L41.9682 33.3524C42.1101 33.2051 42.1886 33.0081 42.1868 32.8036C42.1851 32.5991 42.1032 32.4034 41.9588 32.2586L40.3963 30.6961C40.2482 30.5522 40.0504 30.4708 39.844 30.4688C39.7409 30.4694 39.6389 30.4905 39.544 30.5307C39.449 30.5709 39.363 30.6295 39.2908 30.7032L37.7346 32.2805L32.5861 27.1336C32.4371 27.0008 32.2429 26.93 32.0433 26.9359C31.8438 26.9418 31.6541 27.0238 31.5131 27.1652C31.3721 27.3065 31.2906 27.4965 31.2853 27.6961C31.28 27.8956 31.3513 28.0897 31.4846 28.2383L33.3791 30.1328L31.9729 31.5391C31.8983 31.6112 31.8387 31.6974 31.7978 31.7927C31.7568 31.888 31.7353 31.9905 31.7344 32.0943C31.7335 32.198 31.7533 32.3009 31.7925 32.3969C31.8318 32.4929 31.8898 32.5801 31.9632 32.6535C32.0365 32.7268 32.1238 32.7848 32.2198 32.8241C32.3158 32.8634 32.4187 32.8832 32.5224 32.8823C32.6261 32.8814 32.7286 32.8598 32.824 32.8189C32.9193 32.7779 33.0055 32.7184 33.0776 32.6438L34.4838 31.2375L35.0361 31.7899L33.6299 33.1961C33.5494 33.2667 33.4842 33.353 33.4385 33.4497C33.3927 33.5465 33.3673 33.6516 33.3638 33.7586C33.3604 33.8655 33.379 33.9721 33.4184 34.0716C33.4578 34.1711 33.5173 34.2614 33.5931 34.337C33.6688 34.4126 33.7593 34.4718 33.859 34.5109C33.9586 34.5501 34.0652 34.5683 34.1721 34.5646C34.2791 34.5608 34.3841 34.5351 34.4808 34.4891C34.5774 34.443 34.6635 34.3776 34.7338 34.2969L36.1401 32.8907L36.6393 33.3899L31.9604 38.1414L21.094 27.1719V25C21.094 24.7928 21.0117 24.5941 20.8651 24.4476C20.7186 24.3011 20.5199 24.2188 20.3127 24.2188C20.1055 24.2188 19.9068 24.3011 19.7603 24.4476C19.6138 24.5941 19.5315 24.7928 19.5315 25V25.5938L6.09006 12.0164C5.30181 10.6062 4.8337 9.03968 4.71896 7.42816L17.8518 20.8594C17.9968 21.0076 18.1948 21.092 18.4021 21.0942C18.6094 21.0964 18.8091 21.0162 18.9572 20.8711C19.1054 20.7261 19.1899 20.5281 19.1921 20.3208C19.1943 20.1135 19.114 19.9138 18.969 19.7657L4.75178 5.22581C4.82525 4.16949 5.03157 3.12664 5.36584 2.12191L32.2424 29C32.3897 29.1423 32.0375 28.6715 32.2424 28.6697C32.4472 28.668 32.8554 28.3832 33.0002 28.2383C33.1451 28.0935 33.4984 29.2048 33.5002 29C33.502 28.7952 33.0941 27.6473 32.9517 27.5L5.68146 0.228939C5.59804 0.145477 5.49679 0.081999 5.38531 0.0432705C5.27384 0.00454207 5.15504 -0.00843027 5.03784 0.00532745C4.92064 0.0190852 4.80807 0.0592155 4.7086 0.122705C4.60912 0.186195 4.52533 0.271395 4.46349 0.371908C4.17365 0.843002 3.21896 2.65628 3.12521 6.22972C3.05898 8.56822 3.6394 10.8796 4.80256 12.9094C4.83394 12.9604 4.87117 13.0076 4.91349 13.05L6.25021 14.3993V20C6.25021 20.2072 6.33252 20.1743 6.47904 20.3208C6.62555 20.4673 6.82426 20.5 7.03146 20.5C7.23866 20.5 7.43738 21.0176 7.58389 20.8711C7.7304 20.7246 7.81271 21.0666 7.81271 20.8594V15.9774L19.3635 27.6453C19.3681 27.6511 19.3733 27.6564 19.3791 27.661L30.8596 39.2586L29.758 40.3789C29.6133 40.5258 29.5324 40.7239 29.5332 40.9301C29.5339 41.1363 29.6161 41.3339 29.7619 41.4797L31.4197 43.1375C31.5662 43.2841 31.7649 43.3664 31.9721 43.3664H31.9791C32.0828 43.3654 32.1853 43.3437 32.2805 43.3027C32.3757 43.2616 32.4618 43.202 32.5338 43.1274L35.683 39.8657L45.5401 49.7704C45.6127 49.8432 45.699 49.901 45.7941 49.9405C45.8891 49.9799 45.9911 50.0001 46.094 50C46.3011 50 46.4998 49.9177 46.6463 49.7711L49.7713 46.6461C49.8442 46.5735 49.902 46.4873 49.9415 46.3923C49.9809 46.2973 50.0012 46.1955 50.0012 46.0926C50.0012 45.9898 49.9809 45.8879 49.9415 45.7929C49.902 45.6979 49.8442 45.6117 49.7713 45.5391H49.7658ZM31.9627 41.4703L31.4158 40.9235L39.8479 32.3594L40.3111 32.8219L31.9627 41.4703ZM46.094 48.1125L40.1815 42.175L41.176 41.1805C41.3183 41.0332 41.397 40.8358 41.3953 40.631C41.3935 40.4261 41.3113 40.2302 41.1665 40.0853C41.0216 39.9405 40.8257 39.8583 40.6208 39.8565C40.416 39.8548 40.2187 39.9335 40.0713 40.0758L39.0799 41.0672L36.7674 38.7438L38.6877 36.7547L48.1119 46.0938L46.094 48.1125Z" fill="#A6A9B5"/>
</g>
<defs>
<clipPath id="clip0_1274_16012">
<rect width="50" height="50" fill="white"/>
</clipPath>
</defs>
</svg>
