<svg width="12" height="8" viewBox="0 0 12 8" fill="none" xmlns="http://www.w3.org/2000/svg">
<path d="M8.33342 3.99996C8.33342 5.28862 7.28875 6.33329 6.00008 6.33329C4.71142 6.33329 3.66675 5.28862 3.66675 3.99996C3.66675 2.71129 4.71142 1.66663 6.00008 1.66663C7.28875 1.66663 8.33342 2.71129 8.33342 3.99996Z" fill="#A6A9B5"/>
<path fill-rule="evenodd" clip-rule="evenodd" d="M6.00005 0.995817C4.3263 0.995818 2.56913 2.025 1.17052 4.26278C1.02538 4.49499 0.719476 4.56559 0.487259 4.42045C0.255042 4.27532 0.184449 3.96941 0.329584 3.73719C1.84764 1.3083 3.88214 0.00415102 6.00005 0.00415039C8.11796 0.00414976 10.1525 1.3083 11.6705 3.73719C11.8157 3.96941 11.7451 4.27532 11.5128 4.42045C11.2806 4.56559 10.9747 4.49499 10.8296 4.26278C9.43097 2.025 7.6738 0.995817 6.00005 0.995817Z" fill="#A6A9B5"/>
<path fill-rule="evenodd" clip-rule="evenodd" d="M6.00005 7.00418C4.3263 7.00418 2.56913 5.975 1.17052 3.73722C1.02538 3.50501 0.719476 3.43441 0.487259 3.57955C0.255042 3.72468 0.184449 4.03059 0.329584 4.26281C1.84764 6.6917 3.88214 7.99585 6.00005 7.99585C8.11796 7.99585 10.1525 6.6917 11.6705 4.26281C11.8157 4.03059 11.7451 3.72468 11.5128 3.57955C11.2806 3.43441 10.9747 3.50501 10.8296 3.73722C9.43097 5.975 7.6738 7.00418 6.00005 7.00418Z" fill="#A6A9B5"/>
</svg>
