<svg width="24" height="24" viewBox="0 0 24 24" fill="none" xmlns="http://www.w3.org/2000/svg">
<path fill-rule="evenodd" clip-rule="evenodd" d="M19.0323 6.35806C19.8065 6.55548 20.417 7.13613 20.6236 7.87355C21 9.21097 21 12 21 12C21 12 21 14.789 20.6236 16.1265C20.417 16.8639 19.8065 17.4445 19.0323 17.6419C17.6291 18 12 18 12 18C12 18 6.37091 18 4.96773 17.6419C4.19352 17.4445 3.58295 16.8639 3.37636 16.1265C3 14.789 3 12 3 12C3 12 3 9.21097 3.37636 7.87355C3.58295 7.13613 4.19352 6.55548 4.96773 6.35806C6.37091 6 12 6 12 6C12 6 17.6291 6 19.0323 6.35806ZM14.8636 12L10.1591 9.46742V14.5326L14.8636 12Z" fill="white"/>
</svg>
